<svg width="48" height="32" viewBox="0 0 48 32" fill="none" xmlns="http://www.w3.org/2000/svg">
<path d="M0 2C0 0.895431 0.895431 0 2 0H32.9684C34.0852 0 34.9857 0.91466 34.9681 2.03136C34.951 3.12357 34.0607 4 32.9684 4H2C0.895432 4 0 3.10457 0 2Z" fill="#F59C04"/>
<path d="M0 30C0 28.8954 0.895431 28 2 28H32.9684C34.0852 28 34.9857 28.9147 34.9681 30.0314C34.951 31.1236 34.0607 32 32.9684 32H2C0.895432 32 0 31.1046 0 30Z" fill="#F59C04"/>
<path d="M0 9C0 7.89543 0.895431 7 2 7H39.962C41.0813 7 41.9827 7.91853 41.9617 9.03763C41.9412 10.1273 41.0519 11 39.962 11H2C0.895432 11 0 10.1046 0 9Z" fill="#F59C04"/>
<path d="M0 23C0 21.8954 0.895431 21 2 21H39.962C41.0813 21 41.9827 21.9185 41.9617 23.0376C41.9412 24.1273 41.0519 25 39.962 25H2C0.895432 25 0 24.1046 0 23Z" fill="#F59C04"/>
<path d="M0 16C0 14.8954 0.895431 14 2 14H45.9565C47.0779 14 47.9802 14.9219 47.9561 16.043C47.9327 17.1306 47.0443 18 45.9565 18H2C0.895431 18 0 17.1046 0 16Z" fill="#F59C04"/>
</svg>
