<svg width="942" height="375" viewBox="0 0 942 375" fill="none" xmlns="http://www.w3.org/2000/svg">
<g filter="url(#filter0_d_802_50)">
<rect x="4" width="934" height="367" fill="white"/>
</g>
<path d="M153.872 100.2V117H152.12V109.248H141.608V117H139.832V100.2H141.608V107.688H152.12V100.2H153.872ZM170.175 111.216H159.615C159.711 112.528 160.215 113.592 161.127 114.408C162.039 115.208 163.191 115.608 164.583 115.608C165.367 115.608 166.087 115.472 166.743 115.2C167.399 114.912 167.967 114.496 168.447 113.952L169.407 115.056C168.847 115.728 168.143 116.24 167.295 116.592C166.463 116.944 165.543 117.12 164.535 117.12C163.239 117.12 162.087 116.848 161.079 116.304C160.087 115.744 159.311 114.976 158.751 114C158.191 113.024 157.911 111.92 157.911 110.688C157.911 109.456 158.175 108.352 158.703 107.376C159.247 106.4 159.983 105.64 160.911 105.096C161.855 104.552 162.911 104.28 164.079 104.28C165.247 104.28 166.295 104.552 167.223 105.096C168.151 105.64 168.879 106.4 169.407 107.376C169.935 108.336 170.199 109.44 170.199 110.688L170.175 111.216ZM164.079 105.744C162.863 105.744 161.839 106.136 161.007 106.92C160.191 107.688 159.727 108.696 159.615 109.944H168.567C168.455 108.696 167.983 107.688 167.151 106.92C166.335 106.136 165.311 105.744 164.079 105.744ZM188.292 110.472C190.004 110.872 190.86 111.904 190.86 113.568C190.86 114.672 190.452 115.52 189.636 116.112C188.82 116.704 187.604 117 185.988 117H180.252V104.376H185.82C187.26 104.376 188.388 104.656 189.204 105.216C190.02 105.776 190.428 106.576 190.428 107.616C190.428 108.304 190.236 108.896 189.852 109.392C189.484 109.872 188.964 110.232 188.292 110.472ZM181.908 109.992H185.7C186.676 109.992 187.42 109.808 187.932 109.44C188.46 109.072 188.724 108.536 188.724 107.832C188.724 107.128 188.46 106.6 187.932 106.248C187.42 105.896 186.676 105.72 185.7 105.72H181.908V109.992ZM185.916 115.656C187.004 115.656 187.82 115.48 188.364 115.128C188.908 114.776 189.18 114.224 189.18 113.472C189.18 112.72 188.932 112.168 188.436 111.816C187.94 111.448 187.156 111.264 186.084 111.264H181.908V115.656H185.916ZM200.134 117.12C198.886 117.12 197.766 116.848 196.774 116.304C195.798 115.76 195.03 115 194.47 114.024C193.91 113.032 193.63 111.92 193.63 110.688C193.63 109.456 193.91 108.352 194.47 107.376C195.03 106.4 195.798 105.64 196.774 105.096C197.766 104.552 198.886 104.28 200.134 104.28C201.222 104.28 202.19 104.496 203.038 104.928C203.902 105.344 204.582 105.96 205.078 106.776L203.806 107.64C203.39 107.016 202.862 106.552 202.222 106.248C201.582 105.928 200.886 105.768 200.134 105.768C199.222 105.768 198.398 105.976 197.662 106.392C196.942 106.792 196.374 107.368 195.958 108.12C195.558 108.872 195.358 109.728 195.358 110.688C195.358 111.664 195.558 112.528 195.958 113.28C196.374 114.016 196.942 114.592 197.662 115.008C198.398 115.408 199.222 115.608 200.134 115.608C200.886 115.608 201.582 115.456 202.222 115.152C202.862 114.848 203.39 114.384 203.806 113.76L205.078 114.624C204.582 115.44 203.902 116.064 203.038 116.496C202.174 116.912 201.206 117.12 200.134 117.12ZM212.961 111.384H210.081V117H208.377V104.376H210.081V109.92H212.985L217.425 104.376H219.273L214.305 110.496L219.633 117H217.617L212.961 111.384ZM228.826 104.28C230.01 104.28 231.082 104.552 232.042 105.096C233.002 105.624 233.754 106.376 234.298 107.352C234.842 108.328 235.114 109.44 235.114 110.688C235.114 111.952 234.842 113.072 234.298 114.048C233.754 115.024 233.002 115.784 232.042 116.328C231.098 116.856 230.026 117.12 228.826 117.12C227.802 117.12 226.874 116.912 226.042 116.496C225.226 116.064 224.554 115.44 224.026 114.624V121.656H222.322V104.376H223.954V106.872C224.466 106.04 225.138 105.4 225.97 104.952C226.818 104.504 227.77 104.28 228.826 104.28ZM228.706 115.608C229.586 115.608 230.386 115.408 231.106 115.008C231.826 114.592 232.386 114.008 232.786 113.256C233.202 112.504 233.41 111.648 233.41 110.688C233.41 109.728 233.202 108.88 232.786 108.144C232.386 107.392 231.826 106.808 231.106 106.392C230.386 105.976 229.586 105.768 228.706 105.768C227.81 105.768 227.002 105.976 226.282 106.392C225.578 106.808 225.018 107.392 224.602 108.144C224.202 108.88 224.002 109.728 224.002 110.688C224.002 111.648 224.202 112.504 224.602 113.256C225.018 114.008 225.578 114.592 226.282 115.008C227.002 115.408 227.81 115.608 228.706 115.608ZM244.08 108.84C245.664 108.856 246.872 109.208 247.704 109.896C248.536 110.584 248.952 111.576 248.952 112.872C248.952 114.216 248.504 115.248 247.608 115.968C246.712 116.688 245.432 117.04 243.768 117.024L238.776 117V104.376H240.48V108.792L244.08 108.84ZM251.064 104.376H252.768V117H251.064V104.376ZM243.672 115.728C244.84 115.744 245.72 115.512 246.312 115.032C246.92 114.536 247.224 113.816 247.224 112.872C247.224 111.944 246.928 111.256 246.336 110.808C245.744 110.36 244.856 110.128 243.672 110.112L240.48 110.064V115.68L243.672 115.728ZM265.659 110.472C267.371 110.872 268.227 111.904 268.227 113.568C268.227 114.672 267.819 115.52 267.003 116.112C266.187 116.704 264.971 117 263.355 117H257.619V104.376H263.187C264.627 104.376 265.755 104.656 266.571 105.216C267.387 105.776 267.795 106.576 267.795 107.616C267.795 108.304 267.603 108.896 267.219 109.392C266.851 109.872 266.331 110.232 265.659 110.472ZM259.275 109.992H263.067C264.043 109.992 264.787 109.808 265.299 109.44C265.827 109.072 266.091 108.536 266.091 107.832C266.091 107.128 265.827 106.6 265.299 106.248C264.787 105.896 264.043 105.72 263.067 105.72H259.275V109.992ZM263.283 115.656C264.371 115.656 265.187 115.48 265.731 115.128C266.275 114.776 266.547 114.224 266.547 113.472C266.547 112.72 266.299 112.168 265.803 111.816C265.307 111.448 264.523 111.264 263.451 111.264H259.275V115.656H263.283ZM276.565 104.28C278.213 104.28 279.477 104.696 280.357 105.528C281.237 106.344 281.677 107.56 281.677 109.176V117H280.045V115.032C279.661 115.688 279.093 116.2 278.341 116.568C277.605 116.936 276.725 117.12 275.701 117.12C274.293 117.12 273.173 116.784 272.341 116.112C271.509 115.44 271.093 114.552 271.093 113.448C271.093 112.376 271.477 111.512 272.245 110.856C273.029 110.2 274.269 109.872 275.965 109.872H279.973V109.104C279.973 108.016 279.669 107.192 279.061 106.632C278.453 106.056 277.565 105.768 276.397 105.768C275.597 105.768 274.829 105.904 274.093 106.176C273.357 106.432 272.725 106.792 272.197 107.256L271.429 105.984C272.069 105.44 272.837 105.024 273.733 104.736C274.629 104.432 275.573 104.28 276.565 104.28ZM275.965 115.776C276.925 115.776 277.749 115.56 278.437 115.128C279.125 114.68 279.637 114.04 279.973 113.208V111.144H276.013C273.853 111.144 272.773 111.896 272.773 113.4C272.773 114.136 273.053 114.72 273.613 115.152C274.173 115.568 274.957 115.776 275.965 115.776ZM295.093 105.888H290.317V117H288.613V105.888H283.837V104.376H295.093V105.888ZM302.981 108.84C304.565 108.856 305.765 109.208 306.581 109.896C307.413 110.584 307.829 111.576 307.829 112.872C307.829 114.216 307.381 115.248 306.485 115.968C305.605 116.688 304.325 117.04 302.645 117.024L297.557 117V104.376H299.261V108.792L302.981 108.84ZM302.549 115.728C303.717 115.744 304.597 115.512 305.189 115.032C305.797 114.536 306.101 113.816 306.101 112.872C306.101 111.944 305.805 111.256 305.213 110.808C304.621 110.36 303.733 110.128 302.549 110.112L299.261 110.064V115.68L302.549 115.728ZM311.037 114.504C311.405 114.504 311.709 114.632 311.949 114.888C312.189 115.128 312.309 115.432 312.309 115.8C312.309 115.992 312.277 116.2 312.213 116.424C312.165 116.648 312.085 116.904 311.973 117.192L310.965 120.504H309.813L310.629 117.024C310.373 116.944 310.165 116.8 310.005 116.592C309.845 116.368 309.765 116.104 309.765 115.8C309.765 115.432 309.885 115.128 310.125 114.888C310.365 114.632 310.669 114.504 311.037 114.504ZM333.588 104.376V117H331.884V105.888H323.964V117H322.26V104.376H333.588ZM343.64 117.12C342.424 117.12 341.328 116.848 340.352 116.304C339.376 115.744 338.608 114.976 338.048 114C337.488 113.024 337.208 111.92 337.208 110.688C337.208 109.456 337.488 108.352 338.048 107.376C338.608 106.4 339.376 105.64 340.352 105.096C341.328 104.552 342.424 104.28 343.64 104.28C344.856 104.28 345.952 104.552 346.928 105.096C347.904 105.64 348.664 106.4 349.208 107.376C349.768 108.352 350.048 109.456 350.048 110.688C350.048 111.92 349.768 113.024 349.208 114C348.664 114.976 347.904 115.744 346.928 116.304C345.952 116.848 344.856 117.12 343.64 117.12ZM343.64 115.608C344.536 115.608 345.336 115.408 346.04 115.008C346.76 114.592 347.32 114.008 347.72 113.256C348.12 112.504 348.32 111.648 348.32 110.688C348.32 109.728 348.12 108.872 347.72 108.12C347.32 107.368 346.76 106.792 346.04 106.392C345.336 105.976 344.536 105.768 343.64 105.768C342.744 105.768 341.936 105.976 341.216 106.392C340.512 106.792 339.952 107.368 339.536 108.12C339.136 108.872 338.936 109.728 338.936 110.688C338.936 111.648 339.136 112.504 339.536 113.256C339.952 114.008 340.512 114.592 341.216 115.008C341.936 115.408 342.744 115.608 343.64 115.608ZM363.939 104.376V117H362.235V105.888H356.187L356.019 109.008C355.891 111.632 355.587 113.648 355.107 115.056C354.627 116.464 353.771 117.168 352.539 117.168C352.203 117.168 351.795 117.104 351.315 116.976L351.435 115.512C351.723 115.576 351.923 115.608 352.035 115.608C352.691 115.608 353.187 115.304 353.523 114.696C353.859 114.088 354.083 113.336 354.195 112.44C354.307 111.544 354.403 110.36 354.483 108.888L354.699 104.376H363.939ZM379.511 104.376L373.199 118.512C372.687 119.696 372.095 120.536 371.423 121.032C370.751 121.528 369.943 121.776 368.999 121.776C368.391 121.776 367.823 121.68 367.295 121.488C366.767 121.296 366.311 121.008 365.927 120.624L366.719 119.352C367.359 119.992 368.127 120.312 369.023 120.312C369.599 120.312 370.087 120.152 370.487 119.832C370.903 119.512 371.287 118.968 371.639 118.2L372.191 116.976L366.551 104.376H368.327L373.079 115.104L377.831 104.376H379.511ZM391.694 104.376V117H389.99V111.744C388.534 112.384 387.102 112.704 385.694 112.704C384.174 112.704 382.99 112.36 382.142 111.672C381.294 110.968 380.87 109.92 380.87 108.528V104.376H382.574V108.432C382.574 109.376 382.878 110.096 383.486 110.592C384.094 111.072 384.934 111.312 386.006 111.312C387.19 111.312 388.518 111 389.99 110.376V104.376H391.694ZM396.533 104.376H398.237V114.408L406.661 104.376H408.173V117H406.469V106.968L398.069 117H396.533V104.376ZM421.937 105.888H417.161V117H415.457V105.888H410.681V104.376H421.937V105.888ZM429.825 108.84C431.409 108.856 432.609 109.208 433.425 109.896C434.257 110.584 434.673 111.576 434.673 112.872C434.673 114.216 434.225 115.248 433.329 115.968C432.449 116.688 431.169 117.04 429.489 117.024L424.401 117V104.376H426.105V108.792L429.825 108.84ZM429.393 115.728C430.561 115.744 431.441 115.512 432.033 115.032C432.641 114.536 432.945 113.816 432.945 112.872C432.945 111.944 432.649 111.256 432.057 110.808C431.465 110.36 430.577 110.128 429.393 110.112L426.105 110.064V115.68L429.393 115.728ZM456.517 115.512V120.048H454.909V117H443.605V120.048H441.997V115.512H442.717C443.565 115.464 444.141 114.84 444.445 113.64C444.749 112.44 444.957 110.76 445.069 108.6L445.237 104.376H454.549V115.512H456.517ZM446.629 108.696C446.549 110.488 446.397 111.968 446.173 113.136C445.949 114.288 445.549 115.08 444.973 115.512H452.845V105.888H446.773L446.629 108.696ZM470.878 111.216H460.318C460.414 112.528 460.918 113.592 461.83 114.408C462.742 115.208 463.894 115.608 465.286 115.608C466.07 115.608 466.79 115.472 467.446 115.2C468.102 114.912 468.67 114.496 469.15 113.952L470.11 115.056C469.55 115.728 468.846 116.24 467.998 116.592C467.166 116.944 466.246 117.12 465.238 117.12C463.942 117.12 462.79 116.848 461.782 116.304C460.79 115.744 460.014 114.976 459.454 114C458.894 113.024 458.614 111.92 458.614 110.688C458.614 109.456 458.878 108.352 459.406 107.376C459.95 106.4 460.686 105.64 461.614 105.096C462.558 104.552 463.614 104.28 464.782 104.28C465.95 104.28 466.998 104.552 467.926 105.096C468.854 105.64 469.582 106.4 470.11 107.376C470.638 108.336 470.902 109.44 470.902 110.688L470.878 111.216ZM464.782 105.744C463.566 105.744 462.542 106.136 461.71 106.92C460.894 107.688 460.43 108.696 460.318 109.944H469.27C469.158 108.696 468.686 107.688 467.854 106.92C467.038 106.136 466.014 105.744 464.782 105.744ZM474.674 104.376H476.378V109.968H484.322V104.376H486.026V117H484.322V111.432H476.378V117H474.674V104.376ZM496.293 108.84C497.877 108.856 499.077 109.208 499.893 109.896C500.725 110.584 501.141 111.576 501.141 112.872C501.141 114.216 500.693 115.248 499.797 115.968C498.917 116.688 497.637 117.04 495.957 117.024L490.869 117V104.376H492.573V108.792L496.293 108.84ZM495.861 115.728C497.029 115.744 497.909 115.512 498.501 115.032C499.109 114.536 499.413 113.816 499.413 112.872C499.413 111.944 499.117 111.256 498.525 110.808C497.933 110.36 497.045 110.128 495.861 110.112L492.573 110.064V115.68L495.861 115.728ZM513.321 105.888H506.097V117H504.393V104.376H513.321V105.888ZM515.783 104.376H517.487V114.408L525.911 104.376H527.423V117H525.719V106.968L517.319 117H515.783V104.376Z" fill="black"/>
<rect x="35.5" y="89.5" width="72" height="36.5" rx="18.25" fill="white" stroke="#0D73C8"/>
<circle cx="53.7504" cy="107.75" r="16.475" fill="#164FA5"/>
<circle cx="53.7504" cy="107.75" r="16.475" fill="url(#paint0_linear_802_50)"/>
<circle cx="53.7504" cy="107.75" r="16.475" stroke="white"/>
<path d="M155.264 266.464V271.768H153.608V268H138.944L138.92 271.768H137.264L137.288 266.464H138.128C139.232 266.4 140 265.528 140.432 263.848C140.864 262.152 141.128 259.752 141.224 256.648L141.416 251.2H152.744V266.464H155.264ZM142.808 256.816C142.728 259.376 142.528 261.488 142.208 263.152C141.904 264.8 141.384 265.904 140.648 266.464H150.992V252.736H142.952L142.808 256.816ZM162.823 255.28C164.471 255.28 165.735 255.696 166.615 256.528C167.495 257.344 167.935 258.56 167.935 260.176V268H166.303V266.032C165.919 266.688 165.351 267.2 164.599 267.568C163.863 267.936 162.983 268.12 161.959 268.12C160.551 268.12 159.431 267.784 158.599 267.112C157.767 266.44 157.351 265.552 157.351 264.448C157.351 263.376 157.735 262.512 158.503 261.856C159.287 261.2 160.527 260.872 162.223 260.872H166.231V260.104C166.231 259.016 165.927 258.192 165.319 257.632C164.711 257.056 163.823 256.768 162.655 256.768C161.855 256.768 161.087 256.904 160.351 257.176C159.615 257.432 158.983 257.792 158.455 258.256L157.687 256.984C158.327 256.44 159.095 256.024 159.991 255.736C160.887 255.432 161.831 255.28 162.823 255.28ZM162.223 266.776C163.183 266.776 164.007 266.56 164.695 266.128C165.383 265.68 165.895 265.04 166.231 264.208V262.144H162.271C160.111 262.144 159.031 262.896 159.031 264.4C159.031 265.136 159.311 265.72 159.871 266.152C160.431 266.568 161.215 266.776 162.223 266.776ZM181.351 256.888H176.575V268H174.871V256.888H170.095V255.376H181.351V256.888ZM189.239 259.84C190.823 259.856 192.023 260.208 192.839 260.896C193.671 261.584 194.087 262.576 194.087 263.872C194.087 265.216 193.639 266.248 192.743 266.968C191.863 267.688 190.583 268.04 188.903 268.024L183.815 268V255.376H185.519V259.792L189.239 259.84ZM188.807 266.728C189.975 266.744 190.855 266.512 191.447 266.032C192.055 265.536 192.359 264.816 192.359 263.872C192.359 262.944 192.063 262.256 191.471 261.808C190.879 261.36 189.991 261.128 188.807 261.112L185.519 261.064V266.68L188.807 266.728ZM211.659 261.472C213.371 261.872 214.227 262.904 214.227 264.568C214.227 265.672 213.819 266.52 213.003 267.112C212.187 267.704 210.971 268 209.355 268H203.619V255.376H209.187C210.627 255.376 211.755 255.656 212.571 256.216C213.387 256.776 213.795 257.576 213.795 258.616C213.795 259.304 213.603 259.896 213.219 260.392C212.851 260.872 212.331 261.232 211.659 261.472ZM205.275 260.992H209.067C210.043 260.992 210.787 260.808 211.299 260.44C211.827 260.072 212.091 259.536 212.091 258.832C212.091 258.128 211.827 257.6 211.299 257.248C210.787 256.896 210.043 256.72 209.067 256.72H205.275V260.992ZM209.283 266.656C210.371 266.656 211.187 266.48 211.731 266.128C212.275 265.776 212.547 265.224 212.547 264.472C212.547 263.72 212.299 263.168 211.803 262.816C211.307 262.448 210.523 262.264 209.451 262.264H205.275V266.656H209.283ZM223.501 268.12C222.253 268.12 221.133 267.848 220.141 267.304C219.165 266.76 218.397 266 217.837 265.024C217.277 264.032 216.997 262.92 216.997 261.688C216.997 260.456 217.277 259.352 217.837 258.376C218.397 257.4 219.165 256.64 220.141 256.096C221.133 255.552 222.253 255.28 223.501 255.28C224.589 255.28 225.557 255.496 226.405 255.928C227.269 256.344 227.949 256.96 228.445 257.776L227.173 258.64C226.757 258.016 226.229 257.552 225.589 257.248C224.949 256.928 224.253 256.768 223.501 256.768C222.589 256.768 221.765 256.976 221.029 257.392C220.309 257.792 219.741 258.368 219.325 259.12C218.925 259.872 218.725 260.728 218.725 261.688C218.725 262.664 218.925 263.528 219.325 264.28C219.741 265.016 220.309 265.592 221.029 266.008C221.765 266.408 222.589 266.608 223.501 266.608C224.253 266.608 224.949 266.456 225.589 266.152C226.229 265.848 226.757 265.384 227.173 264.76L228.445 265.624C227.949 266.44 227.269 267.064 226.405 267.496C225.541 267.912 224.573 268.12 223.501 268.12ZM236.328 262.384H233.448V268H231.744V255.376H233.448V260.92H236.352L240.792 255.376H242.64L237.672 261.496L243 268H240.984L236.328 262.384ZM252.194 255.28C253.378 255.28 254.45 255.552 255.41 256.096C256.37 256.624 257.122 257.376 257.666 258.352C258.21 259.328 258.482 260.44 258.482 261.688C258.482 262.952 258.21 264.072 257.666 265.048C257.122 266.024 256.37 266.784 255.41 267.328C254.466 267.856 253.394 268.12 252.194 268.12C251.17 268.12 250.242 267.912 249.41 267.496C248.594 267.064 247.922 266.44 247.394 265.624V272.656H245.69V255.376H247.322V257.872C247.834 257.04 248.506 256.4 249.338 255.952C250.186 255.504 251.138 255.28 252.194 255.28ZM252.074 266.608C252.954 266.608 253.754 266.408 254.474 266.008C255.194 265.592 255.754 265.008 256.154 264.256C256.57 263.504 256.778 262.648 256.778 261.688C256.778 260.728 256.57 259.88 256.154 259.144C255.754 258.392 255.194 257.808 254.474 257.392C253.754 256.976 252.954 256.768 252.074 256.768C251.178 256.768 250.37 256.976 249.65 257.392C248.946 257.808 248.386 258.392 247.97 259.144C247.57 259.88 247.37 260.728 247.37 261.688C247.37 262.648 247.57 263.504 247.97 264.256C248.386 265.008 248.946 265.592 249.65 266.008C250.37 266.408 251.178 266.608 252.074 266.608ZM267.447 259.84C269.031 259.856 270.239 260.208 271.071 260.896C271.903 261.584 272.319 262.576 272.319 263.872C272.319 265.216 271.871 266.248 270.975 266.968C270.079 267.688 268.799 268.04 267.135 268.024L262.143 268V255.376H263.847V259.792L267.447 259.84ZM274.431 255.376H276.135V268H274.431V255.376ZM267.039 266.728C268.207 266.744 269.087 266.512 269.679 266.032C270.287 265.536 270.591 264.816 270.591 263.872C270.591 262.944 270.295 262.256 269.703 261.808C269.111 261.36 268.223 261.128 267.039 261.112L263.847 261.064V266.68L267.039 266.728ZM289.867 256.888H285.091V268H283.387V256.888H278.611V255.376H289.867V256.888ZM297.754 259.84C299.338 259.856 300.538 260.208 301.354 260.896C302.186 261.584 302.602 262.576 302.602 263.872C302.602 265.216 302.154 266.248 301.258 266.968C300.378 267.688 299.098 268.04 297.418 268.024L292.33 268V255.376H294.034V259.792L297.754 259.84ZM297.322 266.728C298.49 266.744 299.37 266.512 299.962 266.032C300.57 265.536 300.874 264.816 300.874 263.872C300.874 262.944 300.578 262.256 299.986 261.808C299.394 261.36 298.506 261.128 297.322 261.112L294.034 261.064V266.68L297.322 266.728ZM305.81 265.504C306.178 265.504 306.482 265.632 306.722 265.888C306.962 266.128 307.082 266.432 307.082 266.8C307.082 266.992 307.05 267.2 306.986 267.424C306.938 267.648 306.858 267.904 306.746 268.192L305.738 271.504H304.586L305.402 268.024C305.146 267.944 304.938 267.8 304.778 267.592C304.618 267.368 304.538 267.104 304.538 266.8C304.538 266.432 304.658 266.128 304.898 265.888C305.138 265.632 305.442 265.504 305.81 265.504ZM329.345 266.512V271.048H327.737V268H316.433V271.048H314.825V266.512H315.545C316.393 266.464 316.969 265.84 317.273 264.64C317.577 263.44 317.785 261.76 317.897 259.6L318.065 255.376H327.377V266.512H329.345ZM319.457 259.696C319.377 261.488 319.225 262.968 319.001 264.136C318.777 265.288 318.377 266.08 317.801 266.512H325.673V256.888H319.601L319.457 259.696ZM337.01 255.28C338.658 255.28 339.922 255.696 340.802 256.528C341.682 257.344 342.122 258.56 342.122 260.176V268H340.49V266.032C340.106 266.688 339.538 267.2 338.786 267.568C338.05 267.936 337.17 268.12 336.146 268.12C334.738 268.12 333.618 267.784 332.786 267.112C331.954 266.44 331.538 265.552 331.538 264.448C331.538 263.376 331.922 262.512 332.69 261.856C333.474 261.2 334.714 260.872 336.41 260.872H340.418V260.104C340.418 259.016 340.114 258.192 339.506 257.632C338.898 257.056 338.01 256.768 336.842 256.768C336.042 256.768 335.274 256.904 334.538 257.176C333.802 257.432 333.17 257.792 332.642 258.256L331.874 256.984C332.514 256.44 333.282 256.024 334.178 255.736C335.074 255.432 336.018 255.28 337.01 255.28ZM336.41 266.776C337.37 266.776 338.194 266.56 338.882 266.128C339.57 265.68 340.082 265.04 340.418 264.208V262.144H336.458C334.298 262.144 333.218 262.896 333.218 264.4C333.218 265.136 333.498 265.72 334.058 266.152C334.618 266.568 335.402 266.776 336.41 266.776ZM355.538 256.888H350.762V268H349.058V256.888H344.282V255.376H355.538V256.888ZM363.426 259.84C365.01 259.856 366.21 260.208 367.026 260.896C367.858 261.584 368.274 262.576 368.274 263.872C368.274 265.216 367.826 266.248 366.93 266.968C366.05 267.688 364.77 268.04 363.09 268.024L358.002 268V255.376H359.706V259.792L363.426 259.84ZM362.994 266.728C364.162 266.744 365.042 266.512 365.634 266.032C366.242 265.536 366.546 264.816 366.546 263.872C366.546 262.944 366.25 262.256 365.658 261.808C365.066 261.36 364.178 261.128 362.994 261.112L359.706 261.064V266.68L362.994 266.728ZM385.847 261.472C387.559 261.872 388.415 262.904 388.415 264.568C388.415 265.672 388.007 266.52 387.191 267.112C386.375 267.704 385.159 268 383.543 268H377.807V255.376H383.375C384.815 255.376 385.943 255.656 386.759 256.216C387.575 256.776 387.983 257.576 387.983 258.616C387.983 259.304 387.791 259.896 387.407 260.392C387.039 260.872 386.519 261.232 385.847 261.472ZM379.463 260.992H383.255C384.231 260.992 384.975 260.808 385.487 260.44C386.015 260.072 386.279 259.536 386.279 258.832C386.279 258.128 386.015 257.6 385.487 257.248C384.975 256.896 384.231 256.72 383.255 256.72H379.463V260.992ZM383.471 266.656C384.559 266.656 385.375 266.48 385.919 266.128C386.463 265.776 386.735 265.224 386.735 264.472C386.735 263.72 386.487 263.168 385.991 262.816C385.495 262.448 384.711 262.264 383.639 262.264H379.463V266.656H383.471ZM397.712 259.84C399.296 259.856 400.504 260.208 401.336 260.896C402.168 261.584 402.584 262.576 402.584 263.872C402.584 265.216 402.136 266.248 401.24 266.968C400.344 267.688 399.064 268.04 397.4 268.024L392.408 268V255.376H394.112V259.792L397.712 259.84ZM404.696 255.376H406.4V268H404.696V255.376ZM397.304 266.728C398.472 266.744 399.352 266.512 399.944 266.032C400.552 265.536 400.856 264.816 400.856 263.872C400.856 262.944 400.56 262.256 399.968 261.808C399.376 261.36 398.488 261.128 397.304 261.112L394.112 261.064V266.68L397.304 266.728ZM415.836 262.384H412.956V268H411.252V255.376H412.956V260.92H415.86L420.3 255.376H422.148L417.18 261.496L422.508 268H420.492L415.836 262.384ZM435.199 255.376L428.887 269.512C428.375 270.696 427.783 271.536 427.111 272.032C426.439 272.528 425.631 272.776 424.687 272.776C424.079 272.776 423.511 272.68 422.983 272.488C422.455 272.296 421.999 272.008 421.615 271.624L422.407 270.352C423.047 270.992 423.815 271.312 424.711 271.312C425.287 271.312 425.775 271.152 426.175 270.832C426.591 270.512 426.975 269.968 427.327 269.2L427.879 267.976L422.239 255.376H424.015L428.767 266.104L433.519 255.376H435.199ZM449.182 255.376V268H447.478V256.888H439.558V268H437.854V255.376H449.182ZM454.026 255.376H455.73V265.408L464.154 255.376H465.666V268H463.962V257.968L455.562 268H454.026V255.376ZM479.429 256.888H474.653V268H472.949V256.888H468.173V255.376H479.429V256.888ZM487.317 259.84C488.901 259.856 490.101 260.208 490.917 260.896C491.749 261.584 492.165 262.576 492.165 263.872C492.165 265.216 491.717 266.248 490.821 266.968C489.941 267.688 488.661 268.04 486.981 268.024L481.893 268V255.376H483.597V259.792L487.317 259.84ZM486.885 266.728C488.053 266.744 488.933 266.512 489.525 266.032C490.133 265.536 490.437 264.816 490.437 263.872C490.437 262.944 490.141 262.256 489.549 261.808C488.957 261.36 488.069 261.128 486.885 261.112L483.597 261.064V266.68L486.885 266.728ZM511.225 255.376V268H509.521V262.744C508.065 263.384 506.633 263.704 505.225 263.704C503.705 263.704 502.521 263.36 501.673 262.672C500.825 261.968 500.401 260.92 500.401 259.528V255.376H502.105V259.432C502.105 260.376 502.409 261.096 503.017 261.592C503.625 262.072 504.465 262.312 505.537 262.312C506.721 262.312 508.049 262 509.521 261.376V255.376H511.225ZM520.409 255.28C522.057 255.28 523.321 255.696 524.201 256.528C525.081 257.344 525.521 258.56 525.521 260.176V268H523.889V266.032C523.505 266.688 522.937 267.2 522.185 267.568C521.449 267.936 520.569 268.12 519.545 268.12C518.137 268.12 517.017 267.784 516.185 267.112C515.353 266.44 514.937 265.552 514.937 264.448C514.937 263.376 515.321 262.512 516.089 261.856C516.873 261.2 518.113 260.872 519.809 260.872H523.817V260.104C523.817 259.016 523.513 258.192 522.905 257.632C522.297 257.056 521.409 256.768 520.241 256.768C519.441 256.768 518.673 256.904 517.937 257.176C517.201 257.432 516.569 257.792 516.041 258.256L515.273 256.984C515.913 256.44 516.681 256.024 517.577 255.736C518.473 255.432 519.417 255.28 520.409 255.28ZM519.809 266.776C520.769 266.776 521.593 266.56 522.281 266.128C522.969 265.68 523.481 265.04 523.817 264.208V262.144H519.857C517.697 262.144 516.617 262.896 516.617 264.4C516.617 265.136 516.897 265.72 517.457 266.152C518.017 266.568 518.801 266.776 519.809 266.776ZM535.337 268.12C534.089 268.12 532.969 267.848 531.977 267.304C531.001 266.76 530.233 266 529.673 265.024C529.113 264.032 528.833 262.92 528.833 261.688C528.833 260.456 529.113 259.352 529.673 258.376C530.233 257.4 531.001 256.64 531.977 256.096C532.969 255.552 534.089 255.28 535.337 255.28C536.425 255.28 537.393 255.496 538.241 255.928C539.105 256.344 539.785 256.96 540.281 257.776L539.009 258.64C538.593 258.016 538.065 257.552 537.425 257.248C536.785 256.928 536.089 256.768 535.337 256.768C534.425 256.768 533.601 256.976 532.865 257.392C532.145 257.792 531.577 258.368 531.161 259.12C530.761 259.872 530.561 260.728 530.561 261.688C530.561 262.664 530.761 263.528 531.161 264.28C531.577 265.016 532.145 265.592 532.865 266.008C533.601 266.408 534.425 266.608 535.337 266.608C536.089 266.608 536.785 266.456 537.425 266.152C538.065 265.848 538.593 265.384 539.009 264.76L540.281 265.624C539.785 266.44 539.105 267.064 538.241 267.496C537.377 267.912 536.409 268.12 535.337 268.12ZM552.226 256.888H547.45V268H545.746V256.888H540.97V255.376H552.226V256.888ZM560.114 259.84C561.698 259.856 562.898 260.208 563.714 260.896C564.546 261.584 564.962 262.576 564.962 263.872C564.962 265.216 564.514 266.248 563.618 266.968C562.738 267.688 561.458 268.04 559.778 268.024L554.69 268V255.376H556.394V259.792L560.114 259.84ZM559.682 266.728C560.85 266.744 561.73 266.512 562.322 266.032C562.93 265.536 563.234 264.816 563.234 263.872C563.234 262.944 562.938 262.256 562.346 261.808C561.754 261.36 560.866 261.128 559.682 261.112L556.394 261.064V266.68L559.682 266.728ZM583.374 256.888H578.598V268H576.894V256.888H572.118V255.376H583.374V256.888ZM590.46 268.12C589.244 268.12 588.148 267.848 587.172 267.304C586.196 266.744 585.428 265.976 584.868 265C584.308 264.024 584.028 262.92 584.028 261.688C584.028 260.456 584.308 259.352 584.868 258.376C585.428 257.4 586.196 256.64 587.172 256.096C588.148 255.552 589.244 255.28 590.46 255.28C591.676 255.28 592.772 255.552 593.748 256.096C594.724 256.64 595.484 257.4 596.028 258.376C596.588 259.352 596.868 260.456 596.868 261.688C596.868 262.92 596.588 264.024 596.028 265C595.484 265.976 594.724 266.744 593.748 267.304C592.772 267.848 591.676 268.12 590.46 268.12ZM590.46 266.608C591.356 266.608 592.156 266.408 592.86 266.008C593.58 265.592 594.14 265.008 594.54 264.256C594.94 263.504 595.14 262.648 595.14 261.688C595.14 260.728 594.94 259.872 594.54 259.12C594.14 258.368 593.58 257.792 592.86 257.392C592.156 256.976 591.356 256.768 590.46 256.768C589.564 256.768 588.756 256.976 588.036 257.392C587.332 257.792 586.772 258.368 586.356 259.12C585.956 259.872 585.756 260.728 585.756 261.688C585.756 262.648 585.956 263.504 586.356 264.256C586.772 265.008 587.332 265.592 588.036 266.008C588.756 266.408 589.564 266.608 590.46 266.608ZM608.55 261.472C610.262 261.872 611.118 262.904 611.118 264.568C611.118 265.672 610.71 266.52 609.894 267.112C609.078 267.704 607.862 268 606.246 268H600.51V255.376H606.078C607.518 255.376 608.646 255.656 609.462 256.216C610.278 256.776 610.686 257.576 610.686 258.616C610.686 259.304 610.494 259.896 610.11 260.392C609.742 260.872 609.222 261.232 608.55 261.472ZM602.166 260.992H605.958C606.934 260.992 607.678 260.808 608.19 260.44C608.718 260.072 608.982 259.536 608.982 258.832C608.982 258.128 608.718 257.6 608.19 257.248C607.678 256.896 606.934 256.72 605.958 256.72H602.166V260.992ZM606.174 266.656C607.262 266.656 608.078 266.48 608.622 266.128C609.166 265.776 609.438 265.224 609.438 264.472C609.438 263.72 609.19 263.168 608.694 262.816C608.198 262.448 607.414 262.264 606.342 262.264H602.166V266.656H606.174ZM619.456 255.28C621.104 255.28 622.368 255.696 623.248 256.528C624.128 257.344 624.568 258.56 624.568 260.176V268H622.936V266.032C622.552 266.688 621.984 267.2 621.232 267.568C620.496 267.936 619.616 268.12 618.592 268.12C617.184 268.12 616.064 267.784 615.232 267.112C614.4 266.44 613.984 265.552 613.984 264.448C613.984 263.376 614.368 262.512 615.136 261.856C615.92 261.2 617.16 260.872 618.855 260.872H622.864V260.104C622.864 259.016 622.56 258.192 621.952 257.632C621.344 257.056 620.456 256.768 619.288 256.768C618.488 256.768 617.72 256.904 616.984 257.176C616.248 257.432 615.616 257.792 615.088 258.256L614.32 256.984C614.96 256.44 615.728 256.024 616.624 255.736C617.52 255.432 618.464 255.28 619.456 255.28ZM618.855 266.776C619.816 266.776 620.64 266.56 621.328 266.128C622.016 265.68 622.528 265.04 622.864 264.208V262.144H618.904C616.744 262.144 615.664 262.896 615.664 264.4C615.664 265.136 615.944 265.72 616.504 266.152C617.064 266.568 617.848 266.776 618.855 266.776ZM635.608 255.28C636.792 255.28 637.864 255.552 638.824 256.096C639.784 256.624 640.536 257.376 641.08 258.352C641.624 259.328 641.896 260.44 641.896 261.688C641.896 262.952 641.624 264.072 641.08 265.048C640.536 266.024 639.784 266.784 638.824 267.328C637.88 267.856 636.808 268.12 635.608 268.12C634.584 268.12 633.656 267.912 632.824 267.496C632.008 267.064 631.336 266.44 630.808 265.624V272.656H629.104V255.376H630.736V257.872C631.248 257.04 631.92 256.4 632.752 255.952C633.6 255.504 634.552 255.28 635.608 255.28ZM635.488 266.608C636.368 266.608 637.168 266.408 637.888 266.008C638.608 265.592 639.168 265.008 639.568 264.256C639.984 263.504 640.192 262.648 640.192 261.688C640.192 260.728 639.984 259.88 639.568 259.144C639.168 258.392 638.608 257.808 637.888 257.392C637.168 256.976 636.368 256.768 635.488 256.768C634.592 256.768 633.784 256.976 633.064 257.392C632.36 257.808 631.8 258.392 631.384 259.144C630.984 259.88 630.784 260.728 630.784 261.688C630.784 262.648 630.984 263.504 631.384 264.256C631.8 265.008 632.36 265.592 633.064 266.008C633.784 266.408 634.592 266.608 635.488 266.608ZM649.831 255.28C651.479 255.28 652.743 255.696 653.623 256.528C654.503 257.344 654.943 258.56 654.943 260.176V268H653.311V266.032C652.927 266.688 652.359 267.2 651.607 267.568C650.871 267.936 649.991 268.12 648.967 268.12C647.559 268.12 646.439 267.784 645.607 267.112C644.775 266.44 644.359 265.552 644.359 264.448C644.359 263.376 644.743 262.512 645.511 261.856C646.295 261.2 647.535 260.872 649.23 260.872H653.239V260.104C653.239 259.016 652.935 258.192 652.327 257.632C651.719 257.056 650.831 256.768 649.663 256.768C648.863 256.768 648.095 256.904 647.359 257.176C646.623 257.432 645.991 257.792 645.463 258.256L644.695 256.984C645.335 256.44 646.103 256.024 646.999 255.736C647.895 255.432 648.839 255.28 649.831 255.28ZM649.23 266.776C650.191 266.776 651.015 266.56 651.703 266.128C652.391 265.68 652.903 265.04 653.239 264.208V262.144H649.279C647.119 262.144 646.039 262.896 646.039 264.4C646.039 265.136 646.319 265.72 646.879 266.152C647.439 266.568 648.223 266.776 649.23 266.776Z" fill="black"/>
<rect x="35.5" y="240.5" width="72" height="36.5" rx="18.25" fill="white" stroke="#0D73C8"/>
<circle cx="53.7504" cy="258.75" r="16.475" fill="url(#paint1_linear_802_50)" stroke="white"/>
<path d="M153.872 175.2V192H152.12V184.248H141.608V192H139.832V175.2H141.608V182.688H152.12V175.2H153.872ZM170.175 186.216H159.615C159.711 187.528 160.215 188.592 161.127 189.408C162.039 190.208 163.191 190.608 164.583 190.608C165.367 190.608 166.087 190.472 166.743 190.2C167.399 189.912 167.967 189.496 168.447 188.952L169.407 190.056C168.847 190.728 168.143 191.24 167.295 191.592C166.463 191.944 165.543 192.12 164.535 192.12C163.239 192.12 162.087 191.848 161.079 191.304C160.087 190.744 159.311 189.976 158.751 189C158.191 188.024 157.911 186.92 157.911 185.688C157.911 184.456 158.175 183.352 158.703 182.376C159.247 181.4 159.983 180.64 160.911 180.096C161.855 179.552 162.911 179.28 164.079 179.28C165.247 179.28 166.295 179.552 167.223 180.096C168.151 180.64 168.879 181.4 169.407 182.376C169.935 183.336 170.199 184.44 170.199 185.688L170.175 186.216ZM164.079 180.744C162.863 180.744 161.839 181.136 161.007 181.92C160.191 182.688 159.727 183.696 159.615 184.944H168.567C168.455 183.696 167.983 182.688 167.151 181.92C166.335 181.136 165.311 180.744 164.079 180.744ZM188.292 185.472C190.004 185.872 190.86 186.904 190.86 188.568C190.86 189.672 190.452 190.52 189.636 191.112C188.82 191.704 187.604 192 185.988 192H180.252V179.376H185.82C187.26 179.376 188.388 179.656 189.204 180.216C190.02 180.776 190.428 181.576 190.428 182.616C190.428 183.304 190.236 183.896 189.852 184.392C189.484 184.872 188.964 185.232 188.292 185.472ZM181.908 184.992H185.7C186.676 184.992 187.42 184.808 187.932 184.44C188.46 184.072 188.724 183.536 188.724 182.832C188.724 182.128 188.46 181.6 187.932 181.248C187.42 180.896 186.676 180.72 185.7 180.72H181.908V184.992ZM185.916 190.656C187.004 190.656 187.82 190.48 188.364 190.128C188.908 189.776 189.18 189.224 189.18 188.472C189.18 187.72 188.932 187.168 188.436 186.816C187.94 186.448 187.156 186.264 186.084 186.264H181.908V190.656H185.916ZM200.134 192.12C198.886 192.12 197.766 191.848 196.774 191.304C195.798 190.76 195.03 190 194.47 189.024C193.91 188.032 193.63 186.92 193.63 185.688C193.63 184.456 193.91 183.352 194.47 182.376C195.03 181.4 195.798 180.64 196.774 180.096C197.766 179.552 198.886 179.28 200.134 179.28C201.222 179.28 202.19 179.496 203.038 179.928C203.902 180.344 204.582 180.96 205.078 181.776L203.806 182.64C203.39 182.016 202.862 181.552 202.222 181.248C201.582 180.928 200.886 180.768 200.134 180.768C199.222 180.768 198.398 180.976 197.662 181.392C196.942 181.792 196.374 182.368 195.958 183.12C195.558 183.872 195.358 184.728 195.358 185.688C195.358 186.664 195.558 187.528 195.958 188.28C196.374 189.016 196.942 189.592 197.662 190.008C198.398 190.408 199.222 190.608 200.134 190.608C200.886 190.608 201.582 190.456 202.222 190.152C202.862 189.848 203.39 189.384 203.806 188.76L205.078 189.624C204.582 190.44 203.902 191.064 203.038 191.496C202.174 191.912 201.206 192.12 200.134 192.12ZM212.961 186.384H210.081V192H208.377V179.376H210.081V184.92H212.985L217.425 179.376H219.273L214.305 185.496L219.633 192H217.617L212.961 186.384ZM228.826 179.28C230.01 179.28 231.082 179.552 232.042 180.096C233.002 180.624 233.754 181.376 234.298 182.352C234.842 183.328 235.114 184.44 235.114 185.688C235.114 186.952 234.842 188.072 234.298 189.048C233.754 190.024 233.002 190.784 232.042 191.328C231.098 191.856 230.026 192.12 228.826 192.12C227.802 192.12 226.874 191.912 226.042 191.496C225.226 191.064 224.554 190.44 224.026 189.624V196.656H222.322V179.376H223.954V181.872C224.466 181.04 225.138 180.4 225.97 179.952C226.818 179.504 227.77 179.28 228.826 179.28ZM228.706 190.608C229.586 190.608 230.386 190.408 231.106 190.008C231.826 189.592 232.386 189.008 232.786 188.256C233.202 187.504 233.41 186.648 233.41 185.688C233.41 184.728 233.202 183.88 232.786 183.144C232.386 182.392 231.826 181.808 231.106 181.392C230.386 180.976 229.586 180.768 228.706 180.768C227.81 180.768 227.002 180.976 226.282 181.392C225.578 181.808 225.018 182.392 224.602 183.144C224.202 183.88 224.002 184.728 224.002 185.688C224.002 186.648 224.202 187.504 224.602 188.256C225.018 189.008 225.578 189.592 226.282 190.008C227.002 190.408 227.81 190.608 228.706 190.608ZM244.08 183.84C245.664 183.856 246.872 184.208 247.704 184.896C248.536 185.584 248.952 186.576 248.952 187.872C248.952 189.216 248.504 190.248 247.608 190.968C246.712 191.688 245.432 192.04 243.768 192.024L238.776 192V179.376H240.48V183.792L244.08 183.84ZM251.064 179.376H252.768V192H251.064V179.376ZM243.672 190.728C244.84 190.744 245.72 190.512 246.312 190.032C246.92 189.536 247.224 188.816 247.224 187.872C247.224 186.944 246.928 186.256 246.336 185.808C245.744 185.36 244.856 185.128 243.672 185.112L240.48 185.064V190.68L243.672 190.728ZM265.659 185.472C267.371 185.872 268.227 186.904 268.227 188.568C268.227 189.672 267.819 190.52 267.003 191.112C266.187 191.704 264.971 192 263.355 192H257.619V179.376H263.187C264.627 179.376 265.755 179.656 266.571 180.216C267.387 180.776 267.795 181.576 267.795 182.616C267.795 183.304 267.603 183.896 267.219 184.392C266.851 184.872 266.331 185.232 265.659 185.472ZM259.275 184.992H263.067C264.043 184.992 264.787 184.808 265.299 184.44C265.827 184.072 266.091 183.536 266.091 182.832C266.091 182.128 265.827 181.6 265.299 181.248C264.787 180.896 264.043 180.72 263.067 180.72H259.275V184.992ZM263.283 190.656C264.371 190.656 265.187 190.48 265.731 190.128C266.275 189.776 266.547 189.224 266.547 188.472C266.547 187.72 266.299 187.168 265.803 186.816C265.307 186.448 264.523 186.264 263.451 186.264H259.275V190.656H263.283ZM276.565 179.28C278.213 179.28 279.477 179.696 280.357 180.528C281.237 181.344 281.677 182.56 281.677 184.176V192H280.045V190.032C279.661 190.688 279.093 191.2 278.341 191.568C277.605 191.936 276.725 192.12 275.701 192.12C274.293 192.12 273.173 191.784 272.341 191.112C271.509 190.44 271.093 189.552 271.093 188.448C271.093 187.376 271.477 186.512 272.245 185.856C273.029 185.2 274.269 184.872 275.965 184.872H279.973V184.104C279.973 183.016 279.669 182.192 279.061 181.632C278.453 181.056 277.565 180.768 276.397 180.768C275.597 180.768 274.829 180.904 274.093 181.176C273.357 181.432 272.725 181.792 272.197 182.256L271.429 180.984C272.069 180.44 272.837 180.024 273.733 179.736C274.629 179.432 275.573 179.28 276.565 179.28ZM275.965 190.776C276.925 190.776 277.749 190.56 278.437 190.128C279.125 189.68 279.637 189.04 279.973 188.208V186.144H276.013C273.853 186.144 272.773 186.896 272.773 188.4C272.773 189.136 273.053 189.72 273.613 190.152C274.173 190.568 274.957 190.776 275.965 190.776ZM295.093 180.888H290.317V192H288.613V180.888H283.837V179.376H295.093V180.888ZM302.981 183.84C304.565 183.856 305.765 184.208 306.581 184.896C307.413 185.584 307.829 186.576 307.829 187.872C307.829 189.216 307.381 190.248 306.485 190.968C305.605 191.688 304.325 192.04 302.645 192.024L297.557 192V179.376H299.261V183.792L302.981 183.84ZM302.549 190.728C303.717 190.744 304.597 190.512 305.189 190.032C305.797 189.536 306.101 188.816 306.101 187.872C306.101 186.944 305.805 186.256 305.213 185.808C304.621 185.36 303.733 185.128 302.549 185.112L299.261 185.064V190.68L302.549 190.728ZM311.037 189.504C311.405 189.504 311.709 189.632 311.949 189.888C312.189 190.128 312.309 190.432 312.309 190.8C312.309 190.992 312.277 191.2 312.213 191.424C312.165 191.648 312.085 191.904 311.973 192.192L310.965 195.504H309.813L310.629 192.024C310.373 191.944 310.165 191.8 310.005 191.592C309.845 191.368 309.765 191.104 309.765 190.8C309.765 190.432 309.885 190.128 310.125 189.888C310.365 189.632 310.669 189.504 311.037 189.504ZM334.572 190.512V195.048H332.964V192H321.66V195.048H320.052V190.512H320.772C321.62 190.464 322.196 189.84 322.5 188.64C322.804 187.44 323.012 185.76 323.124 183.6L323.292 179.376H332.604V190.512H334.572ZM324.684 183.696C324.604 185.488 324.452 186.968 324.228 188.136C324.004 189.288 323.604 190.08 323.028 190.512H330.9V180.888H324.828L324.684 183.696ZM342.237 179.28C343.885 179.28 345.149 179.696 346.029 180.528C346.909 181.344 347.349 182.56 347.349 184.176V192H345.717V190.032C345.333 190.688 344.765 191.2 344.013 191.568C343.277 191.936 342.397 192.12 341.373 192.12C339.965 192.12 338.845 191.784 338.013 191.112C337.181 190.44 336.765 189.552 336.765 188.448C336.765 187.376 337.149 186.512 337.917 185.856C338.701 185.2 339.941 184.872 341.637 184.872H345.645V184.104C345.645 183.016 345.341 182.192 344.733 181.632C344.125 181.056 343.237 180.768 342.069 180.768C341.269 180.768 340.501 180.904 339.765 181.176C339.029 181.432 338.397 181.792 337.869 182.256L337.101 180.984C337.741 180.44 338.509 180.024 339.405 179.736C340.301 179.432 341.245 179.28 342.237 179.28ZM341.637 190.776C342.597 190.776 343.421 190.56 344.109 190.128C344.797 189.68 345.309 189.04 345.645 188.208V186.144H341.685C339.525 186.144 338.445 186.896 338.445 188.4C338.445 189.136 338.725 189.72 339.285 190.152C339.845 190.568 340.629 190.776 341.637 190.776ZM360.765 180.888H355.989V192H354.285V180.888H349.509V179.376H360.765V180.888ZM368.653 183.84C370.237 183.856 371.437 184.208 372.253 184.896C373.085 185.584 373.501 186.576 373.501 187.872C373.501 189.216 373.053 190.248 372.157 190.968C371.277 191.688 369.997 192.04 368.317 192.024L363.229 192V179.376H364.933V183.792L368.653 183.84ZM368.221 190.728C369.389 190.744 370.269 190.512 370.861 190.032C371.469 189.536 371.773 188.816 371.773 187.872C371.773 186.944 371.477 186.256 370.885 185.808C370.293 185.36 369.405 185.128 368.221 185.112L364.933 185.064V190.68L368.221 190.728ZM394.361 179.376V192H392.657V180.888H384.737V192H383.033V179.376H394.361ZM404.413 192.12C403.197 192.12 402.101 191.848 401.125 191.304C400.149 190.744 399.381 189.976 398.821 189C398.261 188.024 397.981 186.92 397.981 185.688C397.981 184.456 398.261 183.352 398.821 182.376C399.381 181.4 400.149 180.64 401.125 180.096C402.101 179.552 403.197 179.28 404.413 179.28C405.629 179.28 406.725 179.552 407.701 180.096C408.677 180.64 409.437 181.4 409.981 182.376C410.541 183.352 410.821 184.456 410.821 185.688C410.821 186.92 410.541 188.024 409.981 189C409.437 189.976 408.677 190.744 407.701 191.304C406.725 191.848 405.629 192.12 404.413 192.12ZM404.413 190.608C405.309 190.608 406.109 190.408 406.813 190.008C407.533 189.592 408.093 189.008 408.493 188.256C408.893 187.504 409.093 186.648 409.093 185.688C409.093 184.728 408.893 183.872 408.493 183.12C408.093 182.368 407.533 181.792 406.813 181.392C406.109 180.976 405.309 180.768 404.413 180.768C403.517 180.768 402.709 180.976 401.989 181.392C401.285 181.792 400.725 182.368 400.309 183.12C399.909 183.872 399.709 184.728 399.709 185.688C399.709 186.648 399.909 187.504 400.309 188.256C400.725 189.008 401.285 189.592 401.989 190.008C402.709 190.408 403.517 190.608 404.413 190.608ZM419.743 192.12C418.495 192.12 417.375 191.848 416.383 191.304C415.407 190.76 414.639 190 414.079 189.024C413.519 188.032 413.239 186.92 413.239 185.688C413.239 184.456 413.519 183.352 414.079 182.376C414.639 181.4 415.407 180.64 416.383 180.096C417.375 179.552 418.495 179.28 419.743 179.28C420.831 179.28 421.799 179.496 422.647 179.928C423.511 180.344 424.191 180.96 424.687 181.776L423.415 182.64C422.999 182.016 422.471 181.552 421.831 181.248C421.191 180.928 420.495 180.768 419.743 180.768C418.831 180.768 418.007 180.976 417.271 181.392C416.551 181.792 415.983 182.368 415.567 183.12C415.167 183.872 414.967 184.728 414.967 185.688C414.967 186.664 415.167 187.528 415.567 188.28C415.983 189.016 416.551 189.592 417.271 190.008C418.007 190.408 418.831 190.608 419.743 190.608C420.495 190.608 421.191 190.456 421.831 190.152C422.471 189.848 422.999 189.384 423.415 188.76L424.687 189.624C424.191 190.44 423.511 191.064 422.647 191.496C421.783 191.912 420.815 192.12 419.743 192.12ZM442.099 179.376V192H440.539V182.016L435.427 190.464H434.659L429.547 181.992V192H427.987V179.376H429.715L435.067 188.472L440.515 179.376H442.099ZM452.155 192.12C450.939 192.12 449.843 191.848 448.867 191.304C447.891 190.744 447.123 189.976 446.563 189C446.003 188.024 445.723 186.92 445.723 185.688C445.723 184.456 446.003 183.352 446.563 182.376C447.123 181.4 447.891 180.64 448.867 180.096C449.843 179.552 450.939 179.28 452.155 179.28C453.371 179.28 454.467 179.552 455.443 180.096C456.419 180.64 457.179 181.4 457.723 182.376C458.283 183.352 458.563 184.456 458.563 185.688C458.563 186.92 458.283 188.024 457.723 189C457.179 189.976 456.419 190.744 455.443 191.304C454.467 191.848 453.371 192.12 452.155 192.12ZM452.155 190.608C453.051 190.608 453.851 190.408 454.555 190.008C455.275 189.592 455.835 189.008 456.235 188.256C456.635 187.504 456.835 186.648 456.835 185.688C456.835 184.728 456.635 183.872 456.235 183.12C455.835 182.368 455.275 181.792 454.555 181.392C453.851 180.976 453.051 180.768 452.155 180.768C451.259 180.768 450.451 180.976 449.731 181.392C449.027 181.792 448.467 182.368 448.051 183.12C447.651 183.872 447.451 184.728 447.451 185.688C447.451 186.648 447.651 187.504 448.051 188.256C448.467 189.008 449.027 189.592 449.731 190.008C450.451 190.408 451.259 190.608 452.155 190.608ZM470.617 180.888H465.841V192H464.137V180.888H459.361V179.376H470.617V180.888ZM479.584 179.28C480.768 179.28 481.84 179.552 482.8 180.096C483.76 180.624 484.512 181.376 485.056 182.352C485.6 183.328 485.872 184.44 485.872 185.688C485.872 186.952 485.6 188.072 485.056 189.048C484.512 190.024 483.76 190.784 482.8 191.328C481.856 191.856 480.784 192.12 479.584 192.12C478.56 192.12 477.632 191.912 476.8 191.496C475.984 191.064 475.312 190.44 474.784 189.624V196.656H473.08V179.376H474.712V181.872C475.224 181.04 475.896 180.4 476.728 179.952C477.576 179.504 478.528 179.28 479.584 179.28ZM479.464 190.608C480.344 190.608 481.144 190.408 481.864 190.008C482.584 189.592 483.144 189.008 483.544 188.256C483.96 187.504 484.168 186.648 484.168 185.688C484.168 184.728 483.96 183.88 483.544 183.144C483.144 182.392 482.584 181.808 481.864 181.392C481.144 180.976 480.344 180.768 479.464 180.768C478.568 180.768 477.76 180.976 477.04 181.392C476.336 181.808 475.776 182.392 475.36 183.144C474.96 183.88 474.76 184.728 474.76 185.688C474.76 186.648 474.96 187.504 475.36 188.256C475.776 189.008 476.336 189.592 477.04 190.008C477.76 190.408 478.568 190.608 479.464 190.608ZM500.573 186.216H490.013C490.109 187.528 490.613 188.592 491.525 189.408C492.437 190.208 493.589 190.608 494.981 190.608C495.765 190.608 496.485 190.472 497.141 190.2C497.797 189.912 498.365 189.496 498.845 188.952L499.805 190.056C499.245 190.728 498.541 191.24 497.693 191.592C496.861 191.944 495.941 192.12 494.933 192.12C493.637 192.12 492.485 191.848 491.477 191.304C490.485 190.744 489.709 189.976 489.149 189C488.589 188.024 488.309 186.92 488.309 185.688C488.309 184.456 488.573 183.352 489.101 182.376C489.645 181.4 490.381 180.64 491.309 180.096C492.253 179.552 493.309 179.28 494.477 179.28C495.645 179.28 496.693 179.552 497.621 180.096C498.549 180.64 499.277 181.4 499.805 182.376C500.333 183.336 500.597 184.44 500.597 185.688L500.573 186.216ZM494.477 180.744C493.261 180.744 492.237 181.136 491.405 181.92C490.589 182.688 490.125 183.696 490.013 184.944H498.965C498.853 183.696 498.381 182.688 497.549 181.92C496.733 181.136 495.709 180.744 494.477 180.744ZM512.687 180.888H507.911V192H506.207V180.888H501.431V179.376H512.687V180.888ZM520.575 183.84C522.159 183.856 523.359 184.208 524.175 184.896C525.007 185.584 525.423 186.576 525.423 187.872C525.423 189.216 524.975 190.248 524.079 190.968C523.199 191.688 521.919 192.04 520.239 192.024L515.151 192V179.376H516.855V183.792L520.575 183.84ZM520.143 190.728C521.311 190.744 522.191 190.512 522.783 190.032C523.391 189.536 523.695 188.816 523.695 187.872C523.695 186.944 523.399 186.256 522.807 185.808C522.215 185.36 521.327 185.128 520.143 185.112L516.855 185.064V190.68L520.143 190.728ZM528.631 189.504C528.999 189.504 529.303 189.632 529.543 189.888C529.783 190.128 529.903 190.432 529.903 190.8C529.903 190.992 529.871 191.2 529.807 191.424C529.759 191.648 529.679 191.904 529.567 192.192L528.559 195.504H527.407L528.223 192.024C527.967 191.944 527.759 191.8 527.599 191.592C527.439 191.368 527.359 191.104 527.359 190.8C527.359 190.432 527.479 190.128 527.719 189.888C527.959 189.632 528.263 189.504 528.631 189.504ZM547.894 185.472C549.606 185.872 550.462 186.904 550.462 188.568C550.462 189.672 550.054 190.52 549.238 191.112C548.422 191.704 547.206 192 545.59 192H539.854V179.376H545.422C546.862 179.376 547.99 179.656 548.806 180.216C549.622 180.776 550.03 181.576 550.03 182.616C550.03 183.304 549.838 183.896 549.454 184.392C549.086 184.872 548.566 185.232 547.894 185.472ZM541.51 184.992H545.302C546.278 184.992 547.022 184.808 547.534 184.44C548.062 184.072 548.326 183.536 548.326 182.832C548.326 182.128 548.062 181.6 547.534 181.248C547.022 180.896 546.278 180.72 545.302 180.72H541.51V184.992ZM545.518 190.656C546.606 190.656 547.422 190.48 547.966 190.128C548.51 189.776 548.782 189.224 548.782 188.472C548.782 187.72 548.534 187.168 548.038 186.816C547.542 186.448 546.758 186.264 545.686 186.264H541.51V190.656H545.518ZM559.759 183.84C561.343 183.856 562.551 184.208 563.383 184.896C564.215 185.584 564.631 186.576 564.631 187.872C564.631 189.216 564.183 190.248 563.287 190.968C562.391 191.688 561.111 192.04 559.447 192.024L554.455 192V179.376H556.159V183.792L559.759 183.84ZM566.743 179.376H568.447V192H566.743V179.376ZM559.351 190.728C560.519 190.744 561.399 190.512 561.991 190.032C562.599 189.536 562.903 188.816 562.903 187.872C562.903 186.944 562.607 186.256 562.015 185.808C561.423 185.36 560.535 185.128 559.351 185.112L556.159 185.064V190.68L559.351 190.728ZM577.883 186.384H575.003V192H573.299V179.376H575.003V184.92H577.907L582.347 179.376H584.195L579.227 185.496L584.555 192H582.539L577.883 186.384ZM597.246 179.376L590.934 193.512C590.422 194.696 589.83 195.536 589.158 196.032C588.486 196.528 587.678 196.776 586.734 196.776C586.126 196.776 585.558 196.68 585.03 196.488C584.502 196.296 584.046 196.008 583.662 195.624L584.454 194.352C585.094 194.992 585.862 195.312 586.758 195.312C587.334 195.312 587.822 195.152 588.222 194.832C588.638 194.512 589.022 193.968 589.374 193.2L589.926 191.976L584.286 179.376H586.062L590.814 190.104L595.566 179.376H597.246ZM611.229 179.376V192H609.525V180.888H601.605V192H599.901V179.376H611.229ZM616.072 179.376H617.776V189.408L626.2 179.376H627.712V192H626.008V181.968L617.608 192H616.072V179.376ZM641.476 180.888H636.7V192H634.996V180.888H630.22V179.376H641.476V180.888ZM649.364 183.84C650.948 183.856 652.148 184.208 652.964 184.896C653.796 185.584 654.212 186.576 654.212 187.872C654.212 189.216 653.764 190.248 652.868 190.968C651.988 191.688 650.708 192.04 649.028 192.024L643.94 192V179.376H645.644V183.792L649.364 183.84ZM648.932 190.728C650.1 190.744 650.98 190.512 651.572 190.032C652.18 189.536 652.484 188.816 652.484 187.872C652.484 186.944 652.188 186.256 651.596 185.808C651.004 185.36 650.116 185.128 648.932 185.112L645.644 185.064V190.68L648.932 190.728ZM671.784 185.472C673.496 185.872 674.352 186.904 674.352 188.568C674.352 189.672 673.944 190.52 673.128 191.112C672.312 191.704 671.096 192 669.48 192H663.744V179.376H669.312C670.752 179.376 671.88 179.656 672.696 180.216C673.512 180.776 673.92 181.576 673.92 182.616C673.92 183.304 673.728 183.896 673.344 184.392C672.976 184.872 672.456 185.232 671.784 185.472ZM665.4 184.992H669.192C670.168 184.992 670.912 184.808 671.424 184.44C671.952 184.072 672.216 183.536 672.216 182.832C672.216 182.128 671.952 181.6 671.424 181.248C670.912 180.896 670.168 180.72 669.192 180.72H665.4V184.992ZM669.408 190.656C670.496 190.656 671.312 190.48 671.856 190.128C672.4 189.776 672.672 189.224 672.672 188.472C672.672 187.72 672.424 187.168 671.928 186.816C671.432 186.448 670.648 186.264 669.576 186.264H665.4V190.656H669.408ZM683.626 192.12C682.378 192.12 681.258 191.848 680.266 191.304C679.29 190.76 678.522 190 677.962 189.024C677.402 188.032 677.122 186.92 677.122 185.688C677.122 184.456 677.402 183.352 677.962 182.376C678.522 181.4 679.29 180.64 680.266 180.096C681.258 179.552 682.378 179.28 683.626 179.28C684.714 179.28 685.682 179.496 686.53 179.928C687.394 180.344 688.074 180.96 688.57 181.776L687.298 182.64C686.882 182.016 686.354 181.552 685.714 181.248C685.074 180.928 684.378 180.768 683.626 180.768C682.714 180.768 681.89 180.976 681.154 181.392C680.434 181.792 679.866 182.368 679.45 183.12C679.05 183.872 678.85 184.728 678.85 185.688C678.85 186.664 679.05 187.528 679.45 188.28C679.866 189.016 680.434 189.592 681.154 190.008C681.89 190.408 682.714 190.608 683.626 190.608C684.378 190.608 685.074 190.456 685.714 190.152C686.354 189.848 686.882 189.384 687.298 188.76L688.57 189.624C688.074 190.44 687.394 191.064 686.53 191.496C685.666 191.912 684.698 192.12 683.626 192.12ZM702.717 179.28C703.901 179.28 704.965 179.552 705.909 180.096C706.869 180.64 707.621 181.4 708.165 182.376C708.709 183.352 708.981 184.456 708.981 185.688C708.981 186.92 708.709 188.024 708.165 189C707.621 189.976 706.869 190.744 705.909 191.304C704.965 191.848 703.901 192.12 702.717 192.12C701.597 192.12 700.581 191.88 699.669 191.4C698.757 190.904 698.013 190.224 697.437 189.36C696.877 188.496 696.549 187.504 696.453 186.384H693.573V192H691.869V179.376H693.573V184.824H696.477C696.605 183.736 696.949 182.776 697.509 181.944C698.085 181.096 698.821 180.44 699.717 179.976C700.613 179.512 701.613 179.28 702.717 179.28ZM702.717 190.632C703.581 190.632 704.357 190.424 705.045 190.008C705.749 189.592 706.301 189.008 706.701 188.256C707.101 187.504 707.301 186.648 707.301 185.688C707.301 184.728 707.101 183.872 706.701 183.12C706.301 182.368 705.749 181.792 705.045 181.392C704.357 180.976 703.581 180.768 702.717 180.768C701.853 180.768 701.069 180.976 700.365 181.392C699.677 181.792 699.133 182.368 698.733 183.12C698.333 183.872 698.133 184.728 698.133 185.688C698.133 186.648 698.333 187.504 698.733 188.256C699.133 189.008 699.677 189.592 700.365 190.008C701.069 190.424 701.853 190.632 702.717 190.632ZM730.244 179.376V192H728.54V180.888H720.62V192H718.916V179.376H730.244ZM740.296 192.12C739.08 192.12 737.984 191.848 737.008 191.304C736.032 190.744 735.264 189.976 734.704 189C734.144 188.024 733.864 186.92 733.864 185.688C733.864 184.456 734.144 183.352 734.704 182.376C735.264 181.4 736.032 180.64 737.008 180.096C737.984 179.552 739.08 179.28 740.296 179.28C741.512 179.28 742.608 179.552 743.584 180.096C744.56 180.64 745.32 181.4 745.864 182.376C746.424 183.352 746.704 184.456 746.704 185.688C746.704 186.92 746.424 188.024 745.864 189C745.32 189.976 744.56 190.744 743.584 191.304C742.608 191.848 741.512 192.12 740.296 192.12ZM740.296 190.608C741.192 190.608 741.992 190.408 742.696 190.008C743.416 189.592 743.976 189.008 744.376 188.256C744.776 187.504 744.976 186.648 744.976 185.688C744.976 184.728 744.776 183.872 744.376 183.12C743.976 182.368 743.416 181.792 742.696 181.392C741.992 180.976 741.192 180.768 740.296 180.768C739.4 180.768 738.592 180.976 737.872 181.392C737.168 181.792 736.608 182.368 736.192 183.12C735.792 183.872 735.592 184.728 735.592 185.688C735.592 186.648 735.792 187.504 736.192 188.256C736.608 189.008 737.168 189.592 737.872 190.008C738.592 190.408 739.4 190.608 740.296 190.608ZM755.626 192.12C754.378 192.12 753.258 191.848 752.266 191.304C751.29 190.76 750.522 190 749.962 189.024C749.402 188.032 749.122 186.92 749.122 185.688C749.122 184.456 749.402 183.352 749.962 182.376C750.522 181.4 751.29 180.64 752.266 180.096C753.258 179.552 754.378 179.28 755.626 179.28C756.714 179.28 757.682 179.496 758.53 179.928C759.394 180.344 760.074 180.96 760.57 181.776L759.298 182.64C758.882 182.016 758.354 181.552 757.714 181.248C757.074 180.928 756.378 180.768 755.626 180.768C754.714 180.768 753.89 180.976 753.154 181.392C752.434 181.792 751.866 182.368 751.45 183.12C751.05 183.872 750.85 184.728 750.85 185.688C750.85 186.664 751.05 187.528 751.45 188.28C751.866 189.016 752.434 189.592 753.154 190.008C753.89 190.408 754.714 190.608 755.626 190.608C756.378 190.608 757.074 190.456 757.714 190.152C758.354 189.848 758.882 189.384 759.298 188.76L760.57 189.624C760.074 190.44 759.394 191.064 758.53 191.496C757.666 191.912 756.698 192.12 755.626 192.12ZM769.173 183.84C770.757 183.856 771.965 184.208 772.797 184.896C773.629 185.584 774.045 186.576 774.045 187.872C774.045 189.216 773.597 190.248 772.701 190.968C771.805 191.688 770.525 192.04 768.861 192.024L763.869 192V179.376H765.573V183.792L769.173 183.84ZM776.157 179.376H777.861V192H776.157V179.376ZM768.765 190.728C769.933 190.744 770.813 190.512 771.405 190.032C772.013 189.536 772.317 188.816 772.317 187.872C772.317 186.944 772.021 186.256 771.429 185.808C770.837 185.36 769.949 185.128 768.765 185.112L765.573 185.064V190.68L768.765 190.728ZM793.033 179.376V192H791.329V180.888H785.281L785.113 184.008C784.985 186.632 784.681 188.648 784.201 190.056C783.721 191.464 782.865 192.168 781.633 192.168C781.297 192.168 780.889 192.104 780.409 191.976L780.529 190.512C780.817 190.576 781.017 190.608 781.129 190.608C781.785 190.608 782.281 190.304 782.617 189.696C782.953 189.088 783.177 188.336 783.289 187.44C783.401 186.544 783.497 185.36 783.577 183.888L783.793 179.376H793.033ZM802.461 186.384H799.581V192H797.877V179.376H799.581V184.92H802.485L806.925 179.376H808.773L803.805 185.496L809.133 192H807.117L802.461 186.384ZM821.824 179.376L815.512 193.512C815 194.696 814.408 195.536 813.736 196.032C813.064 196.528 812.256 196.776 811.312 196.776C810.704 196.776 810.136 196.68 809.608 196.488C809.08 196.296 808.624 196.008 808.24 195.624L809.032 194.352C809.672 194.992 810.44 195.312 811.336 195.312C811.912 195.312 812.4 195.152 812.8 194.832C813.216 194.512 813.6 193.968 813.952 193.2L814.504 191.976L808.864 179.376H810.64L815.392 190.104L820.144 179.376H821.824Z" fill="black"/>
<rect x="35.5" y="165" width="72" height="36.5" rx="18.25" fill="#09BAE4"/>
<rect x="35.5" y="165" width="72" height="36.5" rx="18.25" fill="url(#paint2_linear_802_50)"/>
<rect x="35.5" y="165" width="72" height="36.5" rx="18.25" stroke="#0D73C8"/>
<circle cx="89.2504" cy="183.25" r="16.475" fill="url(#paint3_linear_802_50)" stroke="white"/>
<defs>
<filter id="filter0_d_802_50" x="0" y="0" width="942" height="375" filterUnits="userSpaceOnUse" color-interpolation-filters="sRGB">
<feFlood flood-opacity="0" result="BackgroundImageFix"/>
<feColorMatrix in="SourceAlpha" type="matrix" values="0 0 0 0 0 0 0 0 0 0 0 0 0 0 0 0 0 0 127 0" result="hardAlpha"/>
<feOffset dy="4"/>
<feGaussianBlur stdDeviation="2"/>
<feComposite in2="hardAlpha" operator="out"/>
<feColorMatrix type="matrix" values="0 0 0 0 0 0 0 0 0 0 0 0 0 0 0 0 0 0 0.25 0"/>
<feBlend mode="normal" in2="BackgroundImageFix" result="effect1_dropShadow_802_50"/>
<feBlend mode="normal" in="SourceGraphic" in2="effect1_dropShadow_802_50" result="shape"/>
</filter>
<linearGradient id="paint0_linear_802_50" x1="37.7754" y1="107.75" x2="69.7254" y2="107.75" gradientUnits="userSpaceOnUse">
<stop stop-color="#0968AC"/>
<stop offset="1" stop-color="#62B6F2"/>
</linearGradient>
<linearGradient id="paint1_linear_802_50" x1="37.7754" y1="258.75" x2="69.7254" y2="258.75" gradientUnits="userSpaceOnUse">
<stop stop-color="#0968AC"/>
<stop offset="1" stop-color="#62B6F2"/>
</linearGradient>
<linearGradient id="paint2_linear_802_50" x1="36" y1="183.25" x2="107" y2="183.25" gradientUnits="userSpaceOnUse">
<stop stop-color="#0968AC"/>
<stop offset="1" stop-color="#62B6F2"/>
</linearGradient>
<linearGradient id="paint3_linear_802_50" x1="73.2754" y1="183.25" x2="105.225" y2="183.25" gradientUnits="userSpaceOnUse">
<stop stop-color="#F59C04"/>
<stop offset="1" stop-color="#FFCE7B"/>
</linearGradient>
</defs>
</svg>
