<svg width="418" height="354" viewBox="0 0 418 354" fill="none" xmlns="http://www.w3.org/2000/svg">
<path d="M242.312 145.078H223.376V309.653H242.312V145.078Z" fill="#263238" stroke="#263238" stroke-linecap="round" stroke-linejoin="round"/>
<path d="M92.165 204.675V216.25H167.636V204.675H92.165Z" fill="#263238" stroke="#263238" stroke-linecap="round" stroke-linejoin="round"/>
<path d="M58.708 170.577L50.5234 178.762L83.2705 211.509L91.4551 203.324L58.708 170.577Z" fill="#263238" stroke="#263238" stroke-linecap="round" stroke-linejoin="round"/>
<path d="M104.744 211.229C104.744 212.622 104.47 214.001 103.936 215.287C103.403 216.573 102.621 217.742 101.636 218.726C100.651 219.71 99.4815 220.49 98.1946 221.022C96.9076 221.554 95.5284 221.827 94.136 221.825C93.789 221.825 93.442 221.825 93.1074 221.825C91.1772 221.634 89.3363 220.918 87.7848 219.754C86.2333 218.59 85.0307 217.023 84.3076 215.223C83.5846 213.423 83.3688 211.459 83.6838 209.546C83.9988 207.632 84.8324 205.841 86.0941 204.368C87.3558 202.895 88.9973 201.796 90.84 201.19C92.6827 200.585 94.6561 200.496 96.5456 200.934C98.4351 201.372 100.168 202.319 101.557 203.673C102.946 205.028 103.937 206.736 104.422 208.614C104.633 209.47 104.742 210.348 104.744 211.229Z" fill="white" stroke="#263238" stroke-linecap="round" stroke-linejoin="round"/>
<path d="M67.7188 171.664C69.7014 173.656 70.8136 176.352 70.812 179.163C70.8103 181.973 69.6949 184.668 67.7101 186.657C67.4647 186.903 67.2193 187.148 66.974 187.393C65.4776 188.628 63.6712 189.429 61.7515 189.708C59.8318 189.988 57.8721 189.736 56.0857 188.979C54.2994 188.222 52.7547 186.991 51.6197 185.417C50.4847 183.844 49.8029 181.989 49.6484 180.056C49.4939 178.122 49.8727 176.183 50.7436 174.449C51.6144 172.716 52.9439 171.254 54.5876 170.223C56.2312 169.193 58.1259 168.633 60.0657 168.604C62.0055 168.575 63.916 169.079 65.5894 170.06C66.3659 170.5 67.0817 171.039 67.7188 171.664Z" fill="white" stroke="#263238" stroke-linecap="round" stroke-linejoin="round"/>
<path d="M60.8167 137.905L55.7812 154.689L62.2385 156.627L67.274 139.843L60.8167 137.905Z" fill="#263238" stroke="#263238" stroke-linecap="round" stroke-linejoin="round"/>
<path d="M69.5428 138.488L67.0628 146.751L57.2571 143.816L59.7371 135.535C59.9278 134.881 60.2473 134.272 60.6769 133.744C61.1064 133.216 61.6373 132.779 62.2382 132.459C62.8392 132.139 63.4981 131.942 64.1761 131.88C64.8542 131.819 65.5378 131.893 66.1866 132.1C67.4744 132.508 68.5492 133.408 69.1775 134.604C69.8059 135.8 69.9371 137.196 69.5428 138.488Z" fill="white" stroke="#263238" stroke-linecap="round" stroke-linejoin="round"/>
<path d="M18.9756 135.019L40.8128 157.627L35.9757 162.307L14.1297 139.707L18.9756 135.019Z" fill="#263238" stroke="#263238" stroke-linecap="round" stroke-linejoin="round"/>
<path d="M18.9236 132.391L24.9612 138.622L17.5478 145.685L11.5101 139.454C11.0428 138.971 10.6753 138.4 10.4286 137.775C10.1818 137.15 10.0607 136.482 10.0721 135.81C10.0835 135.137 10.2272 134.474 10.495 133.857C10.7628 133.241 11.1494 132.683 11.6328 132.216C12.1197 131.742 12.6962 131.371 13.3284 131.123C13.9607 130.875 14.6361 130.756 15.315 130.772C15.9939 130.788 16.6628 130.94 17.2824 131.218C17.9021 131.496 18.46 131.895 18.9236 132.391Z" fill="white" stroke="#263238" stroke-linecap="round" stroke-linejoin="round"/>
<path d="M44.848 125.273L54.0053 155.339L47.5646 157.311L38.3985 127.254L44.848 125.273Z" fill="#263238" stroke="#263238" stroke-linecap="round" stroke-linejoin="round"/>
<path d="M45.9951 122.915L48.5188 131.169L38.7393 134.166L36.1981 125.911C35.8052 124.615 35.9413 123.215 36.5767 122.018C37.212 120.821 38.2951 119.924 39.5894 119.523C40.8885 119.125 42.2926 119.258 43.4935 119.894C44.6944 120.53 45.5941 121.616 45.9951 122.915Z" fill="white" stroke="#263238" stroke-linecap="round" stroke-linejoin="round"/>
<path d="M10.0558 159.889L40.0776 169.195L38.0884 175.636L8.06661 166.329L10.0558 159.889Z" fill="#263238" stroke="#263238" stroke-linecap="round" stroke-linejoin="round"/>
<path d="M34.0329 164.424C32.9697 163.668 31.7062 163.244 30.4023 163.207C29.0984 163.169 27.8126 163.519 26.7077 164.213C25.6028 164.906 24.7285 165.912 24.1953 167.102C23.6622 168.293 23.4942 169.615 23.7126 170.901C23.9311 172.187 24.5261 173.379 25.4224 174.327C26.3188 175.275 27.4761 175.935 28.748 176.225C30.0199 176.515 31.3491 176.421 32.5675 175.955C33.786 175.489 34.8387 174.672 35.5927 173.607C36.602 172.182 37.0047 170.415 36.7122 168.693C36.4198 166.971 35.4562 165.436 34.0329 164.424Z" fill="white" stroke="#263238" stroke-linecap="round" stroke-linejoin="round"/>
<path d="M39.2024 160.484C41.7771 157.909 41.7771 153.735 39.2024 151.16C36.6278 148.586 32.4534 148.586 29.8787 151.16C27.304 153.735 27.304 157.909 29.8787 160.484C32.4534 163.059 36.6277 163.059 39.2024 160.484Z" fill="white" stroke="#263238" stroke-linecap="round" stroke-linejoin="round"/>
<path d="M52.4432 143.299C51.6719 142.247 50.606 141.447 49.3802 141.002C48.1545 140.556 46.824 140.483 45.5571 140.794C44.2903 141.104 43.144 141.784 42.2633 142.746C41.3826 143.708 40.8071 144.91 40.6096 146.199C40.4121 147.488 40.6015 148.807 41.1538 149.989C41.7061 151.17 42.5964 152.162 43.7123 152.837C44.8281 153.513 46.1192 153.842 47.4222 153.784C48.7252 153.725 49.9816 153.281 51.0324 152.509C51.7306 151.997 52.3211 151.353 52.77 150.613C53.2189 149.873 53.5174 149.052 53.6484 148.196C53.7795 147.341 53.7405 146.468 53.5337 145.627C53.3269 144.787 52.9563 143.996 52.4432 143.299Z" fill="white" stroke="#263238" stroke-linecap="round" stroke-linejoin="round"/>
<path d="M8.74271 157.608L16.9974 160.149L13.9917 169.937L5.72828 167.387C5.08534 167.191 4.48757 166.869 3.96929 166.441C3.45101 166.012 3.02244 165.486 2.70815 164.892C2.39387 164.297 2.20005 163.647 2.13787 162.977C2.07568 162.308 2.14634 161.633 2.34577 160.991C2.74867 159.696 3.6477 158.613 4.84637 157.979C6.04505 157.346 7.44588 157.212 8.74271 157.608Z" fill="white" stroke="#263238" stroke-linecap="round" stroke-linejoin="round"/>
<path d="M61.9073 154.552C65.3934 158.038 67.3519 162.766 67.3519 167.696C67.3519 172.626 65.3934 177.354 61.9073 180.841C61.4691 181.279 61.031 181.717 60.5666 182.076C57.9385 184.23 54.7702 185.623 51.4062 186.102C48.0421 186.582 44.611 186.13 41.4857 184.796C38.3605 183.462 35.6606 181.297 33.6796 178.536C31.6986 175.775 30.5123 172.524 30.2496 169.136C29.9869 165.749 30.6578 162.353 32.1895 159.32C33.7212 156.287 36.055 153.731 38.9373 151.932C41.8196 150.132 45.1401 149.157 48.5378 149.112C51.9356 149.067 55.2806 149.954 58.2093 151.678C59.5554 152.48 60.7974 153.445 61.9073 154.552Z" fill="white" stroke="#263238" stroke-linecap="round" stroke-linejoin="round"/>
<path d="M61.9077 154.552C65.3938 158.038 67.3523 162.766 67.3523 167.696C67.3523 172.626 65.3938 177.355 61.9077 180.841C61.4695 181.279 61.0314 181.717 60.567 182.076C58.1185 180.635 56.0331 178.652 54.4707 176.279C52.9084 173.906 51.9108 171.206 51.5545 168.388C51.1983 165.569 51.4929 162.706 52.4157 160.019C53.3385 157.332 54.8649 154.892 56.8778 152.887C57.3071 152.458 57.7541 152.011 58.2273 151.66C59.5681 152.469 60.8043 153.441 61.9077 154.552Z" fill="white" stroke="#263238" stroke-linecap="round" stroke-linejoin="round"/>
<path d="M207.117 211.565C210.273 198.077 201.897 184.584 188.408 181.427C174.92 178.271 161.427 186.647 158.271 200.136C155.114 213.624 163.49 227.117 176.979 230.273C190.467 233.43 203.96 225.054 207.117 211.565Z" fill="white" stroke="#263238" stroke-linecap="round" stroke-linejoin="round"/>
<path d="M187.354 217.068C193.551 214.483 196.48 207.364 193.895 201.167C191.31 194.971 184.192 192.042 177.995 194.627C171.798 197.211 168.87 204.33 171.454 210.527C174.039 216.724 181.158 219.652 187.354 217.068Z" fill="#263238" stroke="#263238" stroke-linecap="round" stroke-linejoin="round"/>
<path d="M178.378 311.97H289.665L291.263 304.435C291.904 301.425 291.328 298.284 289.661 295.697C287.994 293.11 285.371 291.289 282.365 290.629C266.589 287.085 232.435 285.809 232.435 285.809C224.207 286.069 201.305 287.048 185.529 290.642C182.544 291.323 179.947 293.152 178.301 295.734C176.654 298.315 176.09 301.441 176.73 304.435L178.378 311.97Z" fill="white" stroke="#263238" stroke-linecap="round" stroke-linejoin="round"/>
<path d="M260.801 287.643C246.549 286.329 232.471 285.809 232.471 285.809C227.291 285.97 216.287 286.428 204.91 287.643C208.231 298.982 219.484 307.335 232.856 307.335C246.227 307.335 257.48 298.945 260.801 287.643Z" fill="#F59C04" stroke="#263238" stroke-linecap="round" stroke-linejoin="round"/>
<path d="M349.095 258.833L356.018 249.557L295.53 204.421L288.608 213.698L349.095 258.833Z" fill="#263238" stroke="#263238" stroke-linecap="round" stroke-linejoin="round"/>
<path d="M371.865 296.438L381.889 290.65L358.733 250.544L348.709 256.331L371.865 296.438Z" fill="#263238" stroke="#263238" stroke-linecap="round" stroke-linejoin="round"/>
<path d="M342.928 246.053C343.762 244.935 344.809 243.992 346.008 243.278C347.207 242.564 348.536 242.093 349.917 241.893C351.298 241.693 352.705 241.767 354.057 242.111C355.41 242.454 356.681 243.061 357.799 243.897L358.605 244.554C360.038 245.861 361.085 247.536 361.633 249.397C362.18 251.258 362.207 253.234 361.71 255.109C361.213 256.984 360.211 258.687 358.814 260.033C357.416 261.378 355.677 262.315 353.784 262.741C351.892 263.166 349.919 263.065 348.08 262.448C346.241 261.83 344.606 260.72 343.354 259.239C342.102 257.757 341.28 255.961 340.977 254.044C340.675 252.128 340.904 250.166 341.639 248.371C341.972 247.548 342.405 246.77 342.928 246.053Z" fill="white" stroke="#263238" stroke-linecap="round" stroke-linejoin="round"/>
<path d="M366.423 294.778C365.188 292.25 365.008 289.336 365.921 286.675C366.835 284.014 368.768 281.826 371.295 280.59C371.598 280.436 371.917 280.305 372.236 280.175C374.053 279.496 376.022 279.329 377.928 279.692C379.834 280.055 381.604 280.933 383.045 282.232C384.486 283.531 385.544 285.199 386.103 287.057C386.662 288.915 386.701 290.891 386.215 292.769C385.729 294.647 384.738 296.356 383.348 297.71C381.959 299.064 380.225 300.011 378.335 300.449C376.445 300.886 374.471 300.796 372.628 300.19C370.785 299.583 369.144 298.483 367.883 297.008C367.306 296.328 366.815 295.579 366.423 294.778Z" fill="white" stroke="#263238" stroke-linecap="round" stroke-linejoin="round"/>
<path d="M361.995 328.998L372.198 314.752L366.717 310.827L356.514 325.073L361.995 328.998Z" fill="#263238" stroke="#263238" stroke-linecap="round" stroke-linejoin="round"/>
<path d="M353.991 325.603L359.021 318.576L367.341 324.539L362.311 331.566C361.522 332.67 360.326 333.415 358.987 333.638C357.648 333.86 356.276 333.542 355.172 332.753C354.068 331.96 353.324 330.763 353.103 329.422C352.882 328.082 353.201 326.708 353.991 325.603Z" fill="white" stroke="#263238" stroke-linecap="round" stroke-linejoin="round"/>
<path d="M366.361 312.854C365.285 310.659 364.651 308.274 364.497 305.834C364.344 303.395 364.672 300.949 365.465 298.636C366.258 296.324 367.499 294.191 369.117 292.359C370.735 290.526 372.699 289.032 374.896 287.959C375.45 287.693 376.003 287.454 376.571 287.238C379.757 286.052 383.206 285.761 386.545 286.398C389.883 287.036 392.983 288.576 395.508 290.852C398.032 293.128 399.884 296.052 400.863 299.307C401.841 302.562 401.908 306.023 401.057 309.314C400.205 312.605 398.468 315.599 396.034 317.971C393.6 320.343 390.562 322.002 387.25 322.769C383.939 323.535 380.481 323.378 377.252 322.316C374.023 321.254 371.147 319.327 368.937 316.745C367.916 315.563 367.051 314.255 366.361 312.854Z" fill="white" stroke="#263238" stroke-linecap="round" stroke-linejoin="round"/>
<path d="M373.071 339.846L369.668 311.264L375.803 310.528L379.195 339.103L373.071 339.846Z" fill="#263238" stroke="#263238" stroke-linecap="round" stroke-linejoin="round"/>
<path d="M371.648 341.789L370.661 333.906L379.914 332.752L380.858 340.609C381.005 341.842 380.657 343.084 379.889 344.06C379.122 345.036 377.998 345.668 376.764 345.816C375.555 345.942 374.345 345.592 373.389 344.84C372.434 344.088 371.81 342.994 371.648 341.789Z" fill="white" stroke="#263238" stroke-linecap="round" stroke-linejoin="round"/>
<path d="M377.63 308.108C376.674 307.218 375.475 306.631 374.186 306.424C372.897 306.216 371.575 306.396 370.388 306.94C369.201 307.485 368.202 308.37 367.519 309.483C366.835 310.595 366.498 311.886 366.549 313.191C366.6 314.496 367.038 315.757 367.807 316.812C368.575 317.868 369.64 318.672 370.866 319.122C372.092 319.572 373.424 319.647 374.693 319.339C375.962 319.031 377.111 318.353 377.994 317.39C379.171 316.108 379.793 314.413 379.725 312.674C379.656 310.935 378.903 309.294 377.63 308.108Z" fill="white" stroke="#263238" stroke-linecap="round" stroke-linejoin="round"/>
<path d="M409.067 312.153L390.3 297.368L393.457 293.338L412.23 308.112L409.067 312.153Z" fill="#263238" stroke="#263238" stroke-linecap="round" stroke-linejoin="round"/>
<path d="M409.376 314.12L404.206 310.062L409.009 303.949L414.168 308C414.571 308.315 414.907 308.707 415.159 309.152C415.41 309.597 415.571 310.087 415.633 310.595C415.695 311.102 415.656 311.617 415.519 312.109C415.382 312.602 415.149 313.062 414.834 313.465C414.196 314.274 413.263 314.798 412.24 314.921C411.217 315.044 410.187 314.756 409.376 314.12Z" fill="white" stroke="#263238" stroke-linecap="round" stroke-linejoin="round"/>
<path d="M393.105 290.843C392.026 290.894 390.987 291.263 390.117 291.905C389.248 292.546 388.588 293.431 388.222 294.447C387.855 295.463 387.797 296.565 388.056 297.613C388.316 298.662 388.88 299.611 389.678 300.339C390.475 301.067 391.471 301.543 392.539 301.705C393.607 301.868 394.699 301.71 395.678 301.253C396.656 300.795 397.477 300.057 398.037 299.133C398.596 298.209 398.87 297.14 398.822 296.061C398.755 294.612 398.115 293.248 397.043 292.27C395.971 291.291 394.555 290.778 393.105 290.843Z" fill="white" stroke="#263238" stroke-linecap="round" stroke-linejoin="round"/>
<path d="M394.933 330.336L381.538 304.858L386.98 301.975L400.392 327.449L394.933 330.336Z" fill="#263238" stroke="#263238" stroke-linecap="round" stroke-linejoin="round"/>
<path d="M394.292 332.636L390.597 325.652L398.862 321.251L402.561 328.252C403.138 329.351 403.256 330.633 402.891 331.819C402.525 333.005 401.705 333.998 400.61 334.581C399.514 335.158 398.233 335.278 397.049 334.913C395.865 334.549 394.874 333.73 394.292 332.636Z" fill="white" stroke="#263238" stroke-linecap="round" stroke-linejoin="round"/>
<path d="M387.847 299.038C386.638 298.552 385.311 298.436 384.036 298.705C382.76 298.974 381.593 299.616 380.683 300.549C379.773 301.482 379.16 302.664 378.923 303.946C378.686 305.228 378.834 306.551 379.35 307.748C379.866 308.946 380.726 309.962 381.821 310.67C382.915 311.378 384.196 311.745 385.499 311.724C386.802 311.703 388.07 311.295 389.142 310.553C390.213 309.81 391.04 308.766 391.517 307.553C392.156 305.937 392.129 304.134 391.441 302.538C390.753 300.942 389.461 299.683 387.847 299.038Z" fill="white" stroke="#263238" stroke-linecap="round" stroke-linejoin="round"/>
<path d="M297.273 227.375C308.921 219.877 312.286 204.356 304.787 192.707C297.289 181.059 281.768 177.695 270.12 185.193C258.472 192.691 255.108 208.212 262.606 219.86C270.104 231.508 285.625 234.873 297.273 227.375Z" fill="white" stroke="#263238" stroke-linecap="round" stroke-linejoin="round"/>
<path d="M294.755 211.364C297.554 205.261 294.876 198.045 288.773 195.245C282.67 192.446 275.454 195.124 272.654 201.227C269.855 207.33 272.533 214.547 278.636 217.346C284.739 220.145 291.956 217.467 294.755 211.364Z" fill="#263238" stroke="#263238" stroke-linecap="round" stroke-linejoin="round"/>
<path d="M232.846 156.577C255.097 156.577 273.135 138.539 273.135 116.288C273.135 94.0378 255.097 76 232.846 76C210.595 76 192.558 94.0378 192.558 116.288C192.558 138.539 210.595 156.577 232.846 156.577Z" fill="#F59C04" stroke="#263238" stroke-linecap="round" stroke-linejoin="round"/>
<path d="M290.446 143.122C299.098 132.275 304.513 119.205 306.067 105.417C307.622 91.6285 305.253 77.6814 299.233 65.1795C293.213 52.6777 283.787 42.1289 272.038 34.7463C260.29 27.3638 246.696 23.4473 232.82 23.4473C218.944 23.4473 205.35 27.3638 193.602 34.7463C181.853 42.1289 172.427 52.6777 166.407 65.1795C160.387 77.6814 158.018 91.6285 159.572 105.417C161.127 119.205 166.542 132.275 175.194 143.122H290.446Z" fill="white" stroke="#263238" stroke-linecap="round" stroke-linejoin="round"/>
<path d="M277.928 69.332H185.9C180.301 69.332 175.763 73.8706 175.763 79.4692V112.087C175.763 117.685 180.301 122.224 185.9 122.224H277.928C283.526 122.224 288.065 117.685 288.065 112.087V79.4692C288.065 73.8706 283.526 69.332 277.928 69.332Z" fill="#F59C04" stroke="#263238" stroke-linecap="round" stroke-linejoin="round"/>
<path d="M187.912 93.6359C189.129 90.2282 191.347 87.2677 194.276 85.1424C197.205 83.0171 200.707 81.8262 204.324 81.7257C207.941 81.6252 211.505 82.6199 214.547 84.5793C217.589 86.5388 219.968 89.3716 221.372 92.7065" stroke="#263238" stroke-width="5" stroke-linecap="round" stroke-linejoin="round"/>
<path d="M243.416 93.6359C244.633 90.2282 246.851 87.2677 249.78 85.1424C252.709 83.0171 256.211 81.8262 259.828 81.7257C263.445 81.6252 267.008 82.6199 270.051 84.5793C273.093 86.5388 275.472 89.3716 276.876 92.7065" stroke="#263238" stroke-width="5" stroke-linecap="round" stroke-linejoin="round"/>
<path d="M223.129 105.893C223.44 108.35 224.637 110.61 226.495 112.248C228.354 113.886 230.746 114.789 233.223 114.789C235.7 114.789 238.092 113.886 239.95 112.248C241.809 110.61 243.005 108.35 243.317 105.893H223.129Z" fill="white" stroke="#263238" stroke-linecap="round" stroke-linejoin="round"/>
<path d="M328.219 110.082C326.175 110.082 324.214 109.27 322.768 107.824C321.323 106.378 320.511 104.418 320.511 102.373V84.8378C320.509 83.8245 320.707 82.8209 321.094 81.8842C321.481 80.9476 322.048 80.0963 322.764 79.3793C323.48 78.6622 324.33 78.0933 325.266 77.7051C326.202 77.317 327.206 77.1172 328.219 77.1172C329.232 77.1156 330.236 77.3137 331.173 77.7004C332.109 78.087 332.96 78.6546 333.678 79.3705C334.395 80.0865 334.964 80.9367 335.352 81.8728C335.74 82.8088 335.94 83.8121 335.94 84.8254V102.361C335.941 103.375 335.743 104.38 335.355 105.318C334.968 106.255 334.399 107.107 333.682 107.824C332.965 108.541 332.113 109.11 331.175 109.497C330.238 109.885 329.233 110.083 328.219 110.082Z" fill="#263238" stroke="#263238" stroke-linecap="round" stroke-linejoin="round"/>
<path d="M135.363 110.082C134.35 110.083 133.346 109.885 132.41 109.498C131.473 109.112 130.622 108.544 129.905 107.828C129.188 107.112 128.619 106.262 128.231 105.326C127.842 104.39 127.643 103.387 127.643 102.373V84.8378C127.641 83.8235 127.84 82.8188 128.227 81.8813C128.614 80.9439 129.183 80.0921 129.9 79.3749C130.618 78.6576 131.469 78.089 132.407 77.7016C133.344 77.3142 134.349 77.1156 135.363 77.1172C136.375 77.1172 137.378 77.3166 138.313 77.704C139.248 78.0913 140.098 78.6591 140.814 79.3749C141.53 80.0907 142.097 80.9404 142.485 81.8756C142.872 82.8108 143.071 83.8132 143.071 84.8254V102.361C143.073 103.374 142.875 104.378 142.488 105.315C142.102 106.251 141.534 107.102 140.818 107.82C140.102 108.537 139.252 109.106 138.316 109.494C137.38 109.882 136.377 110.082 135.363 110.082Z" fill="#263238" stroke="#263238" stroke-linecap="round" stroke-linejoin="round"/>
<path d="M160.077 30.9551C153.259 41.0295 149.624 52.9196 149.643 65.0844V77.8241" stroke="#263238" stroke-width="14" stroke-linecap="round" stroke-linejoin="round"/>
<path d="M306.409 31.0036C300.829 22.6905 293.289 15.8786 284.454 11.1692C275.618 6.45975 265.76 3.9976 255.747 4.00001H210.7C200.702 3.99305 190.856 6.44439 182.028 11.1382C173.2 15.832 165.661 22.6242 160.076 30.9169" stroke="#263238" stroke-width="7" stroke-linecap="round" stroke-linejoin="round"/>
<path d="M316.794 77.8234V65.0837C316.813 52.9416 313.196 41.072 306.409 31.0039" stroke="#263238" stroke-width="14" stroke-linecap="round" stroke-linejoin="round"/>
<path d="M155.79 64.1055H145.454C139.472 64.1055 134.623 68.9548 134.623 74.9367V110.739C134.623 116.721 139.472 121.57 145.454 121.57H155.79C161.772 121.57 166.621 116.721 166.621 110.739V74.9367C166.621 68.9548 161.772 64.1055 155.79 64.1055Z" fill="white" stroke="#263238" stroke-linecap="round" stroke-linejoin="round"/>
<path d="M152.256 64.1055H148.997V121.57H152.256V64.1055Z" fill="#F59C04" stroke="#263238" stroke-linecap="round" stroke-linejoin="round"/>
<path d="M319.023 64.1055H308.688C302.706 64.1055 297.856 68.9548 297.856 74.9367V110.739C297.856 116.721 302.706 121.57 308.688 121.57H319.023C325.005 121.57 329.854 116.721 329.854 110.739V74.9367C329.854 68.9548 325.005 64.1055 319.023 64.1055Z" fill="white" stroke="#263238" stroke-linecap="round" stroke-linejoin="round"/>
<path d="M315.493 64.1055H312.233V121.57H315.493V64.1055Z" fill="#F59C04" stroke="#263238" stroke-linecap="round" stroke-linejoin="round"/>
<path d="M233.106 58.89C238.751 58.8914 244.307 57.479 249.266 54.7818C254.226 52.0846 258.43 48.1884 261.497 43.4488L268.487 32.63C257.411 26.5135 244.947 23.3518 232.295 23.4495C219.643 23.5471 207.23 26.9009 196.25 33.1877L206.771 46.2495C209.937 50.1914 213.945 53.3732 218.503 55.5608C223.06 57.7484 228.05 58.8861 233.106 58.89Z" fill="#F59C04" stroke="#263238" stroke-linecap="round" stroke-linejoin="round"/>
<path d="M234.854 127.581C234.854 127.336 234.781 127.096 234.645 126.893C234.509 126.689 234.315 126.53 234.089 126.436C233.862 126.342 233.613 126.318 233.372 126.366C233.132 126.413 232.911 126.531 232.738 126.705C232.565 126.878 232.447 127.099 232.399 127.339C232.351 127.58 232.376 127.829 232.469 128.055C232.563 128.282 232.722 128.475 232.926 128.611C233.13 128.748 233.369 128.82 233.614 128.82C233.943 128.82 234.258 128.69 234.491 128.457C234.723 128.225 234.854 127.91 234.854 127.581Z" fill="#263238"/>
<path d="M234.854 131.741C234.854 131.496 234.781 131.257 234.645 131.053C234.509 130.849 234.315 130.69 234.089 130.596C233.862 130.502 233.613 130.478 233.372 130.526C233.132 130.574 232.911 130.692 232.738 130.865C232.565 131.038 232.447 131.259 232.399 131.499C232.351 131.74 232.376 131.989 232.469 132.215C232.563 132.442 232.722 132.635 232.926 132.772C233.13 132.908 233.369 132.98 233.614 132.98C233.943 132.98 234.258 132.85 234.491 132.618C234.723 132.385 234.854 132.07 234.854 131.741Z" fill="#263238"/>
<path d="M230.128 131.101C230.355 130.955 230.527 130.739 230.62 130.486C230.713 130.233 230.72 129.956 230.642 129.699C230.563 129.441 230.403 129.216 230.185 129.057C229.967 128.899 229.704 128.816 229.434 128.821C229.208 128.967 229.035 129.183 228.943 129.435C228.85 129.688 228.842 129.965 228.921 130.223C228.999 130.48 229.16 130.705 229.377 130.864C229.595 131.022 229.859 131.106 230.128 131.101Z" fill="#263238"/>
<path d="M237.577 131.099C237.769 131.096 237.957 131.048 238.128 130.96C238.298 130.871 238.445 130.744 238.558 130.589C238.671 130.434 238.746 130.255 238.778 130.066C238.809 129.877 238.797 129.683 238.741 129.5C238.685 129.316 238.588 129.148 238.456 129.009C238.324 128.869 238.162 128.763 237.982 128.697C237.802 128.631 237.609 128.607 237.418 128.629C237.228 128.65 237.045 128.715 236.883 128.819C236.692 128.823 236.503 128.87 236.333 128.959C236.163 129.047 236.016 129.174 235.903 129.329C235.79 129.484 235.715 129.664 235.683 129.853C235.651 130.042 235.664 130.236 235.72 130.419C235.776 130.603 235.873 130.771 236.005 130.91C236.137 131.049 236.299 131.156 236.479 131.222C236.659 131.288 236.852 131.311 237.043 131.29C237.233 131.269 237.416 131.203 237.577 131.099Z" fill="#263238"/>
<path d="M282.365 174.075C266.589 170.519 232.435 169.242 232.435 169.242C224.206 169.502 201.304 170.481 185.528 174.088C182.542 174.766 179.943 176.595 178.296 179.177C176.649 181.759 176.086 184.886 176.73 187.881L191.341 256.239C192.058 259.553 193.888 262.523 196.525 264.655C199.162 266.787 202.449 267.954 205.84 267.962H262.165C265.556 267.954 268.843 266.787 271.48 264.655C274.117 262.523 275.946 259.553 276.664 256.239L291.263 187.881C291.904 184.871 291.328 181.73 289.661 179.143C287.993 176.556 285.371 174.735 282.365 174.075Z" fill="white" stroke="#263238" stroke-linecap="round" stroke-linejoin="round"/>
<path d="M275.179 172.762C258.065 170.209 232.474 169.242 232.474 169.242C219.944 169.601 207.442 170.635 195.023 172.34L211.58 267.962H256.578L275.179 172.762Z" fill="#F59C04" stroke="#263238" stroke-linecap="round" stroke-linejoin="round"/>
<path d="M247.244 190.027H219.832C214.233 190.027 209.694 194.566 209.694 200.165V213.549C209.694 219.147 214.233 223.686 219.832 223.686H247.244C252.843 223.686 257.381 219.147 257.381 213.549V200.165C257.381 194.566 252.843 190.027 247.244 190.027Z" fill="white" stroke="#263238" stroke-linecap="round" stroke-linejoin="round"/>
<path d="M225.528 203.893H217.808V211.613H225.528V203.893Z" fill="white" stroke="#263238" stroke-linecap="round" stroke-linejoin="round"/>
<path d="M237.391 203.893H229.67V211.613H237.391V203.893Z" fill="white" stroke="#263238" stroke-linecap="round" stroke-linejoin="round"/>
<path d="M249.267 203.893H241.547V211.613H249.267V203.893Z" fill="white" stroke="#263238" stroke-linecap="round" stroke-linejoin="round"/>
<rect x="50" y="279" width="368" height="75" rx="37.5" fill="url(#paint0_linear_802_49)"/>
<path d="M129.984 323V309H142.364V323H139.804V310.56L140.404 311.2H131.944L132.544 310.56V323H129.984ZM151.952 323.14C151.085 323.14 150.292 322.94 149.572 322.54C148.865 322.14 148.298 321.54 147.872 320.74C147.458 319.927 147.252 318.9 147.252 317.66C147.252 316.407 147.452 315.38 147.852 314.58C148.265 313.78 148.825 313.187 149.532 312.8C150.238 312.4 151.045 312.2 151.952 312.2C153.005 312.2 153.932 312.427 154.732 312.88C155.545 313.333 156.185 313.967 156.652 314.78C157.132 315.593 157.372 316.553 157.372 317.66C157.372 318.767 157.132 319.733 156.652 320.56C156.185 321.373 155.545 322.007 154.732 322.46C153.932 322.913 153.005 323.14 151.952 323.14ZM146.032 326.88V312.32H148.412V314.84L148.332 317.68L148.532 320.52V326.88H146.032ZM151.672 321C152.272 321 152.805 320.867 153.272 320.6C153.752 320.333 154.132 319.947 154.412 319.44C154.692 318.933 154.832 318.34 154.832 317.66C154.832 316.967 154.692 316.373 154.412 315.88C154.132 315.373 153.752 314.987 153.272 314.72C152.805 314.453 152.272 314.32 151.672 314.32C151.072 314.32 150.532 314.453 150.052 314.72C149.572 314.987 149.192 315.373 148.912 315.88C148.632 316.373 148.492 316.967 148.492 317.66C148.492 318.34 148.632 318.933 148.912 319.44C149.192 319.947 149.572 320.333 150.052 320.6C150.532 320.867 151.072 321 151.672 321ZM164.62 323.14C163.526 323.14 162.553 322.907 161.7 322.44C160.846 321.96 160.173 321.307 159.68 320.48C159.186 319.653 158.94 318.713 158.94 317.66C158.94 316.593 159.186 315.653 159.68 314.84C160.173 314.013 160.846 313.367 161.7 312.9C162.553 312.433 163.526 312.2 164.62 312.2C165.726 312.2 166.706 312.433 167.56 312.9C168.426 313.367 169.1 314.007 169.58 314.82C170.073 315.633 170.32 316.58 170.32 317.66C170.32 318.713 170.073 319.653 169.58 320.48C169.1 321.307 168.426 321.96 167.56 322.44C166.706 322.907 165.726 323.14 164.62 323.14ZM164.62 321C165.233 321 165.78 320.867 166.26 320.6C166.74 320.333 167.113 319.947 167.38 319.44C167.66 318.933 167.8 318.34 167.8 317.66C167.8 316.967 167.66 316.373 167.38 315.88C167.113 315.373 166.74 314.987 166.26 314.72C165.78 314.453 165.24 314.32 164.64 314.32C164.026 314.32 163.48 314.453 163 314.72C162.533 314.987 162.16 315.373 161.88 315.88C161.6 316.373 161.46 316.967 161.46 317.66C161.46 318.34 161.6 318.933 161.88 319.44C162.16 319.947 162.533 320.333 163 320.6C163.48 320.867 164.02 321 164.62 321ZM177.649 323.14C176.529 323.14 175.529 322.907 174.649 322.44C173.783 321.96 173.103 321.307 172.609 320.48C172.116 319.653 171.869 318.713 171.869 317.66C171.869 316.593 172.116 315.653 172.609 314.84C173.103 314.013 173.783 313.367 174.649 312.9C175.529 312.433 176.529 312.2 177.649 312.2C178.689 312.2 179.603 312.413 180.389 312.84C181.189 313.253 181.796 313.867 182.209 314.68L180.289 315.8C179.969 315.293 179.576 314.92 179.109 314.68C178.656 314.44 178.163 314.32 177.629 314.32C177.016 314.32 176.463 314.453 175.969 314.72C175.476 314.987 175.089 315.373 174.809 315.88C174.529 316.373 174.389 316.967 174.389 317.66C174.389 318.353 174.529 318.953 174.809 319.46C175.089 319.953 175.476 320.333 175.969 320.6C176.463 320.867 177.016 321 177.629 321C178.163 321 178.656 320.88 179.109 320.64C179.576 320.4 179.969 320.027 180.289 319.52L182.209 320.64C181.796 321.44 181.189 322.06 180.389 322.5C179.603 322.927 178.689 323.14 177.649 323.14ZM182.597 322.98L182.717 320.88C182.81 320.893 182.897 320.907 182.977 320.92C183.057 320.933 183.13 320.94 183.197 320.94C183.61 320.94 183.93 320.813 184.157 320.56C184.383 320.307 184.55 319.967 184.657 319.54C184.777 319.1 184.857 318.613 184.897 318.08C184.95 317.533 184.99 316.987 185.017 316.44L185.197 312.32H193.837V323H191.337V313.76L191.917 314.44H186.837L187.377 313.74L187.237 316.56C187.197 317.507 187.117 318.387 186.997 319.2C186.89 320 186.717 320.7 186.477 321.3C186.25 321.9 185.93 322.367 185.517 322.7C185.117 323.033 184.603 323.2 183.977 323.2C183.777 323.2 183.557 323.18 183.317 323.14C183.09 323.1 182.85 323.047 182.597 322.98ZM198.163 327.02C197.643 327.02 197.123 326.933 196.603 326.76C196.083 326.587 195.65 326.347 195.303 326.04L196.303 324.2C196.557 324.427 196.843 324.607 197.163 324.74C197.483 324.873 197.81 324.94 198.143 324.94C198.597 324.94 198.963 324.827 199.243 324.6C199.523 324.373 199.783 323.993 200.023 323.46L200.643 322.06L200.843 321.76L204.883 312.32H207.283L202.283 323.86C201.95 324.66 201.577 325.293 201.163 325.76C200.763 326.227 200.31 326.553 199.803 326.74C199.31 326.927 198.763 327.02 198.163 327.02ZM200.363 323.38L195.543 312.32H198.143L202.063 321.54L200.363 323.38ZM216.2 320.88L215.66 321.48V312.32H218.16V321.48L217.56 320.88H222.84L222.26 321.48V312.32H224.76V323H209.02V312.32H211.52V321.48L210.94 320.88H216.2ZM234.601 323V320.84L234.461 320.38V316.6C234.461 315.867 234.241 315.3 233.801 314.9C233.361 314.487 232.695 314.28 231.801 314.28C231.201 314.28 230.608 314.373 230.021 314.56C229.448 314.747 228.961 315.007 228.561 315.34L227.581 313.52C228.155 313.08 228.835 312.753 229.621 312.54C230.421 312.313 231.248 312.2 232.101 312.2C233.648 312.2 234.841 312.573 235.681 313.32C236.535 314.053 236.961 315.193 236.961 316.74V323H234.601ZM231.241 323.14C230.441 323.14 229.741 323.007 229.141 322.74C228.541 322.46 228.075 322.08 227.741 321.6C227.421 321.107 227.261 320.553 227.261 319.94C227.261 319.34 227.401 318.8 227.681 318.32C227.975 317.84 228.448 317.46 229.101 317.18C229.755 316.9 230.621 316.76 231.701 316.76H234.801V318.42H231.881C231.028 318.42 230.455 318.56 230.161 318.84C229.868 319.107 229.721 319.44 229.721 319.84C229.721 320.293 229.901 320.653 230.261 320.92C230.621 321.187 231.121 321.32 231.761 321.32C232.375 321.32 232.921 321.18 233.401 320.9C233.895 320.62 234.248 320.207 234.461 319.66L234.881 321.16C234.641 321.787 234.208 322.273 233.581 322.62C232.968 322.967 232.188 323.14 231.241 323.14ZM242.275 323V313.84L242.855 314.44H238.515V312.32H248.515V314.44H244.195L244.775 313.84V323H242.275ZM255.688 315.84C257.062 315.84 258.108 316.147 258.828 316.76C259.548 317.373 259.908 318.24 259.908 319.36C259.908 320.52 259.508 321.427 258.708 322.08C257.908 322.72 256.782 323.033 255.328 323.02L250.328 323V312.32H252.828V315.82L255.688 315.84ZM255.108 321.18C255.842 321.193 256.402 321.04 256.788 320.72C257.175 320.4 257.368 319.933 257.368 319.32C257.368 318.707 257.175 318.267 256.788 318C256.415 317.72 255.855 317.573 255.108 317.56L252.828 317.54V321.16L255.108 321.18ZM271.013 323.18C272 323.18 272.873 323.04 273.633 322.76C274.406 322.48 275.013 322.093 275.453 321.6C275.893 321.093 276.113 320.513 276.113 319.86C276.113 319.047 275.773 318.407 275.093 317.94C274.413 317.46 273.48 317.22 272.293 317.22L272.213 317.76C272.906 317.76 273.52 317.647 274.053 317.42C274.6 317.193 275.026 316.88 275.333 316.48C275.653 316.067 275.813 315.607 275.813 315.1C275.813 314.487 275.593 313.953 275.153 313.5C274.713 313.047 274.113 312.7 273.353 312.46C272.593 312.22 271.726 312.12 270.753 312.16C270.113 312.173 269.466 312.267 268.813 312.44C268.173 312.6 267.513 312.833 266.833 313.14L267.473 314.98C268.06 314.727 268.633 314.533 269.193 314.4C269.766 314.267 270.32 314.2 270.853 314.2C271.36 314.2 271.793 314.253 272.153 314.36C272.513 314.453 272.786 314.6 272.973 314.8C273.173 314.987 273.273 315.207 273.273 315.46C273.273 315.713 273.193 315.933 273.033 316.12C272.873 316.307 272.64 316.447 272.333 316.54C272.04 316.633 271.68 316.68 271.253 316.68H269.393V318.36H271.453C272.133 318.36 272.653 318.473 273.013 318.7C273.386 318.913 273.573 319.233 273.573 319.66C273.573 319.953 273.46 320.213 273.233 320.44C273.02 320.667 272.713 320.84 272.313 320.96C271.913 321.067 271.433 321.12 270.873 321.12C270.22 321.12 269.566 321.04 268.913 320.88C268.26 320.72 267.673 320.493 267.153 320.2L266.453 322.06C267.093 322.42 267.806 322.7 268.593 322.9C269.393 323.087 270.2 323.18 271.013 323.18ZM285.168 323V320.84L285.028 320.38V316.6C285.028 315.867 284.808 315.3 284.368 314.9C283.928 314.487 283.261 314.28 282.368 314.28C281.768 314.28 281.174 314.373 280.588 314.56C280.014 314.747 279.528 315.007 279.128 315.34L278.148 313.52C278.721 313.08 279.401 312.753 280.188 312.54C280.988 312.313 281.814 312.2 282.668 312.2C284.214 312.2 285.408 312.573 286.248 313.32C287.101 314.053 287.528 315.193 287.528 316.74V323H285.168ZM281.808 323.14C281.008 323.14 280.308 323.007 279.708 322.74C279.108 322.46 278.641 322.08 278.308 321.6C277.988 321.107 277.828 320.553 277.828 319.94C277.828 319.34 277.968 318.8 278.248 318.32C278.541 317.84 279.014 317.46 279.668 317.18C280.321 316.9 281.188 316.76 282.268 316.76H285.368V318.42H282.448C281.594 318.42 281.021 318.56 280.728 318.84C280.434 319.107 280.288 319.44 280.288 319.84C280.288 320.293 280.468 320.653 280.828 320.92C281.188 321.187 281.688 321.32 282.328 321.32C282.941 321.32 283.488 321.18 283.968 320.9C284.461 320.62 284.814 320.207 285.028 319.66L285.448 321.16C285.208 321.787 284.774 322.273 284.148 322.62C283.534 322.967 282.754 323.14 281.808 323.14ZM290.621 323V312.32H300.861V323H298.381V313.86L298.961 314.44H292.541L293.121 313.86V323H290.621ZM304.235 323V312.32H306.735V319.36L312.635 312.32H314.915V323H312.415V315.96L306.535 323H304.235ZM323.138 323.14C322.018 323.14 321.018 322.907 320.138 322.44C319.271 321.96 318.591 321.307 318.098 320.48C317.604 319.653 317.358 318.713 317.358 317.66C317.358 316.593 317.604 315.653 318.098 314.84C318.591 314.013 319.271 313.367 320.138 312.9C321.018 312.433 322.018 312.2 323.138 312.2C324.178 312.2 325.091 312.413 325.878 312.84C326.678 313.253 327.284 313.867 327.698 314.68L325.778 315.8C325.458 315.293 325.064 314.92 324.598 314.68C324.144 314.44 323.651 314.32 323.118 314.32C322.504 314.32 321.951 314.453 321.458 314.72C320.964 314.987 320.578 315.373 320.298 315.88C320.018 316.373 319.878 316.967 319.878 317.66C319.878 318.353 320.018 318.953 320.298 319.46C320.578 319.953 320.964 320.333 321.458 320.6C321.951 320.867 322.504 321 323.118 321C323.651 321 324.144 320.88 324.598 320.64C325.064 320.4 325.458 320.027 325.778 319.52L327.698 320.64C327.284 321.44 326.678 322.06 325.878 322.5C325.091 322.927 324.178 323.14 323.138 323.14ZM335.259 315.84C336.632 315.84 337.679 316.147 338.399 316.76C339.119 317.373 339.479 318.24 339.479 319.36C339.479 320.52 339.079 321.427 338.279 322.08C337.479 322.72 336.352 323.033 334.899 323.02L329.899 323V312.32H332.399V315.82L335.259 315.84ZM334.679 321.18C335.412 321.193 335.972 321.04 336.359 320.72C336.745 320.4 336.939 319.933 336.939 319.32C336.939 318.707 336.745 318.267 336.359 318C335.985 317.72 335.425 317.573 334.679 317.56L332.399 317.54V321.16L334.679 321.18Z" fill="white"/>
<path d="M108 316.5L80.25 332.521L80.25 300.479L108 316.5Z" fill="url(#paint1_linear_802_49)"/>
<defs>
<linearGradient id="paint0_linear_802_49" x1="50" y1="316.5" x2="418" y2="316.5" gradientUnits="userSpaceOnUse">
<stop stop-color="#0968AC"/>
<stop offset="1" stop-color="#62B6F2"/>
</linearGradient>
<linearGradient id="paint1_linear_802_49" x1="89.5" y1="298" x2="89.5" y2="335" gradientUnits="userSpaceOnUse">
<stop stop-color="white"/>
<stop offset="1" stop-color="#5EB2EF"/>
</linearGradient>
</defs>
</svg>
