<svg width="77" height="32" viewBox="0 0 77 32" fill="none" xmlns="http://www.w3.org/2000/svg">
<path d="M-3.49691e-07 2C-1.56562e-07 0.895431 0.89543 1.56562e-07 2 3.49691e-07L53.8718 9.41924e-06C54.996 9.6158e-06 55.8993 0.92627 55.8711 2.0501C55.844 3.13482 54.9568 4.00001 53.8718 4.00001L2 4C0.89543 4 -5.4282e-07 3.10457 -3.49691e-07 2Z" fill="#F59C04"/>
<path d="M-3.49691e-07 30C-1.56562e-07 28.8954 0.89543 28 2 28L53.8718 28C54.996 28 55.8993 28.9263 55.8711 30.0501C55.844 31.1348 54.9568 32 53.8718 32L2 32C0.89543 32 -5.4282e-07 31.1046 -3.49691e-07 30Z" fill="#F59C04"/>
<path d="M-3.49691e-07 9C-1.56562e-07 7.89543 0.895431 7 2 7L65.046 7.00001C66.1741 7.00001 67.079 7.93251 67.0451 9.06012C67.0126 10.1408 66.1271 11 65.046 11L2 11C0.895428 11 -5.4282e-07 10.1046 -3.49691e-07 9Z" fill="#F59C04"/>
<path d="M-3.49691e-07 23C-1.56562e-07 21.8954 0.895431 21 2 21L65.046 21C66.1741 21 67.079 21.9325 67.0451 23.0601C67.0126 24.1408 66.1271 25 65.046 25L2 25C0.895428 25 -5.4282e-07 24.1046 -3.49691e-07 23Z" fill="#F59C04"/>
<path d="M-3.49691e-07 16C-1.56562e-07 14.8954 0.89543 14 2 14L74.6238 14C75.7553 14 76.6615 14.9379 76.6226 16.0687C76.5856 17.1459 75.7017 18 74.6238 18L2 18C0.895427 18 -5.4282e-07 17.1046 -3.49691e-07 16Z" fill="#F59C04"/>
</svg>
