<svg width="337" height="70" viewBox="0 0 337 70" fill="none" xmlns="http://www.w3.org/2000/svg">
<path d="M22.5622 33.5002C24.9634 33.5002 27.3145 32.3997 27.3145 30.0485V29.098H26.5642C24.6132 29.098 23.2125 28.5478 21.7618 26.5468L15.8589 18.4428C21.7618 14.3909 19.7608 4.83619 26.5141 4.83619H27.2145V3.88572C27.2145 1.43452 25.8638 0.333984 23.1125 0.333984C13.4578 0.333984 17.8599 14.9911 9.4558 14.9911H6.50436V0.584109C1.40186 0.584109 0.551447 0.584109 0.551447 3.58558V33H6.50436V20.1937H10.1061L16.4092 29.6483C18.5602 32.8999 20.011 33.5002 22.5622 33.5002Z" fill="#F59C04"/>
<path d="M52.8587 8.83814H46.8057L41.1029 26.6969C38.5517 21.2942 36.0504 14.7911 34.3996 8.83814H27.5963C30.2976 16.742 33.8994 25.0961 38.4016 33.3001C37.8013 35.9014 36.2005 37.0519 33.8494 37.0519C33.049 37.0519 32.1485 36.9519 31.2981 36.7018V38.6027C31.2981 40.9538 33.5492 41.7542 35.8503 41.7542C40.1024 41.7542 43.254 39.1029 44.1544 32.8499L52.8587 9.38841V8.83814Z" fill="#F59C04"/>
<path d="M62.0792 41.254V30.1986C63.73 32.4497 66.2312 33.5002 69.1326 33.5002C75.7859 33.5002 80.3881 27.1971 80.3881 19.8435C80.3881 13.1402 77.1866 8.3379 70.9335 8.3379C66.9816 8.3379 63.9301 10.2388 62.0792 13.5905V8.63804C57.1768 8.63804 56.4764 8.63804 56.4764 11.5895V41.254H62.0792ZM74.4852 19.9936C74.4852 24.2957 72.2341 28.6978 67.832 28.6978C64.3803 28.6978 62.5294 25.3962 62.5294 22.3948C62.5294 16.9421 65.0306 12.9902 69.0826 12.9902C72.9845 12.9902 74.4852 16.3418 74.4852 19.9936Z" fill="#F59C04"/>
<path d="M104.105 24.7959C104.105 19.4433 100.103 17.6424 94.6502 17.6424H91.0484V8.63804C86.3461 8.63804 85.4457 8.63805 85.4457 11.2893V25.9965C85.4457 31.049 87.9469 33 93.2495 33H94.7002C99.5526 33 104.105 30.3987 104.105 24.7959ZM93.9498 21.8945C96.401 21.8945 98.452 22.6949 98.452 25.1961C98.452 27.7474 96.451 28.7479 94.4501 28.7479H93.8498C91.9989 28.7479 91.0484 27.7474 91.0484 25.8465V21.8945H93.9498Z" fill="#F59C04"/>
<path d="M128.455 27.6974C126.504 28.3977 124.503 28.8479 122.352 28.8479C117.4 28.8479 114.699 26.8469 113.848 22.945H126.154C128.155 22.945 130.206 22.2447 130.206 19.5934C130.206 12.8401 126.304 8.3379 119.501 8.3379C112.448 8.3379 107.695 13.2903 107.695 20.0936C107.695 28.998 112.748 33.5002 119.901 33.5002C123.953 33.5002 128.455 32.3997 128.455 29.3982V27.6974ZM119.351 12.54C122.302 12.54 124.303 14.3909 124.303 17.6424C124.303 18.2427 123.953 19.0932 122.903 19.0932H113.598C113.798 15.2413 115.499 12.54 119.351 12.54Z" fill="#F59C04"/>
<path d="M140.584 41.254V30.1986C142.235 32.4497 144.736 33.5002 147.638 33.5002C154.291 33.5002 158.893 27.1971 158.893 19.8435C158.893 13.1402 155.692 8.3379 149.439 8.3379C145.487 8.3379 142.435 10.2388 140.584 13.5905V8.63804C135.682 8.63804 134.982 8.63804 134.982 11.5895V41.254H140.584ZM152.99 19.9936C152.99 24.2957 150.739 28.6978 146.337 28.6978C142.885 28.6978 141.035 25.3962 141.035 22.3948C141.035 16.9421 143.536 12.9902 147.588 12.9902C151.49 12.9902 152.99 16.3418 152.99 19.9936Z" fill="#F59C04"/>
<path d="M182.61 24.7959C182.61 19.4433 178.608 17.6424 173.155 17.6424H169.554V8.63804C164.851 8.63804 163.951 8.63805 163.951 11.2893V25.9965C163.951 31.049 166.452 33 171.755 33H173.205C178.058 33 182.61 30.3987 182.61 24.7959ZM191.614 33V8.63804C186.712 8.63804 186.012 8.63804 186.012 11.5895V33H191.614ZM172.455 21.8945C174.906 21.8945 176.957 22.6949 176.957 25.1961C176.957 27.7474 174.956 28.7479 172.955 28.7479H172.355C170.504 28.7479 169.554 27.7474 169.554 25.8465V21.8945H172.455Z" fill="#F59C04"/>
<path d="M214.595 41.254V30.1986C216.246 32.4497 218.747 33.5002 221.649 33.5002C228.302 33.5002 232.904 27.1971 232.904 19.8435C232.904 13.1402 229.702 8.3379 223.449 8.3379C219.498 8.3379 216.446 10.2388 214.595 13.5905V8.63804C209.693 8.63804 208.992 8.63804 208.992 11.5895V41.254H214.595ZM227.001 19.9936C227.001 24.2957 224.75 28.6978 220.348 28.6978C216.896 28.6978 215.045 25.3962 215.045 22.3948C215.045 16.9421 217.547 12.9902 221.599 12.9902C225.5 12.9902 227.001 16.3418 227.001 19.9936Z" fill="#F59C04"/>
<path d="M260.04 8.83814H253.987L248.284 26.6969C245.733 21.2942 243.232 14.7911 241.581 8.83814H234.778C237.479 16.742 241.081 25.0961 245.583 33.3001C244.983 35.9014 243.382 37.0519 241.031 37.0519C240.23 37.0519 239.33 36.9519 238.479 36.7018V38.6027C238.479 40.9538 240.731 41.7542 243.032 41.7542C247.284 41.7542 250.435 39.1029 251.336 32.8499L260.04 9.38841V8.83814Z" fill="#F59C04"/>
<path d="M284.056 30.1986V16.0917C284.056 10.689 282.155 8.83814 276.453 8.83814H265.747C263.947 8.83814 263.897 10.1888 263.897 13.6405H266.198L264.247 26.1466C263.997 27.9975 263.146 29.1981 261.345 29.1981C260.695 29.1981 260.195 29.1481 259.594 28.948V30.5988C259.594 32.5998 261.345 33.5002 263.496 33.5002C266.898 33.5002 269.249 31.5492 269.749 27.1471L271.25 13.6405H275.352C277.553 13.6405 278.504 14.741 278.504 17.0922V33.2001C283.406 33.2001 284.056 33.2001 284.056 30.1986Z" fill="#F59C04"/>
<path d="M310.292 30.1986V15.9916C310.292 10.9392 308.541 8.83814 302.838 8.83814H300.137C294.634 8.83814 290.132 11.7896 290.132 16.5919C290.132 20.1937 291.983 22.5448 295.435 23.7454L292.583 27.3972C291.433 28.998 290.182 29.7984 288.581 29.7984H288.131V31.099C288.131 32.8499 289.982 33.5002 291.733 33.5002C294.184 33.5002 295.885 32.6998 297.536 29.9985L300.737 25.1961H304.689V33.2001C309.592 33.2001 310.292 33.2001 310.292 30.1986ZM296.185 17.3423C296.185 14.691 298.236 13.2403 300.837 13.2403H301.738C303.839 13.2403 304.689 14.2908 304.689 16.5419V21.3443H300.687C298.186 21.3443 296.185 19.8935 296.185 17.3423Z" fill="#F59C04"/>
<path d="M327.684 33V13.7906H336.038C336.038 10.2388 335.988 8.83814 334.137 8.83814H314.077V13.7906H322.081V33H327.684Z" fill="#F59C04"/>
<path d="M11.9237 58.892C13.2864 59.172 14.3224 59.7226 15.0317 60.544C15.741 61.3466 16.0957 62.4013 16.0957 63.708C16.0957 65.4066 15.489 66.7133 14.2757 67.628C13.081 68.5426 11.317 69 8.98371 69H0.303711V49.4H8.45171C10.5424 49.4 12.1757 49.8293 13.3517 50.688C14.5277 51.5466 15.1157 52.788 15.1157 54.412C15.1157 55.5133 14.8357 56.4466 14.2757 57.212C13.7157 57.9586 12.9317 58.5186 11.9237 58.892ZM2.34771 58.276H8.33971C9.85171 58.276 11.009 57.968 11.8117 57.352C12.633 56.736 13.0437 55.84 13.0437 54.664C13.0437 53.488 12.633 52.592 11.8117 51.976C11.009 51.36 9.85171 51.052 8.33971 51.052H2.34771V58.276ZM8.98371 67.348C12.3624 67.348 14.0517 66.088 14.0517 63.568C14.0517 61.104 12.3624 59.872 8.98371 59.872H2.34771V67.348H8.98371Z" fill="#004F88"/>
<path d="M37.2644 54.2719V69H35.4444V57.352L29.4804 67.208H28.5844L22.6204 57.324V69H20.8004V54.2719H22.8164L29.0604 64.8839L35.4164 54.2719H37.2644Z" fill="#004F88"/>
<path d="M55.8015 62.252H43.4815C43.5935 63.7826 44.1815 65.0239 45.2455 65.976C46.3095 66.9093 47.6535 67.376 49.2775 67.376C50.1921 67.376 51.0321 67.2173 51.7975 66.8999C52.5628 66.5639 53.2255 66.0786 53.7855 65.444L54.9055 66.7319C54.2521 67.5159 53.4308 68.1133 52.4415 68.5239C51.4708 68.9346 50.3975 69.14 49.2215 69.14C47.7095 69.14 46.3655 68.8226 45.1895 68.188C44.0321 67.5346 43.1268 66.6386 42.4735 65.5C41.8201 64.3613 41.4935 63.0733 41.4935 61.636C41.4935 60.1986 41.8015 58.9106 42.4175 57.7719C43.0521 56.6333 43.9108 55.7466 44.9935 55.1119C46.0948 54.4773 47.3268 54.16 48.6895 54.16C50.0521 54.16 51.2748 54.4773 52.3575 55.1119C53.4401 55.7466 54.2895 56.6333 54.9055 57.7719C55.5215 58.8919 55.8295 60.18 55.8295 61.636L55.8015 62.252ZM48.6895 55.868C47.2708 55.868 46.0761 56.3253 45.1055 57.24C44.1535 58.136 43.6121 59.312 43.4815 60.768H53.9255C53.7948 59.312 53.2441 58.136 52.2735 57.24C51.3215 56.3253 50.1268 55.868 48.6895 55.868Z" fill="#004F88"/>
<path d="M66.3901 69.14C64.9341 69.14 63.6274 68.8226 62.4701 68.188C61.3314 67.5533 60.4354 66.6666 59.7821 65.528C59.1287 64.3706 58.8021 63.0733 58.8021 61.636C58.8021 60.1986 59.1287 58.9106 59.7821 57.7719C60.4354 56.6333 61.3314 55.7466 62.4701 55.1119C63.6274 54.4773 64.9341 54.16 66.3901 54.16C67.6594 54.16 68.7887 54.4119 69.7781 54.916C70.7861 55.4013 71.5794 56.12 72.1581 57.072L70.6741 58.08C70.1887 57.352 69.5727 56.8106 68.8261 56.456C68.0794 56.0826 67.2674 55.896 66.3901 55.896C65.326 55.896 64.3647 56.1386 63.5061 56.624C62.6661 57.0906 62.0034 57.7626 61.5181 58.64C61.0514 59.5173 60.8181 60.516 60.8181 61.636C60.8181 62.7746 61.0514 63.7826 61.5181 64.66C62.0034 65.5186 62.6661 66.1906 63.5061 66.6759C64.3647 67.1426 65.326 67.376 66.3901 67.376C67.2674 67.376 68.0794 67.1986 68.8261 66.8439C69.5727 66.4893 70.1887 65.948 70.6741 65.22L72.1581 66.228C71.5794 67.18 70.7861 67.908 69.7781 68.4119C68.7701 68.8973 67.6407 69.14 66.3901 69.14Z" fill="#004F88"/>
<path d="M86.094 56.0359H80.522V69H78.534V56.0359H72.962V54.2719H86.094V56.0359Z" fill="#004F88"/>
<path d="M101.165 62.252H88.8447C88.9567 63.7826 89.5447 65.0239 90.6087 65.976C91.6727 66.9093 93.0167 67.376 94.6407 67.376C95.5554 67.376 96.3954 67.2173 97.1607 66.8999C97.9261 66.5639 98.5887 66.0786 99.1487 65.444L100.269 66.7319C99.6154 67.5159 98.7941 68.1133 97.8047 68.5239C96.8341 68.9346 95.7607 69.14 94.5847 69.14C93.0727 69.14 91.7287 68.8226 90.5527 68.188C89.3954 67.5346 88.4901 66.6386 87.8367 65.5C87.1834 64.3613 86.8567 63.0733 86.8567 61.636C86.8567 60.1986 87.1647 58.9106 87.7807 57.7719C88.4154 56.6333 89.2741 55.7466 90.3567 55.1119C91.4581 54.4773 92.6901 54.16 94.0527 54.16C95.4154 54.16 96.6381 54.4773 97.7207 55.1119C98.8034 55.7466 99.6527 56.6333 100.269 57.7719C100.885 58.8919 101.193 60.18 101.193 61.636L101.165 62.252ZM94.0527 55.868C92.6341 55.868 91.4394 56.3253 90.4687 57.24C89.5167 58.136 88.9754 59.312 88.8447 60.768H99.2887C99.1581 59.312 98.6074 58.136 97.6367 57.24C96.6847 56.3253 95.4901 55.868 94.0527 55.868Z" fill="#004F88"/>
<path d="M122.301 61.384C124.299 61.8506 125.297 63.0546 125.297 64.9959C125.297 66.284 124.821 67.2733 123.869 67.964C122.917 68.6546 121.499 69 119.613 69H112.921V54.2719H119.417C121.097 54.2719 122.413 54.5986 123.365 55.252C124.317 55.9053 124.793 56.8386 124.793 58.052C124.793 58.8546 124.569 59.5453 124.121 60.124C123.692 60.684 123.085 61.104 122.301 61.384ZM114.853 60.824H119.277C120.416 60.824 121.284 60.6093 121.881 60.18C122.497 59.7506 122.805 59.1253 122.805 58.304C122.805 57.4826 122.497 56.8666 121.881 56.456C121.284 56.0453 120.416 55.84 119.277 55.84H114.853V60.824ZM119.529 67.432C120.799 67.432 121.751 67.2266 122.385 66.8159C123.02 66.4053 123.337 65.7613 123.337 64.8839C123.337 64.0066 123.048 63.3626 122.469 62.952C121.891 62.5226 120.976 62.308 119.725 62.308H114.853V67.432H119.529Z" fill="#004F88"/>
<path d="M142.837 62.252H130.517C130.629 63.7826 131.217 65.0239 132.281 65.976C133.345 66.9093 134.689 67.376 136.313 67.376C137.227 67.376 138.067 67.2173 138.833 66.8999C139.598 66.5639 140.261 66.0786 140.821 65.444L141.941 66.7319C141.287 67.5159 140.466 68.1133 139.477 68.5239C138.506 68.9346 137.433 69.14 136.257 69.14C134.745 69.14 133.401 68.8226 132.225 68.188C131.067 67.5346 130.162 66.6386 129.509 65.5C128.855 64.3613 128.529 63.0733 128.529 61.636C128.529 60.1986 128.837 58.9106 129.453 57.7719C130.087 56.6333 130.946 55.7466 132.029 55.1119C133.13 54.4773 134.362 54.16 135.725 54.16C137.087 54.16 138.31 54.4773 139.393 55.1119C140.475 55.7466 141.325 56.6333 141.941 57.7719C142.557 58.8919 142.865 60.18 142.865 61.636L142.837 62.252ZM135.725 55.868C134.306 55.868 133.111 56.3253 132.141 57.24C131.189 58.136 130.647 59.312 130.517 60.768H140.961C140.83 59.312 140.279 58.136 139.309 57.24C138.357 56.3253 137.162 55.868 135.725 55.868Z" fill="#004F88"/>
<path d="M153.425 69.14C151.969 69.14 150.663 68.8226 149.505 68.188C148.367 67.5533 147.471 66.6666 146.817 65.528C146.164 64.3706 145.837 63.0733 145.837 61.636C145.837 60.1986 146.164 58.9106 146.817 57.7719C147.471 56.6333 148.367 55.7466 149.505 55.1119C150.663 54.4773 151.969 54.16 153.425 54.16C154.695 54.16 155.824 54.4119 156.813 54.916C157.821 55.4013 158.615 56.12 159.193 57.072L157.709 58.08C157.224 57.352 156.608 56.8106 155.861 56.456C155.115 56.0826 154.303 55.896 153.425 55.896C152.361 55.896 151.4 56.1386 150.541 56.624C149.701 57.0906 149.039 57.7626 148.553 58.64C148.087 59.5173 147.853 60.516 147.853 61.636C147.853 62.7746 148.087 63.7826 148.553 64.66C149.039 65.5186 149.701 66.1906 150.541 66.6759C151.4 67.1426 152.361 67.376 153.425 67.376C154.303 67.376 155.115 67.1986 155.861 66.8439C156.608 66.4893 157.224 65.948 157.709 65.22L159.193 66.228C158.615 67.18 157.821 67.908 156.813 68.4119C155.805 68.8973 154.676 69.14 153.425 69.14Z" fill="#004F88"/>
<path d="M175.676 62.252H163.356C163.468 63.7826 164.056 65.0239 165.12 65.976C166.184 66.9093 167.528 67.376 169.152 67.376C170.067 67.376 170.907 67.2173 171.672 66.8999C172.438 66.5639 173.1 66.0786 173.66 65.444L174.78 66.7319C174.127 67.5159 173.306 68.1133 172.316 68.5239C171.346 68.9346 170.272 69.14 169.096 69.14C167.584 69.14 166.24 68.8226 165.064 68.188C163.907 67.5346 163.002 66.6386 162.348 65.5C161.695 64.3613 161.368 63.0733 161.368 61.636C161.368 60.1986 161.676 58.9106 162.292 57.7719C162.927 56.6333 163.786 55.7466 164.868 55.1119C165.97 54.4773 167.202 54.16 168.564 54.16C169.927 54.16 171.15 54.4773 172.232 55.1119C173.315 55.7466 174.164 56.6333 174.78 57.7719C175.396 58.8919 175.704 60.18 175.704 61.636L175.676 62.252ZM168.564 55.868C167.146 55.868 165.951 56.3253 164.98 57.24C164.028 58.136 163.487 59.312 163.356 60.768H173.8C173.67 59.312 173.119 58.136 172.148 57.24C171.196 56.3253 170.002 55.868 168.564 55.868Z" fill="#004F88"/>
<path d="M191.844 54.2719V69H189.856V56.0359H182.8L182.604 59.676C182.455 62.7373 182.1 65.0893 181.54 66.7319C180.98 68.3746 179.982 69.196 178.544 69.196C178.152 69.196 177.676 69.1213 177.116 68.972L177.256 67.264C177.592 67.3386 177.826 67.376 177.956 67.376C178.722 67.376 179.3 67.0213 179.692 66.312C180.084 65.6026 180.346 64.7253 180.476 63.68C180.607 62.6346 180.719 61.2533 180.812 59.5359L181.064 54.2719H191.844Z" fill="#004F88"/>
<path d="M210.376 62.252H198.056C198.168 63.7826 198.756 65.0239 199.82 65.976C200.884 66.9093 202.228 67.376 203.852 67.376C204.766 67.376 205.606 67.2173 206.372 66.8999C207.137 66.5639 207.8 66.0786 208.36 65.444L209.48 66.7319C208.826 67.5159 208.005 68.1133 207.016 68.5239C206.045 68.9346 204.972 69.14 203.796 69.14C202.284 69.14 200.94 68.8226 199.764 68.188C198.606 67.5346 197.701 66.6386 197.048 65.5C196.394 64.3613 196.068 63.0733 196.068 61.636C196.068 60.1986 196.376 58.9106 196.992 57.7719C197.626 56.6333 198.485 55.7466 199.568 55.1119C200.669 54.4773 201.901 54.16 203.264 54.16C204.626 54.16 205.849 54.4773 206.932 55.1119C208.014 55.7466 208.864 56.6333 209.48 57.7719C210.096 58.8919 210.404 60.18 210.404 61.636L210.376 62.252ZM203.264 55.868C201.845 55.868 200.65 56.3253 199.68 57.24C198.728 58.136 198.186 59.312 198.056 60.768H208.5C208.369 59.312 207.818 58.136 206.848 57.24C205.896 56.3253 204.701 55.868 203.264 55.868Z" fill="#004F88"/>
<path d="M214.804 54.2719H216.792V65.976L226.62 54.2719H228.384V69H226.396V57.296L216.596 69H214.804V54.2719ZM221.496 52.144C220.227 52.144 219.219 51.8266 218.472 51.192C217.726 50.5573 217.343 49.6613 217.324 48.504H218.752C218.771 49.232 219.032 49.82 219.536 50.268C220.04 50.6973 220.694 50.912 221.496 50.912C222.299 50.912 222.952 50.6973 223.456 50.268C223.979 49.82 224.25 49.232 224.268 48.504H225.696C225.678 49.6613 225.286 50.5573 224.52 51.192C223.774 51.8266 222.766 52.144 221.496 52.144Z" fill="#004F88"/>
</svg>
