<svg width="279" height="274" viewBox="0 0 279 274" fill="none" xmlns="http://www.w3.org/2000/svg">
<path d="M134.5 205.469L134.828 205.092L134.5 205.469ZM2.01932 0.36054C2.09615 0.0953042 2.37345 -0.0574228 2.6387 0.0194143L6.96097 1.27156C7.22619 1.3484 7.37895 1.62571 7.3021 1.89094C7.22527 2.15618 6.94794 2.30891 6.68271 2.23207L2.84069 1.11905L1.72768 4.96108C1.65082 5.22632 1.37352 5.37904 1.1083 5.3022C0.843037 5.22537 0.690311 4.94806 0.767166 4.68282L2.01932 0.36054ZM278 273.469C277.864 273.95 277.863 273.95 277.863 273.95C277.862 273.95 277.861 273.949 277.859 273.949C277.856 273.948 277.852 273.947 277.846 273.945C277.834 273.942 277.816 273.937 277.793 273.93C277.746 273.917 277.675 273.897 277.583 273.87C277.398 273.817 277.123 273.738 276.762 273.633C276.041 273.423 274.977 273.109 273.607 272.696C270.868 271.87 266.903 270.644 261.999 269.046C252.193 265.851 238.629 261.165 223.603 255.206C193.566 243.293 157.623 226.268 134.171 205.846L134.828 205.092C158.144 225.395 193.951 242.37 223.972 254.276C238.974 260.226 252.517 264.905 262.309 268.095C267.205 269.691 271.163 270.914 273.896 271.739C275.263 272.151 276.323 272.463 277.042 272.673C277.401 272.777 277.675 272.856 277.858 272.909C277.95 272.935 278.02 272.955 278.066 272.968C278.089 272.975 278.107 272.979 278.118 272.983C278.124 272.984 278.128 272.986 278.131 272.986C278.132 272.987 278.134 272.987 278.134 272.987C278.135 272.988 278.135 272.988 278 273.469ZM134.171 205.846C124.934 197.803 112.06 180.941 97.9674 160.232C83.8634 139.506 68.5056 114.875 54.2988 91.2493C40.0915 67.6224 27.0324 44.9957 17.5253 28.276C12.7717 19.9161 8.90599 13.0326 6.22858 8.23906C4.88987 5.84226 3.84824 3.96791 3.14121 2.69266C2.78771 2.05504 2.51786 1.56719 2.33636 1.2387C2.24559 1.07445 2.17695 0.950046 2.13096 0.866678C2.10797 0.824993 2.09064 0.793568 2.07905 0.772552C2.07325 0.762045 2.0689 0.754138 2.06597 0.748854C2.06452 0.746212 2.06343 0.744218 2.06271 0.742894C2.06195 0.74156 2.06159 0.740881 2.49956 0.499668C2.93754 0.258456 2.9379 0.259097 2.93859 0.260397C2.93932 0.261709 2.9404 0.263665 2.94185 0.266283C2.94472 0.27152 2.94906 0.279376 2.95483 0.289835C2.96636 0.310753 2.98362 0.34208 3.00658 0.383664C3.05243 0.466835 3.12101 0.591039 3.21164 0.75508C3.39292 1.08316 3.66254 1.57059 4.0158 2.20778C4.72234 3.48216 5.76345 5.3556 7.10163 7.75142C9.77795 12.5431 13.6424 19.4243 18.3946 27.7817C27.8991 44.4968 40.9539 67.1161 55.1558 90.734C69.3583 114.353 84.7052 138.966 98.7942 159.67C112.895 180.39 125.702 197.145 134.828 205.092L134.171 205.846Z" fill="black"/>
</svg>
