<svg width="425" height="74" viewBox="0 0 425 74" fill="none" xmlns="http://www.w3.org/2000/svg">
<path d="M424.455 3.43106C424.571 3.18065 424.462 2.88328 424.212 2.76688L420.131 0.869946C419.881 0.753524 419.584 0.862171 419.467 1.11256C419.351 1.36297 419.459 1.66034 419.71 1.77674L423.337 3.46292L421.651 7.09015C421.534 7.34056 421.643 7.63793 421.893 7.75433C422.144 7.87074 422.441 7.76211 422.558 7.5117L424.455 3.43106ZM0.026363 27.1611C10.0066 56.5966 41.7125 69.6981 83.2972 72.932C124.922 76.169 176.68 69.5447 227.163 59.2881C277.654 49.0298 326.905 35.1303 363.532 23.7965C381.845 18.1294 397.004 13.1032 407.585 9.49366C412.876 7.68886 417.022 6.2382 419.846 5.23861C421.258 4.7388 422.339 4.35177 423.068 4.08963C423.432 3.95855 423.708 3.8587 423.893 3.79158C423.986 3.758 424.055 3.73263 424.102 3.71564C424.126 3.70713 424.143 3.70073 424.155 3.69643C424.161 3.69428 424.165 3.69266 424.168 3.69158C424.171 3.6905 424.173 3.68993 424.001 3.22029C423.83 2.75065 423.828 2.75116 423.825 2.75219C423.822 2.75325 423.818 2.75483 423.812 2.75695C423.801 2.76117 423.783 2.7675 423.76 2.77594C423.714 2.79281 423.644 2.81805 423.552 2.85147C423.368 2.91831 423.093 3.01789 422.729 3.14867C422.002 3.41027 420.922 3.79671 419.512 4.29592C416.692 5.29434 412.549 6.74374 407.262 8.54722C396.689 12.1542 381.539 17.1773 363.236 22.8412C326.628 34.1694 277.41 48.0588 226.963 58.3081C176.508 68.5591 124.859 75.1611 83.3748 71.935C41.8499 68.7058 10.7432 55.6548 0.973389 26.84L0.026363 27.1611Z" fill="black" fill-opacity="0.6"/>
</svg>
