<svg width="1920" height="6768" viewBox="0 0 1920 6768" fill="none" xmlns="http://www.w3.org/2000/svg">
<mask id="mask0_6_1244" style="mask-type:alpha" maskUnits="userSpaceOnUse" x="-1896" y="1578" width="6666" height="4491">
<path d="M4770 3135.41C4364.48 2601.08 3829.12 2179.25 3214.76 1909.96C2600.4 1640.67 1927.41 1532.86 1259.67 1596.75C591.927 1660.65 -48.4064 1894.13 -600.555 2275.04C-1152.7 2655.94 -1598.35 3171.64 -1895.19 3773.18L1634.59 5515.01L4770 3135.41Z" fill="url(#paint0_linear_6_1244)"/>
<path d="M-1867.98 2908.86C-1735.64 3566.47 -1437.45 4179.35 -1001.7 4689.33C-565.943 5199.31 -7.08794 5589.46 621.823 5822.76C1250.73 6056.06 1928.84 6124.77 2591.76 6022.36C3254.69 5919.95 3880.44 5649.82 4409.63 5237.61L1990.82 2132.35L-1867.98 2908.86Z" fill="url(#paint1_linear_6_1244)"/>
</mask>
<g mask="url(#mask0_6_1244)">
<rect x="-2692.18" y="1129.79" width="8830.68" height="6603.69" fill="url(#paint2_linear_6_1244)"/>
</g>
<defs>
<linearGradient id="paint0_linear_6_1244" x1="-952.606" y1="7621.14" x2="5318.22" y2="2861.95" gradientUnits="userSpaceOnUse">
<stop stop-color="#0968AC"/>
<stop offset="1" stop-color="#62B6F2"/>
</linearGradient>
<linearGradient id="paint1_linear_6_1244" x1="5237.03" y1="1363.24" x2="-2480.57" y2="2916.26" gradientUnits="userSpaceOnUse">
<stop stop-color="#0968AC"/>
<stop offset="1" stop-color="#62B6F2"/>
</linearGradient>
<linearGradient id="paint2_linear_6_1244" x1="-5135.16" y1="7924.05" x2="7072" y2="7924.05" gradientUnits="userSpaceOnUse">
<stop stop-color="#0968AC"/>
<stop offset="1" stop-color="#62B6F2"/>
</linearGradient>
</defs>
</svg>
