<svg width="785" height="445" viewBox="0 0 785 445" fill="none" xmlns="http://www.w3.org/2000/svg">
<path d="M691.943 6.32617H251.443V195.298H691.943V6.32617Z" fill="white" stroke="#263238" stroke-linecap="round" stroke-linejoin="round"/>
<path d="M703.93 1H239.473V8.98025H703.93V1Z" fill="white" stroke="#263238" stroke-linecap="round" stroke-linejoin="round"/>
<path d="M691.943 188.637H251.443V195.298H691.943V188.637Z" fill="#263238" stroke="#263238" stroke-linecap="round" stroke-linejoin="round"/>
<path d="M347.762 75.5851C350.575 59.1256 339.513 43.5018 323.054 40.6883C306.594 37.8749 290.97 48.9372 288.157 65.3967C285.343 81.8562 296.406 97.48 312.865 100.293C329.325 103.107 344.948 92.0446 347.762 75.5851Z" stroke="#263238" stroke-miterlimit="10"/>
<path d="M317.404 31.4707V117.233" stroke="#263238" stroke-miterlimit="10"/>
<path d="M277.82 71.0508H355.887" stroke="#263238" stroke-miterlimit="10"/>
<path d="M440.965 78.3984H519.031" stroke="#263238" stroke-miterlimit="10"/>
<path d="M479.449 37.7266V123.489" stroke="#263238" stroke-miterlimit="10"/>
<path d="M450.867 48.7168L462.721 57.9325C467.851 61.925 474.148 64.1273 480.648 64.2027C487.148 64.2781 493.494 62.2223 498.715 58.3498L510.252 49.8187" stroke="#263238" stroke-miterlimit="10"/>
<path d="M510.201 104.044L498.347 94.8283C493.212 90.8396 486.914 88.6399 480.412 88.5645C473.91 88.4891 467.562 90.5423 462.336 94.4109L450.816 102.942" stroke="#263238" stroke-miterlimit="10"/>
<path d="M619.502 36.8945V108.9" stroke="#263238" stroke-miterlimit="10"/>
<path d="M580.82 73.4219H653.911" stroke="#263238" stroke-miterlimit="10"/>
<path d="M585.512 70.5508V76.3941" stroke="#263238" stroke-miterlimit="10"/>
<path d="M589.75 70.5508V76.3941" stroke="#263238" stroke-miterlimit="10"/>
<path d="M594.01 70.5508V76.3941" stroke="#263238" stroke-miterlimit="10"/>
<path d="M598.25 70.5508V76.3941" stroke="#263238" stroke-miterlimit="10"/>
<path d="M602.506 70.5508V76.3941" stroke="#263238" stroke-miterlimit="10"/>
<path d="M606.748 70.5508V76.3941" stroke="#263238" stroke-miterlimit="10"/>
<path d="M610.988 70.5508V76.3941" stroke="#263238" stroke-miterlimit="10"/>
<path d="M615.246 70.5508V76.3941" stroke="#263238" stroke-miterlimit="10"/>
<path d="M623.725 70.5508V76.3941" stroke="#263238" stroke-miterlimit="10"/>
<path d="M627.984 70.5508V76.3941" stroke="#263238" stroke-miterlimit="10"/>
<path d="M632.225 70.5508V76.3941" stroke="#263238" stroke-miterlimit="10"/>
<path d="M636.48 70.5508V76.3941" stroke="#263238" stroke-miterlimit="10"/>
<path d="M640.723 70.5508V76.3941" stroke="#263238" stroke-miterlimit="10"/>
<path d="M644.963 70.5508V76.3941" stroke="#263238" stroke-miterlimit="10"/>
<path d="M649.223 70.5508V76.3941" stroke="#263238" stroke-miterlimit="10"/>
<path d="M616.58 105.326H622.423" stroke="#263238" stroke-miterlimit="10"/>
<path d="M616.58 101.072H622.423" stroke="#263238" stroke-miterlimit="10"/>
<path d="M616.58 96.832H622.423" stroke="#263238" stroke-miterlimit="10"/>
<path d="M616.58 92.5723H622.423" stroke="#263238" stroke-miterlimit="10"/>
<path d="M616.58 88.332H622.423" stroke="#263238" stroke-miterlimit="10"/>
<path d="M616.58 84.0898H622.423" stroke="#263238" stroke-miterlimit="10"/>
<path d="M616.58 79.832H622.423" stroke="#263238" stroke-miterlimit="10"/>
<path d="M616.58 67.0977H622.423" stroke="#263238" stroke-miterlimit="10"/>
<path d="M616.58 62.8555H622.423" stroke="#263238" stroke-miterlimit="10"/>
<path d="M616.58 58.5977H622.423" stroke="#263238" stroke-miterlimit="10"/>
<path d="M616.58 54.3574H622.423" stroke="#263238" stroke-miterlimit="10"/>
<path d="M616.58 50.1191H622.423" stroke="#263238" stroke-miterlimit="10"/>
<path d="M616.58 45.8574H622.423" stroke="#263238" stroke-miterlimit="10"/>
<path d="M616.58 41.6172H622.423" stroke="#263238" stroke-miterlimit="10"/>
<path d="M283.113 134.709H349.793" stroke="#263238" stroke-miterlimit="10"/>
<path d="M283.113 142.924H349.793" stroke="#263238" stroke-miterlimit="10"/>
<path d="M283.113 151.139H349.793" stroke="#263238" stroke-miterlimit="10"/>
<path d="M283.113 159.373H349.793" stroke="#263238" stroke-miterlimit="10"/>
<path d="M452.086 134.709H518.766" stroke="#263238" stroke-miterlimit="10"/>
<path d="M452.086 142.924H518.766" stroke="#263238" stroke-miterlimit="10"/>
<path d="M452.086 151.139H518.766" stroke="#263238" stroke-miterlimit="10"/>
<path d="M452.086 159.373H518.766" stroke="#263238" stroke-miterlimit="10"/>
<path d="M590.002 134.709H656.682" stroke="#263238" stroke-miterlimit="10"/>
<path d="M590.002 142.924H656.682" stroke="#263238" stroke-miterlimit="10"/>
<path d="M590.002 151.139H656.682" stroke="#263238" stroke-miterlimit="10"/>
<path d="M590.002 159.373H656.682" stroke="#263238" stroke-miterlimit="10"/>
<path d="M366.238 90.8711H432.902" stroke="#263238" stroke-miterlimit="10"/>
<path d="M366.238 99.082H432.902" stroke="#263238" stroke-miterlimit="10"/>
<path d="M366.238 107.297H432.902" stroke="#263238" stroke-miterlimit="10"/>
<path d="M366.238 115.529H432.902" stroke="#263238" stroke-miterlimit="10"/>
<path d="M516.025 29.666H582.689" stroke="#263238" stroke-miterlimit="10"/>
<path d="M516.025 37.8965H582.689" stroke="#263238" stroke-miterlimit="10"/>
<path d="M516.025 46.1113H582.689" stroke="#263238" stroke-miterlimit="10"/>
<path d="M516.025 54.3223H582.689" stroke="#263238" stroke-miterlimit="10"/>
<path d="M132.155 194.816H46.1582V267.056H132.155V194.816Z" fill="#263238" stroke="#263238" stroke-linecap="round" stroke-linejoin="round"/>
<path d="M184.344 276.238H98.3477V280.829H184.344V276.238Z" fill="#263238" stroke="#263238" stroke-linecap="round" stroke-linejoin="round"/>
<path d="M94.9096 246.988H78.2812V280.245H94.9096V246.988Z" fill="#707070" stroke="#263238" stroke-linecap="round" stroke-linejoin="round"/>
<path d="M265.768 287.391H36.4277V439.967H265.768V287.391Z" fill="#707070" stroke="#263238" stroke-linecap="round" stroke-linejoin="round"/>
<path d="M40.1849 288.492H32.4551V443.573H40.1849V288.492Z" fill="#707070" stroke="#263238" stroke-linecap="round" stroke-linejoin="round"/>
<path d="M268.888 288.492H261.158V443.573H268.888V288.492Z" fill="#707070" stroke="#263238" stroke-linecap="round" stroke-linejoin="round"/>
<path d="M279.758 279.244H25.9922V293.819H279.758V279.244Z" fill="#707070" stroke="#263238" stroke-linecap="round" stroke-linejoin="round"/>
<path d="M394.404 138.154C394.404 138.154 385.189 143.881 382.2 151.36C379.212 158.84 366.757 197.489 363.518 202.481C360.279 207.473 360.279 215.186 364.019 219.426C367.759 223.667 374.036 226.388 379.212 221.413C384.387 216.438 385.89 206.471 390.898 194.701C395.907 182.931 400.131 149.808 402.585 143.08C404.079 139.063 405.082 134.882 405.573 130.625L394.404 138.154Z" fill="white" stroke="#263238" stroke-linecap="round" stroke-linejoin="round"/>
<path d="M469.647 235.355C469.647 235.355 471.133 255.173 470.382 265.256C469.631 275.34 462.919 338.948 462.919 338.948L453.203 424.761H438.261L427.409 298.212L412.851 424.394H397.524C397.524 424.394 388.559 344.925 385.938 325.893C384.369 313.99 383.994 301.96 384.819 289.982C384.819 288.863 381.48 263.453 381.48 256.358C381.532 251.523 381.866 246.696 382.482 241.9L381.864 239.162C381.864 239.162 409.512 246.641 428.611 242.15C447.71 237.659 466.342 231.699 466.342 231.699L469.647 235.355Z" fill="#263238" stroke="#263238" stroke-linecap="round" stroke-linejoin="round"/>
<path d="M453.204 424.761L457.679 440.087C457.834 440.329 457.939 440.601 457.986 440.885C458.033 441.169 458.022 441.46 457.954 441.739C457.885 442.019 457.76 442.282 457.586 442.511C457.413 442.741 457.194 442.933 456.944 443.076C455.074 444.194 434.138 443.076 434.138 443.076C433.548 442.771 433.079 442.274 432.809 441.667C432.539 441.06 432.484 440.379 432.653 439.737C433.02 437.115 438.262 424.711 438.262 424.711L453.204 424.761Z" stroke="#263238" stroke-linecap="round" stroke-linejoin="round"/>
<path d="M412.851 424.395L414.203 438.368C414.285 439.238 414.054 440.108 413.552 440.822V440.822C413.217 441.289 412.776 441.668 412.265 441.93C411.754 442.191 411.188 442.327 410.614 442.325H381.648C378.71 442.325 373.033 442.225 373.584 439.337C373.952 437.467 397.492 424.445 397.492 424.445L412.851 424.395Z" stroke="#263238" stroke-linecap="round" stroke-linejoin="round"/>
<path d="M427.41 298.213L423.687 282.453L410.23 273.104" stroke="#6B6B6B" stroke-linecap="round" stroke-linejoin="round"/>
<path d="M389.177 157.336V186.469C389.177 188.138 380.212 226.537 379.461 230.31C378.709 234.083 379.461 237.539 382.449 241.763C385.437 245.987 396.657 250.244 421.065 252.231C445.473 254.218 463.671 245.252 468.646 239.526C473.621 233.8 467.895 222.831 466.158 207.388C464.422 191.945 463.904 143.062 456.943 139.89C449.981 136.718 427.543 125.949 427.543 125.949C427.543 125.949 414.838 125.949 406.373 129.689C400.813 132.354 395.884 136.173 391.915 140.891" fill="white"/>
<path d="M389.177 157.336V186.469C389.177 188.138 380.212 226.537 379.461 230.31C378.709 234.083 379.461 237.539 382.449 241.763C385.437 245.987 396.657 250.244 421.065 252.231C445.473 254.218 463.671 245.252 468.646 239.526C473.621 233.8 467.895 222.831 466.158 207.388C464.422 191.945 463.904 143.062 456.943 139.89C449.981 136.718 427.543 125.949 427.543 125.949C427.543 125.949 414.838 125.949 406.373 129.689C400.813 132.354 395.884 136.173 391.915 140.891" stroke="#263238" stroke-linecap="round" stroke-linejoin="round"/>
<path d="M426.041 120.961C427.432 120.845 428.823 121.168 430.021 121.883C431.219 122.599 432.162 123.672 432.719 124.951C434.472 129.442 428.979 156.588 428.979 156.588C428.979 156.588 416.775 147.873 413.787 147.873C410.798 147.873 397.092 156.588 397.092 156.588C397.092 156.588 401.583 137.906 405.573 130.677C409.563 123.448 420.515 119.475 425.006 120.66L426.041 120.961Z" fill="white" stroke="#263238" stroke-linecap="round" stroke-linejoin="round"/>
<path d="M427.042 118.471C427.042 118.471 428.043 120.958 423.552 132.929C419.061 144.899 416.874 155.1 414.086 152.345C411.298 149.59 408.109 135.166 408.109 135.166C408.109 135.166 422.551 124.698 427.042 118.471Z" fill="white" stroke="#263238" stroke-linecap="round" stroke-linejoin="round"/>
<path d="M386.975 99.1734C388.239 106.094 389.866 112.942 391.85 119.692C394.27 126.971 397.392 137.739 405.723 140.16C414.054 142.581 416.492 136.353 419.964 133.482C423.437 130.61 428.979 121.328 428.979 116.787C428.979 112.246 428.629 102.212 426.893 98.7393C425.156 95.2667 422.034 91.7941 413.019 90.0579C404.004 88.3216 395.656 89.7907 386.975 99.1734Z" fill="white" stroke="#263238" stroke-linecap="round" stroke-linejoin="round"/>
<path d="M426.209 108.539C426.209 108.539 421 110.626 419.614 107.504C418.229 104.382 415.791 99.8573 415.791 99.8573C415.791 99.8573 405.023 104.382 398.445 104.665C391.867 104.949 384.555 100.859 383.519 96.3179C382.484 91.7768 386.291 81.7431 394.972 76.2838C403.654 70.8245 421.684 68.2868 427.244 76.9683C431.459 83.5886 433.523 91.3501 433.154 99.1895C433.154 105.083 432.803 109.207 432.803 109.207C431.815 108.631 430.716 108.274 429.578 108.159C428.441 108.044 427.292 108.173 426.209 108.539V108.539Z" fill="#263238" stroke="#263238" stroke-linecap="round" stroke-linejoin="round"/>
<path d="M424.121 110.974C424.121 110.974 427.243 102.977 430.365 104.029C433.487 105.081 433.838 111.325 432.035 115.131C430.231 118.938 425.791 120.34 424.756 119.656" fill="white"/>
<path d="M424.121 110.974C424.121 110.974 427.243 102.977 430.365 104.029C433.487 105.081 433.838 111.325 432.035 115.131C430.231 118.938 425.791 120.34 424.756 119.656" stroke="#263238" stroke-linecap="round" stroke-linejoin="round"/>
<path d="M400.781 115.2C400.781 115.2 413.336 114.316 415.991 114.666C418.645 115.017 418.278 118.005 417.577 121.344C416.875 124.683 412.802 126.653 408.027 125.768C403.252 124.884 402.184 120.76 401.349 120.109C400.514 119.458 400.114 118.69 399.062 119.224C398.01 119.758 398.177 123.464 396.942 125.051C395.706 126.637 392.334 127.889 388.594 125.935C384.854 123.982 385.055 118.339 385.055 116.386C385.055 114.432 386.991 114.616 387.876 114.716C388.761 114.816 400.781 115.2 400.781 115.2Z" stroke="#263238" stroke-linecap="round" stroke-linejoin="round"/>
<path d="M417.76 115.385L425.54 107.422" stroke="#263238" stroke-linecap="round" stroke-linejoin="round"/>
<path d="M385.922 114.665L388.927 110.959" stroke="#263238" stroke-linecap="round" stroke-linejoin="round"/>
<path d="M398.827 121.211C398.827 121.211 398.126 123.331 397.759 125.101C397.391 126.871 398.827 130.41 400.947 130.109C403.068 129.809 403.602 128.69 403.602 128.69" stroke="#263238" stroke-linecap="round" stroke-linejoin="round"/>
<path d="M413.37 112.731C410.983 111.991 408.412 112.115 406.107 113.081" stroke="#263238" stroke-linecap="round" stroke-linejoin="round"/>
<path d="M397.056 113.432C396.265 112.782 395.281 112.411 394.258 112.377C393.234 112.344 392.228 112.651 391.396 113.249" stroke="#263238" stroke-linecap="round" stroke-linejoin="round"/>
<path d="M449.715 136.904C449.715 136.904 460.433 140.143 465.158 144.133C469.882 148.123 477.512 179.46 479.749 194.402C481.986 209.344 485.475 222.266 482.487 224.019C479.499 225.772 432.769 219.662 432.769 219.662L431.283 212.45L461.735 206.105C461.735 206.105 444.723 172.715 444.239 163.566C443.787 158.664 444.466 153.723 446.225 149.125" fill="white"/>
<path d="M449.715 136.904C449.715 136.904 460.433 140.143 465.158 144.133C469.882 148.123 477.512 179.46 479.749 194.402C481.986 209.344 485.475 222.266 482.487 224.019C479.499 225.772 432.769 219.662 432.769 219.662L431.283 212.45L461.735 206.105C461.735 206.105 444.723 172.715 444.239 163.566C443.787 158.664 444.466 153.723 446.225 149.125" stroke="#263238" stroke-linecap="round" stroke-linejoin="round"/>
<path d="M399.895 195.25L413.085 227.639L390.68 235.852L376.723 204.466L399.895 195.25Z" fill="#F59C04" stroke="#263238" stroke-linecap="round" stroke-linejoin="round"/>
<path d="M376.721 204.469L360.777 192.766L374.968 225.655L390.678 235.856L376.721 204.469Z" fill="#F59C04" stroke="#263238" stroke-linecap="round" stroke-linejoin="round"/>
<path d="M431.283 212.452C431.283 212.452 413.335 207.444 411.349 205.974C409.362 204.505 392.667 211.2 391.665 211.2C390.663 211.2 390.914 212.452 391.915 212.953C392.917 213.454 403.869 210.449 403.869 210.449C403.869 210.449 393.418 215.941 393.418 217.127C393.431 217.511 393.526 217.889 393.696 218.234C393.865 218.579 394.107 218.885 394.403 219.13C394.403 219.13 394.653 221.367 395.906 221.868C397.158 222.369 409.846 219.865 409.846 219.865C409.846 219.865 399.829 223.604 401.131 224.356C401.731 224.725 402.422 224.92 403.126 224.92C403.831 224.92 404.521 224.725 405.121 224.356C406.607 223.604 415.589 220.866 415.589 220.866C415.589 220.866 422.267 222.853 426.04 221.868C428.309 221.251 430.539 220.498 432.718 219.614L431.283 212.452Z" fill="white" stroke="#263238" stroke-linecap="round" stroke-linejoin="round"/>
<path d="M394.402 219.177L406.857 215.688" stroke="#263238" stroke-linecap="round" stroke-linejoin="round"/>
<path d="M363.517 202.481C363.517 202.481 371.982 208.708 373.534 210.695C373.968 211.254 374.281 211.898 374.453 212.585C374.626 213.271 374.654 213.986 374.536 214.685L369.043 212.448C369.043 212.448 376.022 218.675 376.272 219.66C376.523 220.645 379.01 224.902 376.022 224.401C373.034 223.9 364.068 219.176 362.315 216.671C360.562 214.167 360.078 202.481 360.078 202.481C360.078 202.481 360.779 199.993 363.517 202.481Z" fill="white" stroke="#263238" stroke-linecap="round" stroke-linejoin="round"/>
<path d="M376.221 221.164L366.254 215.188" stroke="#263238" stroke-linecap="round" stroke-linejoin="round"/>
<path d="M377.224 223.402C377.224 223.402 368.259 219.428 366.506 217.926" stroke="#263238" stroke-linecap="round" stroke-linejoin="round"/>
<path d="M368.992 212.451L366.004 210.447" stroke="#263238" stroke-linecap="round" stroke-linejoin="round"/>
<path d="M430.478 302.432H423.533V443.572H430.478V302.432Z" fill="white" stroke="#263238" stroke-linecap="round" stroke-linejoin="round"/>
<path d="M747.519 302.432H740.574V443.572H747.519V302.432Z" fill="white" stroke="#263238" stroke-linecap="round" stroke-linejoin="round"/>
<path d="M757.286 294.102H417.725V307.207H757.286V294.102Z" fill="white" stroke="#263238" stroke-linecap="round" stroke-linejoin="round"/>
<path d="M74.5057 302.432H67.5605V443.572H74.5057V302.432Z" fill="white" stroke="#263238" stroke-linecap="round" stroke-linejoin="round"/>
<path d="M391.529 302.432H384.584V443.572H391.529V302.432Z" fill="white" stroke="#263238" stroke-linecap="round" stroke-linejoin="round"/>
<path d="M401.314 294.102H61.752V307.207H401.314V294.102Z" fill="white" stroke="#263238" stroke-linecap="round" stroke-linejoin="round"/>
<path d="M645.096 327.18L661.056 429.437L669.604 429.971L671.624 329.684L645.096 327.18Z" fill="#707070" stroke="#263238" stroke-linecap="round" stroke-linejoin="round"/>
<path d="M661.057 429.436V440.822C661.059 441.276 661.232 441.714 661.541 442.048C661.85 442.381 662.273 442.587 662.726 442.625L668.987 442.975C669.25 442.989 669.513 442.946 669.757 442.847C670.002 442.749 670.222 442.598 670.402 442.405C670.581 442.213 670.717 441.983 670.798 441.733C670.88 441.482 670.905 441.217 670.873 440.955L669.605 429.97L661.057 429.436Z" fill="white" stroke="#263238" stroke-linecap="round" stroke-linejoin="round"/>
<path d="M707.453 327.428L689.739 429.335L681.174 429.669L680.891 329.364L707.453 327.428Z" fill="#707070" stroke="#263238" stroke-linecap="round" stroke-linejoin="round"/>
<path d="M689.737 429.334L689.537 440.703C689.528 441.167 689.341 441.61 689.015 441.94C688.688 442.269 688.247 442.46 687.784 442.473L681.506 442.69C681.244 442.697 680.983 442.648 680.743 442.544C680.502 442.44 680.286 442.285 680.111 442.09C679.937 441.894 679.806 441.663 679.73 441.412C679.654 441.161 679.633 440.896 679.67 440.637L681.172 429.668L689.737 429.334Z" fill="white" stroke="#263238" stroke-linecap="round" stroke-linejoin="round"/>
<path d="M640.054 228.361C640.054 228.361 613.342 280.116 612.607 284.524C611.873 288.931 616.247 295.459 623.893 294.724C631.54 293.99 651.457 293.639 651.457 293.639L651.824 286.711L628.868 283.806L642.709 272.87L640.054 228.361Z" fill="#F59C04" stroke="#263238" stroke-linecap="round" stroke-linejoin="round"/>
<path d="M628.868 283.803L626.08 289.262" stroke="#263238" stroke-linecap="round" stroke-linejoin="round"/>
<path d="M711.592 229.479C711.592 229.479 738.805 280.148 739.539 284.572C740.274 288.997 735.9 295.508 728.253 294.773C720.607 294.038 702.727 293.688 702.727 293.688L702.359 286.643L714.781 283.738L706.082 272.669L711.592 229.479Z" fill="#F59C04" stroke="#263238" stroke-linecap="round" stroke-linejoin="round"/>
<path d="M714.779 283.803L726.065 289.262" stroke="#263238" stroke-linecap="round" stroke-linejoin="round"/>
<path d="M665.463 214.718L647.934 224.001C639.169 228.642 640.588 226.038 640.07 228.358C639.553 230.679 643.025 311.116 643.025 311.116C643.025 311.116 649.703 317.627 667.266 319.363C693.545 321.934 704.88 313.687 704.88 313.687C704.88 313.687 711.559 232.315 711.559 229.477C711.559 226.639 700.707 221.129 693.762 217.79C686.816 214.451 679.103 211.63 665.463 214.718Z" fill="#F59C04" stroke="#263238" stroke-linecap="round" stroke-linejoin="round"/>
<path d="M674.814 159.76C674.814 159.76 663.444 164.768 659.788 172.932C656.132 181.096 662.059 200.195 660.69 205.187C659.321 210.179 652.977 209.728 652.977 209.728C652.977 209.728 655.698 225.188 671.141 227.008C686.584 228.827 693.412 226.54 699.773 219.728C706.134 212.917 704.781 212.917 704.781 212.917C704.781 212.917 702.06 212.917 700.691 205.187C699.322 197.457 701.142 175.653 694.33 166.12C687.519 156.588 677.151 156.955 674.814 159.76Z" fill="#263238" stroke="#263238" stroke-linecap="round" stroke-linejoin="round"/>
<path d="M643.009 311.119C643.009 311.119 640.705 336.88 641.473 340.235C642.241 343.591 650.238 349 666.516 349.518C682.794 350.035 703.111 350.803 708.02 344.877C712.928 338.95 704.915 313.69 704.915 313.69C704.915 313.69 661.574 317.296 643.009 311.119Z" fill="#707070" stroke="#263238" stroke-linecap="round" stroke-linejoin="round"/>
<path d="M675.631 214.236C675.631 214.236 676.015 211.564 683.978 213.852" stroke="#263238" stroke-linecap="round" stroke-linejoin="round"/>
<path d="M642.641 442.026C642.402 442.009 642.17 441.945 641.956 441.837C641.743 441.729 641.553 441.58 641.397 441.399C641.242 441.217 641.124 441.006 641.051 440.778C640.978 440.551 640.951 440.311 640.971 440.072L646.264 342.623L652.341 343.107L644.561 440.373C644.523 440.845 644.3 441.284 643.94 441.593C643.581 441.903 643.114 442.058 642.641 442.026V442.026Z" fill="#263238" stroke="#263238" stroke-linecap="round" stroke-linejoin="round"/>
<path d="M708.169 442.026C708.649 441.987 709.094 441.76 709.407 441.394C709.72 441.028 709.875 440.553 709.838 440.072L704.546 342.623L698.469 343.107L706.232 440.373C706.275 440.847 706.501 441.285 706.863 441.594C707.225 441.903 707.694 442.058 708.169 442.026V442.026Z" fill="#263238" stroke="#263238" stroke-linecap="round" stroke-linejoin="round"/>
<path d="M714.398 265.906C700.8 267.868 687.083 268.878 673.344 268.927C660.491 268.785 647.663 267.776 634.946 265.906C634.463 265.829 633.969 265.867 633.503 266.018C633.038 266.168 632.615 266.427 632.268 266.772C631.922 267.117 631.661 267.538 631.509 268.003C631.356 268.468 631.315 268.962 631.39 269.445C633.36 281.766 638.953 317.21 638.953 323.988C638.953 332.235 636.114 339.982 636.114 343.588C636.114 347.194 637.667 350.032 640.238 351.051C641.44 351.535 654.946 351.568 673.211 351.468C694.347 351.568 707.87 351.468 709.055 351.051C711.626 350.032 713.179 347.194 713.179 343.588C713.179 339.982 710.341 332.235 710.341 323.988C710.341 317.21 715.934 281.749 717.92 269.445C717.997 268.964 717.959 268.472 717.81 268.009C717.66 267.545 717.403 267.124 717.06 266.779C716.716 266.434 716.296 266.175 715.833 266.023C715.371 265.871 714.879 265.831 714.398 265.906ZM701.175 341.418C700.257 341.768 689.839 341.802 673.545 341.718C659.471 341.802 649.053 341.718 648.135 341.418C647.09 340.899 646.228 340.075 645.661 339.056C645.095 338.036 644.851 336.869 644.963 335.708C644.963 332.953 647.133 327.043 647.133 320.682C647.133 319.213 646.783 315.941 646.248 311.8L651.407 317.393C652.114 318.151 652.97 318.756 653.92 319.17C654.871 319.583 655.896 319.797 656.933 319.797H692.327C694.291 319.798 696.179 319.032 697.586 317.66L702.978 312.401C702.477 316.258 702.16 319.28 702.16 320.749C702.16 327.043 704.347 332.953 704.347 335.775C704.445 336.925 704.195 338.078 703.629 339.084C703.063 340.09 702.208 340.903 701.175 341.418ZM708.003 279.128C707.135 284.471 705.366 295.506 703.997 304.989L698.855 308.178C695.972 309.93 692.662 310.854 689.288 310.849H660.456C657.18 310.849 653.963 309.973 651.14 308.311L645.28 304.872C643.928 295.406 642.175 284.437 641.307 279.128C641.252 278.757 641.286 278.379 641.405 278.024C641.523 277.668 641.724 277.346 641.991 277.083C642.257 276.819 642.582 276.622 642.939 276.508C643.296 276.393 643.675 276.365 644.045 276.424C653.849 277.853 663.738 278.623 673.645 278.727C684.259 278.698 694.859 277.928 705.366 276.424C705.729 276.378 706.097 276.418 706.443 276.539C706.788 276.66 707.101 276.859 707.356 277.121C707.612 277.383 707.803 277.7 707.915 278.049C708.028 278.397 708.058 278.766 708.003 279.128V279.128Z" fill="#263238" stroke="#263238" stroke-linecap="round" stroke-linejoin="round"/>
<path d="M512.336 235.755V221.848H532.186V236.79L512.336 235.755Z" fill="white" stroke="#263238" stroke-linecap="round" stroke-linejoin="round"/>
<path d="M502.553 204.067C502.553 204.067 499.447 203.283 499.447 208.191C499.447 213.099 503.521 216.522 505.19 216.171C506.86 215.821 504.422 206.638 504.155 204.835C503.888 203.032 502.553 204.067 502.553 204.067Z" fill="white" stroke="#263238" stroke-linecap="round" stroke-linejoin="round"/>
<path d="M541.218 204.067C541.218 204.067 544.307 203.283 544.307 208.191C544.307 213.099 540.25 216.522 538.58 216.171C536.911 215.821 539.348 206.638 539.599 204.835C539.849 203.032 541.218 204.067 541.218 204.067Z" fill="white" stroke="#263238" stroke-linecap="round" stroke-linejoin="round"/>
<path d="M541.287 184.651C541.287 184.651 543.224 183.683 541.053 179.075C540.474 177.77 539.606 176.613 538.516 175.691C537.426 174.768 536.142 174.104 534.759 173.749C534.759 173.749 536.429 172.781 536.429 171.812C536.429 170.844 534.258 170.61 527.714 172.547C525.942 172.93 524.34 173.869 523.139 175.226C521.938 176.583 521.201 178.288 521.036 180.093C520.913 180.022 520.785 179.96 520.652 179.909C519.066 179.141 512.922 176.403 509.984 177.873C506.645 179.542 510.468 179.075 510.468 179.075C506.616 179.703 503.152 181.782 500.785 184.885C497.162 189.893 499.816 190.461 500.551 190.461C501.285 190.461 502.003 188.274 502.003 188.274V192.882C502.003 192.882 502.087 193.282 502.237 193.917C501.219 200.745 503.022 208.475 504.023 213.333C505.309 219.527 510.468 225.454 514.341 226.689C518.214 227.925 530.051 226.689 530.051 226.689C533.003 223.718 535.521 220.346 537.531 216.672C539.681 212.129 540.82 207.173 540.87 202.147C542.188 199.388 542.965 196.401 543.157 193.349C543.708 187.072 541.287 184.651 541.287 184.651Z" fill="#263238" stroke="#263238" stroke-linecap="round" stroke-linejoin="round"/>
<path d="M535.026 210.863C535.026 210.863 524.091 204.969 513.322 209.577C507.095 212.232 502.504 218.843 502.504 218.843C507.925 217.224 513.542 216.359 519.199 216.272C526.177 216.428 533.142 216.94 540.068 217.808C538.83 215.201 537.121 212.847 535.026 210.863Z" fill="#F59C04" stroke="#263238" stroke-linecap="round" stroke-linejoin="round"/>
<path d="M478.579 235.334C478.579 235.334 450.197 280.144 449.463 284.518C448.728 288.892 453.102 295.453 460.749 294.718C468.395 293.984 496.81 293.633 496.81 293.633L497.177 286.705L474.238 283.8L488.078 272.865L478.579 235.334Z" fill="#F59C04" stroke="#263238" stroke-linecap="round" stroke-linejoin="round"/>
<path d="M474.238 283.805L462.936 289.264" stroke="#263238" stroke-linecap="round" stroke-linejoin="round"/>
<path d="M565.944 233.535C565.944 233.535 594.71 280.148 595.427 284.522C596.145 288.896 591.788 295.457 584.142 294.723C576.495 293.988 548.08 293.638 548.08 293.638L547.713 286.709L570.669 283.804L556.828 272.869L565.944 233.535Z" fill="#F59C04" stroke="#263238" stroke-linecap="round" stroke-linejoin="round"/>
<path d="M570.67 283.805L581.956 289.264" stroke="#263238" stroke-linecap="round" stroke-linejoin="round"/>
<path d="M510.799 214.72L493.269 224.003C484.504 228.644 479.095 233.018 478.577 235.339C478.06 237.659 488.377 311.118 488.377 311.118C488.377 311.118 495.055 317.629 512.602 319.365C538.88 321.936 550.216 313.689 550.216 313.689C550.216 313.689 565.943 236.374 565.943 233.552C565.943 230.731 546.092 221.181 539.147 217.825C532.202 214.47 524.456 211.632 510.799 214.72Z" fill="#F59C04" stroke="#263238" stroke-linecap="round" stroke-linejoin="round"/>
<path d="M473.42 332.502L504.089 430.519L512.603 429.484L499.965 330.182L473.42 332.502Z" fill="white" stroke="#263238" stroke-linecap="round" stroke-linejoin="round"/>
<path d="M504.09 430.519L506.11 441.722C506.192 442.177 506.445 442.583 506.818 442.857C507.191 443.13 507.655 443.25 508.113 443.191L514.341 442.39C514.602 442.357 514.854 442.268 515.077 442.128C515.3 441.989 515.49 441.801 515.634 441.58C515.777 441.359 515.87 441.109 515.906 440.848C515.942 440.587 515.921 440.321 515.843 440.069L512.604 429.484L504.09 430.519Z" fill="white" stroke="#263238" stroke-linecap="round" stroke-linejoin="round"/>
<path d="M567.98 332.502L537.311 430.519L528.797 429.484L541.435 330.182L567.98 332.502Z" fill="white" stroke="#263238" stroke-linecap="round" stroke-linejoin="round"/>
<path d="M537.311 430.519L535.241 441.722C535.159 442.177 534.906 442.583 534.533 442.857C534.16 443.13 533.696 443.25 533.238 443.191L527.01 442.39C526.749 442.357 526.497 442.268 526.274 442.128C526.051 441.989 525.861 441.801 525.717 441.58C525.574 441.359 525.481 441.109 525.445 440.848C525.409 440.587 525.43 440.321 525.508 440.069L528.747 429.484L537.311 430.519Z" fill="white" stroke="#263238" stroke-linecap="round" stroke-linejoin="round"/>
<path d="M514.657 320.901C514.657 320.901 486.575 312.136 481.417 314.724C476.258 317.312 471.099 323.99 472.902 331.419C474.705 338.848 490.182 347.914 493.521 348.114C496.86 348.315 514.924 348.114 514.924 348.114L514.657 320.901Z" fill="white" stroke="#263238" stroke-linecap="round" stroke-linejoin="round"/>
<path d="M528.463 320.901C528.463 320.901 556.561 312.136 561.72 314.724C566.879 317.312 572.021 323.99 570.218 331.419C568.415 338.848 552.955 347.914 549.599 348.114C546.244 348.315 528.213 348.114 528.213 348.114L528.463 320.901Z" fill="white" stroke="#263238" stroke-linecap="round" stroke-linejoin="round"/>
<path d="M488.378 311.117C488.378 311.117 486.058 336.878 486.826 340.233C487.594 343.589 495.591 348.998 511.868 349.516C528.146 350.033 548.464 350.801 553.372 344.875C558.281 338.948 550.267 313.688 550.267 313.688C550.267 313.688 506.86 317.294 488.378 311.117Z" fill="white" stroke="#263238" stroke-linecap="round" stroke-linejoin="round"/>
<path d="M487.995 442.022C487.515 441.983 487.07 441.756 486.757 441.39C486.444 441.024 486.289 440.549 486.326 440.068L491.618 342.619L497.695 343.103L489.932 440.369C489.889 440.843 489.663 441.281 489.301 441.59C488.939 441.899 488.47 442.054 487.995 442.022V442.022Z" fill="#263238" stroke="#263238" stroke-linecap="round" stroke-linejoin="round"/>
<path d="M553.606 442.022C554.086 441.983 554.532 441.756 554.845 441.39C555.157 441.024 555.312 440.549 555.276 440.068L549.983 342.619L543.906 343.103L551.669 440.369C551.712 440.843 551.939 441.281 552.301 441.59C552.663 441.899 553.131 442.054 553.606 442.022V442.022Z" fill="#263238" stroke="#263238" stroke-linecap="round" stroke-linejoin="round"/>
<path d="M559.685 265.906C546.088 267.868 532.37 268.878 518.632 268.927C505.779 268.784 492.95 267.774 480.233 265.906C479.75 265.829 479.256 265.867 478.79 266.018C478.325 266.168 477.902 266.427 477.555 266.772C477.209 267.117 476.948 267.538 476.796 268.003C476.643 268.468 476.602 268.962 476.677 269.445C478.664 281.766 484.256 317.21 484.256 323.988C484.256 332.235 481.418 339.982 481.418 343.588C481.418 347.194 482.954 350.032 485.542 351.051C486.727 351.535 500.234 351.568 518.498 351.468C539.651 351.568 553.157 351.468 554.342 351.051C556.93 350.032 558.466 347.194 558.466 343.588C558.466 339.982 555.645 332.235 555.645 323.988C555.645 317.21 561.237 281.749 563.207 269.445C563.284 268.964 563.246 268.472 563.097 268.009C562.947 267.545 562.69 267.124 562.347 266.779C562.003 266.434 561.583 266.175 561.12 266.023C560.658 265.871 560.166 265.831 559.685 265.906ZM546.462 341.418C545.544 341.768 535.126 341.802 518.832 341.718C504.758 341.802 494.34 341.718 493.422 341.418C492.377 340.899 491.515 340.075 490.948 339.056C490.382 338.036 490.138 336.869 490.25 335.708C490.25 332.953 492.437 327.043 492.437 320.682C492.437 319.213 492.086 315.941 491.535 311.8L496.711 317.393C497.416 318.154 498.271 318.76 499.222 319.174C500.173 319.587 501.2 319.8 502.237 319.797H537.631C539.594 319.793 541.48 319.027 542.889 317.66L548.265 312.401C547.781 316.258 547.464 319.28 547.464 320.749C547.464 327.043 549.634 332.953 549.634 335.775C549.732 336.925 549.482 338.078 548.916 339.084C548.35 340.09 547.496 340.903 546.462 341.418V341.418ZM553.291 279.128C552.422 284.471 550.653 295.506 549.3 304.989L544.058 308.178C541.18 309.927 537.876 310.851 534.509 310.849H505.76C502.478 310.852 499.255 309.976 496.427 308.311L490.584 304.872C489.215 295.406 487.462 284.437 486.594 279.128C486.539 278.757 486.573 278.379 486.692 278.024C486.811 277.668 487.011 277.346 487.278 277.083C487.545 276.819 487.869 276.622 488.226 276.508C488.583 276.393 488.962 276.365 489.332 276.424C499.136 277.853 509.025 278.623 518.932 278.727C529.519 278.695 540.09 277.925 550.569 276.424C550.939 276.364 551.317 276.392 551.673 276.507C552.03 276.621 552.354 276.818 552.619 277.082C552.885 277.346 553.084 277.669 553.201 278.025C553.317 278.38 553.348 278.758 553.291 279.128V279.128Z" fill="#263238" stroke="#263238" stroke-linecap="round" stroke-linejoin="round"/>
<path d="M492.469 266.391L502.369 303.27L510.082 302.168L501.818 268.043L492.469 266.391Z" fill="#757575" stroke="#263238" stroke-linecap="round" stroke-linejoin="round"/>
<path d="M531.553 301.065L538.715 268.042L548.632 266.924L539.266 303.269L531.553 301.065Z" fill="#757575" stroke="#263238" stroke-linecap="round" stroke-linejoin="round"/>
<path d="M483.185 326.492L496.324 353.922V366.043L482 336.309L483.185 326.492Z" fill="#757575" stroke="#263238" stroke-linecap="round" stroke-linejoin="round"/>
<path d="M556.898 326.492L543.775 353.922V366.043L558.083 336.309L556.898 326.492Z" fill="#757575" stroke="#263238" stroke-linecap="round" stroke-linejoin="round"/>
<path d="M533.991 293.923C533.991 293.923 510.317 292.253 503.155 294.473C495.993 296.694 492.153 302.17 492.704 310.985C493.255 319.8 488.297 353.925 488.848 362.74C489.398 371.555 492.704 377.064 507.012 379.819C521.319 382.573 536.195 381.488 544.459 378.149C552.723 374.81 556.663 362.222 551.604 348.966C546.546 335.71 547.815 315.326 545.611 305.425C543.407 295.525 537.848 294.473 533.991 293.923Z" fill="#F59C04" stroke="#263238" stroke-linecap="round" stroke-linejoin="round"/>
<path d="M547.344 360.301C547.344 360.501 546.96 365.76 546.91 365.96C543.037 380.669 522.285 378.331 510.782 376.412C505.056 375.46 496.475 372.572 494.254 366.395C491.833 359.716 494.972 351.369 496.174 344.607C496.909 340.417 497.326 327.578 502.067 325.441C506.809 323.304 535.591 320.216 539.949 328.914C544.824 338.697 545.608 348.982 547.344 360.301Z" fill="#F59C04" stroke="#263238" stroke-linecap="round" stroke-linejoin="round"/>
<path d="M525.577 304.119H514.691V310.213H525.577V304.119Z" fill="#263238" stroke="#263238" stroke-linecap="round" stroke-linejoin="round"/>
<path d="M497.712 345.072H544.742C544.85 346.782 544.336 348.474 543.297 349.836C542.257 351.198 540.76 352.138 539.082 352.485C532.054 353.987 524.307 353.704 517.178 353.72C510.784 353.704 496.977 354.655 497.712 345.072Z" fill="#263238" stroke="#263238" stroke-linecap="round" stroke-linejoin="round"/>
<path d="M289.107 327.781L305.068 430.055L313.616 430.573L315.636 330.302L289.107 327.781Z" fill="#F59C04" stroke="#263238" stroke-linecap="round" stroke-linejoin="round"/>
<path d="M305.068 430.053V441.422C305.067 441.88 305.238 442.321 305.547 442.659C305.857 442.996 306.282 443.204 306.738 443.242L313.015 443.576C313.278 443.587 313.539 443.541 313.782 443.442C314.025 443.342 314.244 443.192 314.423 443C314.602 442.808 314.738 442.579 314.821 442.33C314.903 442.081 314.931 441.817 314.902 441.556L313.633 430.57L305.068 430.053Z" fill="white" stroke="#263238" stroke-linecap="round" stroke-linejoin="round"/>
<path d="M351.481 328.029L333.751 429.936L325.203 430.27L324.902 329.983L351.481 328.029Z" fill="#F59C04" stroke="#263238" stroke-linecap="round" stroke-linejoin="round"/>
<path d="M333.748 429.936L333.548 441.305C333.541 441.757 333.366 442.19 333.058 442.52C332.749 442.851 332.329 443.054 331.878 443.091L325.601 443.292C325.338 443.299 325.077 443.249 324.835 443.145C324.594 443.042 324.377 442.887 324.201 442.692C324.025 442.497 323.893 442.266 323.815 442.015C323.737 441.764 323.714 441.499 323.748 441.238L325.25 430.269L333.748 429.936Z" fill="white" stroke="#263238" stroke-linecap="round" stroke-linejoin="round"/>
<path d="M284.081 228.957C284.081 228.957 257.369 280.712 256.618 285.119C255.867 289.527 260.274 296.055 267.921 295.32C275.567 294.585 295.467 294.235 295.467 294.235L295.835 287.306L272.896 284.401L286.736 273.466L284.081 228.957Z" fill="white" stroke="#263238" stroke-linecap="round" stroke-linejoin="round"/>
<path d="M272.895 284.404L270.107 289.864" stroke="#263238" stroke-linecap="round" stroke-linejoin="round"/>
<path d="M355.92 227.842C355.92 227.842 382.832 280.765 383.55 285.123C384.268 289.48 379.91 296.058 372.264 295.323C364.618 294.589 346.754 294.238 346.754 294.238L346.387 287.31L358.791 284.405L350.961 273.536L355.92 227.842Z" fill="white" stroke="#263238" stroke-linecap="round" stroke-linejoin="round"/>
<path d="M358.793 284.404L370.079 289.864" stroke="#263238" stroke-linecap="round" stroke-linejoin="round"/>
<path d="M309.457 215.337L291.928 224.602C283.163 229.244 284.582 226.639 284.081 228.96C283.58 231.28 287.036 311.684 287.036 311.684C287.036 311.684 293.714 318.212 311.26 319.931C337.555 322.502 348.891 314.255 348.891 314.255C348.891 314.255 355.569 232.883 355.569 230.045C355.569 227.207 344.717 221.697 337.756 218.358C330.794 215.019 323.114 212.231 309.457 215.337Z" fill="white" stroke="#263238" stroke-linecap="round" stroke-linejoin="round"/>
<path d="M287.037 311.684C287.037 311.684 284.716 337.461 285.484 340.8C286.252 344.139 294.249 349.565 310.527 350.082C326.804 350.6 347.122 351.368 352.014 345.441C356.906 339.514 348.925 314.255 348.925 314.255C348.925 314.255 305.585 317.894 287.037 311.684Z" fill="#F59C04" stroke="#263238" stroke-linecap="round" stroke-linejoin="round"/>
<path d="M321.546 164.868C321.546 164.868 313.199 159.86 304.384 169.443C295.569 179.026 304.768 198.058 305.903 202.633C307.038 207.207 290.66 233.218 290.66 244.905C290.66 256.591 304.851 268.278 327.289 265.957C349.727 263.636 352.465 251.833 349.41 237.726C346.355 223.618 342.916 208.726 342.916 202.666C342.916 196.606 348.258 182.832 343.3 169.476C338.341 156.12 326.137 159.91 321.546 164.868Z" fill="#263238" stroke="#263238" stroke-linecap="round" stroke-linejoin="round"/>
<path d="M309.356 204.92L319.657 214.837C319.657 214.837 308.972 240.397 307.82 247.259C306.668 254.121 312.829 260.615 321.176 259.847C329.524 259.079 334.916 251.833 334.533 245.74C334.149 239.646 328.038 214.453 328.038 214.453C333.311 211.7 337.78 207.627 341.01 202.633" stroke="#808080" stroke-linecap="round" stroke-linejoin="round"/>
<path d="M319.658 214.855C319.658 214.855 320.042 212.183 328.006 214.471" stroke="#263238" stroke-linecap="round" stroke-linejoin="round"/>
<path d="M286.652 442.627C286.175 442.589 285.732 442.364 285.42 442.002C285.107 441.639 284.95 441.168 284.983 440.691L290.275 343.225L296.352 343.725L288.589 440.974C288.55 441.45 288.325 441.891 287.962 442.201C287.599 442.511 287.128 442.664 286.652 442.627V442.627Z" fill="#263238" stroke="#263238" stroke-linecap="round" stroke-linejoin="round"/>
<path d="M352.181 442.627C352.418 442.61 352.65 442.547 352.862 442.44C353.074 442.333 353.263 442.186 353.419 442.006C353.574 441.826 353.692 441.617 353.766 441.391C353.84 441.166 353.869 440.927 353.851 440.691L348.575 343.225L342.498 343.725L350.261 440.974C350.3 441.447 350.523 441.885 350.882 442.195C351.241 442.504 351.708 442.659 352.181 442.627V442.627Z" fill="#263238" stroke="#263238" stroke-linecap="round" stroke-linejoin="round"/>
<path d="M358.406 266.508C344.814 268.47 331.102 269.48 317.369 269.53C304.516 269.395 291.687 268.385 278.97 266.508C278.487 266.434 277.993 266.475 277.528 266.627C277.064 266.78 276.642 267.04 276.297 267.387C275.952 267.733 275.694 268.157 275.543 268.622C275.393 269.087 275.354 269.581 275.431 270.064C277.401 282.369 282.994 317.812 282.994 324.607C282.994 332.855 280.156 340.584 280.156 344.191C280.156 347.797 281.708 350.635 284.279 351.67C285.465 352.137 298.971 352.171 317.236 352.071C338.388 352.171 351.895 352.071 353.097 351.67C355.668 350.635 357.22 347.797 357.22 344.191C357.22 340.584 354.382 332.855 354.382 324.607C354.382 317.812 359.975 282.369 361.945 270.064C362.025 269.581 361.99 269.085 361.841 268.618C361.691 268.151 361.433 267.726 361.087 267.379C360.742 267.031 360.318 266.771 359.852 266.62C359.385 266.468 358.89 266.43 358.406 266.508ZM345.183 342.02C344.265 342.388 333.847 342.404 317.553 342.337C303.479 342.337 293.061 342.337 292.143 342.02C291.098 341.502 290.236 340.678 289.669 339.658C289.103 338.639 288.859 337.471 288.971 336.31C288.971 333.556 291.158 327.662 291.158 321.368C291.158 319.882 290.807 316.61 290.273 312.487L295.432 318.063C296.136 318.825 296.991 319.434 297.942 319.851C298.893 320.267 299.92 320.483 300.958 320.484H336.351C338.304 320.487 340.179 319.726 341.577 318.363L346.953 313.121C346.469 316.961 346.151 319.983 346.151 321.469C346.151 327.763 348.338 333.656 348.338 336.411C348.431 337.554 348.18 338.698 347.617 339.697C347.055 340.697 346.208 341.505 345.183 342.02V342.02ZM352.011 279.731C351.143 285.073 349.39 296.109 348.021 305.592L342.796 308.78C339.915 310.538 336.605 311.468 333.229 311.468H304.48C301.197 311.466 297.974 310.584 295.148 308.914L289.305 305.475C287.936 296.025 286.183 285.057 285.331 279.731C285.273 279.359 285.304 278.979 285.421 278.622C285.539 278.265 285.74 277.941 286.007 277.677C286.275 277.413 286.601 277.216 286.96 277.103C287.318 276.99 287.698 276.963 288.069 277.026C297.867 278.462 307.751 279.237 317.653 279.347C328.267 279.303 338.866 278.528 349.374 277.026C349.737 276.981 350.105 277.02 350.451 277.141C350.796 277.262 351.109 277.461 351.364 277.723C351.62 277.985 351.811 278.303 351.923 278.651C352.036 278.999 352.066 279.369 352.011 279.731V279.731Z" fill="#263238" stroke="#263238" stroke-linecap="round" stroke-linejoin="round"/>
<path d="M156.365 213.802V199.895H176.199V214.837L156.365 213.802Z" fill="white" stroke="#263238" stroke-linecap="round" stroke-linejoin="round"/>
<path d="M146.565 182.11C146.565 182.11 143.477 181.325 143.477 186.234C143.477 191.142 147.6 194.465 149.136 194.214C150.672 193.964 148.368 184.681 148.118 182.878C147.867 181.075 146.565 182.11 146.565 182.11Z" fill="white" stroke="#263238" stroke-linecap="round" stroke-linejoin="round"/>
<path d="M185.231 182.11C185.231 182.11 188.336 181.325 188.336 186.234C188.336 191.142 184.212 194.465 182.66 194.214C181.107 193.964 183.428 184.681 183.695 182.878C183.962 181.075 185.231 182.11 185.231 182.11Z" fill="white" stroke="#263238" stroke-linecap="round" stroke-linejoin="round"/>
<path d="M160.22 157.621C160.22 157.621 151.455 158.907 147.849 166.637C144.243 174.367 146.831 185.202 148.116 191.379C149.402 197.556 154.56 203.5 158.417 204.735C162.274 205.97 174.144 204.735 174.144 204.735C177.09 201.76 179.607 198.388 181.623 194.718C185.229 188.274 185.747 176.153 184.194 169.208C182.642 162.263 177.232 155.284 173.109 154.767C168.985 154.249 165.128 158.106 165.128 158.106C163.598 157.381 161.863 157.21 160.22 157.621V157.621Z" fill="#263238" stroke="#263238" stroke-linecap="round" stroke-linejoin="round"/>
<path d="M179.038 211.231C179.038 211.231 164.012 208.911 157.334 209.946C150.656 210.981 146.516 219.211 146.516 219.211C151.937 217.595 157.554 216.73 163.211 216.64C170.189 216.799 177.155 217.317 184.08 218.193C182.84 215.583 181.131 213.223 179.038 211.231V211.231Z" fill="white" stroke="#263238" stroke-linecap="round" stroke-linejoin="round"/>
<path d="M122.607 235.703C122.607 235.703 94.2088 280.529 93.4909 284.97C92.773 289.411 97.1304 295.906 104.777 295.171C112.423 294.436 140.838 294.086 140.838 294.086L141.189 287.157L118.25 284.252L132.09 273.284L122.607 235.703Z" fill="white" stroke="#263238" stroke-linecap="round" stroke-linejoin="round"/>
<path d="M118.251 284.172L106.965 289.631" stroke="#263238" stroke-linecap="round" stroke-linejoin="round"/>
<path d="M209.973 233.9C209.973 233.9 238.722 280.53 239.457 284.887C240.191 289.245 235.817 295.822 228.154 295.088C220.491 294.353 192.109 294.003 192.109 294.003L191.742 287.074L214.698 284.169L200.841 273.284L209.973 233.9Z" fill="white" stroke="#263238" stroke-linecap="round" stroke-linejoin="round"/>
<path d="M214.682 284.172L225.984 289.631" stroke="#263238" stroke-linecap="round" stroke-linejoin="round"/>
<path d="M154.812 215.084L137.283 224.367C128.534 229.008 123.108 233.382 122.608 235.703C122.107 238.023 132.391 311.482 132.391 311.482C132.391 311.482 139.069 317.993 156.615 319.729C182.91 322.3 194.246 314.053 194.246 314.053C194.246 314.053 209.973 236.738 209.973 233.916C209.973 231.095 190.123 221.528 183.161 218.189C176.199 214.85 168.469 211.996 154.812 215.084Z" fill="white" stroke="#263238" stroke-linecap="round" stroke-linejoin="round"/>
<path d="M117.449 332.869L148.118 430.886L156.616 429.868L143.994 330.549L117.449 332.869Z" fill="#F59C04" stroke="#263238" stroke-linecap="round" stroke-linejoin="round"/>
<path d="M148.117 430.886L150.121 442.088C150.206 442.544 150.463 442.951 150.839 443.224C151.214 443.497 151.68 443.616 152.141 443.557L158.368 442.756C158.628 442.721 158.878 442.631 159.099 442.49C159.32 442.349 159.508 442.162 159.65 441.941C159.791 441.72 159.883 441.47 159.918 441.21C159.953 440.95 159.931 440.686 159.854 440.435L156.615 429.867L148.117 430.886Z" fill="white" stroke="#263238" stroke-linecap="round" stroke-linejoin="round"/>
<path d="M211.993 332.869L181.324 430.886L172.826 429.868L185.448 330.549L211.993 332.869Z" fill="#F59C04" stroke="#263238" stroke-linecap="round" stroke-linejoin="round"/>
<path d="M181.308 430.886L179.304 442.088C179.218 442.544 178.961 442.951 178.586 443.224C178.21 443.497 177.745 443.616 177.284 443.557L171.057 442.756C170.797 442.721 170.547 442.631 170.326 442.49C170.104 442.349 169.916 442.162 169.775 441.941C169.633 441.72 169.542 441.47 169.507 441.21C169.471 440.95 169.493 440.686 169.571 440.435L172.81 429.867L181.308 430.886Z" fill="white" stroke="#263238" stroke-linecap="round" stroke-linejoin="round"/>
<path d="M158.687 321.267C158.687 321.267 130.589 312.519 125.43 315.023C120.271 317.527 115.129 324.305 116.932 331.718C118.735 339.131 134.195 348.213 137.551 348.413C140.907 348.613 158.937 348.413 158.937 348.413L158.687 321.267Z" fill="#F59C04" stroke="#263238" stroke-linecap="round" stroke-linejoin="round"/>
<path d="M172.492 321.265C172.492 321.265 200.573 312.517 205.732 315.088C210.89 317.659 216.049 324.371 214.229 331.783C212.41 339.196 196.967 348.278 193.611 348.478C190.255 348.679 172.225 348.478 172.225 348.478L172.492 321.265Z" fill="#F59C04" stroke="#263238" stroke-linecap="round" stroke-linejoin="round"/>
<path d="M132.39 311.484C132.39 311.484 130.069 337.262 130.837 340.601C131.605 343.94 139.602 349.366 155.88 349.883C172.158 350.401 192.476 351.169 197.367 345.242C202.259 339.315 194.279 314.055 194.279 314.055C194.279 314.055 150.955 317.662 132.39 311.484Z" fill="#F59C04" stroke="#263238" stroke-linecap="round" stroke-linejoin="round"/>
<path d="M132.022 442.389C131.785 442.372 131.554 442.308 131.342 442.202C131.129 442.095 130.94 441.948 130.785 441.768C130.63 441.588 130.512 441.379 130.438 441.153C130.364 440.927 130.335 440.689 130.353 440.452L135.629 342.986L141.706 343.487L133.959 440.736C133.921 441.212 133.695 441.653 133.332 441.963C132.969 442.273 132.498 442.426 132.022 442.389V442.389Z" fill="#263238" stroke="#263238" stroke-linecap="round" stroke-linejoin="round"/>
<path d="M197.535 442.389C197.772 442.372 198.003 442.308 198.215 442.202C198.428 442.095 198.617 441.948 198.772 441.768C198.927 441.588 199.045 441.379 199.119 441.153C199.194 440.927 199.222 440.689 199.204 440.452L193.929 342.986L187.852 343.487L195.615 440.736C195.653 441.209 195.876 441.647 196.236 441.957C196.595 442.266 197.062 442.421 197.535 442.389V442.389Z" fill="#263238" stroke="#263238" stroke-linecap="round" stroke-linejoin="round"/>
<path d="M203.713 266.271C190.116 268.234 176.398 269.244 162.66 269.293C149.807 269.151 136.978 268.141 124.261 266.271C123.776 266.194 123.28 266.232 122.814 266.384C122.347 266.535 121.923 266.795 121.576 267.142C121.229 267.489 120.969 267.913 120.817 268.38C120.666 268.847 120.627 269.343 120.705 269.827C122.675 282.132 128.268 317.575 128.268 324.37C128.268 332.618 125.43 340.347 125.43 343.954C125.43 347.56 126.982 350.398 129.553 351.433C130.755 351.9 144.262 351.934 162.526 351.834C183.662 351.934 197.185 351.834 198.37 351.433C200.941 350.398 202.494 347.56 202.494 343.954C202.494 340.347 199.656 332.618 199.656 324.37C199.656 317.575 205.249 282.115 207.219 269.811C207.299 269.331 207.264 268.839 207.116 268.375C206.969 267.912 206.713 267.49 206.371 267.144C206.029 266.799 205.609 266.539 205.147 266.388C204.685 266.236 204.193 266.196 203.713 266.271ZM190.49 341.733C189.572 342.084 179.154 342.117 162.843 342.05C148.769 342.05 138.368 342.05 137.45 341.733C136.402 341.217 135.536 340.394 134.967 339.375C134.397 338.355 134.151 337.186 134.261 336.023C134.261 333.269 136.448 327.375 136.448 321.081C136.448 319.595 136.098 316.323 135.563 312.199L140.722 317.776C141.428 318.537 142.283 319.144 143.233 319.561C144.184 319.977 145.21 320.194 146.248 320.196H181.642C183.61 320.2 185.501 319.426 186.901 318.043L192.293 312.801C191.793 316.64 191.475 319.662 191.475 321.148C191.475 327.442 193.662 333.335 193.662 336.09C193.76 337.24 193.51 338.393 192.944 339.399C192.379 340.406 191.524 341.219 190.49 341.733ZM197.302 279.444C196.451 284.786 194.681 295.822 193.312 305.304L188.086 308.493C185.203 310.245 181.894 311.17 178.52 311.164H149.771C146.495 311.165 143.279 310.288 140.455 308.627L134.562 305.238C133.209 295.772 131.457 284.82 130.588 279.494C130.534 279.123 130.567 278.745 130.686 278.389C130.805 278.034 131.006 277.712 131.273 277.448C131.539 277.185 131.864 276.988 132.221 276.874C132.578 276.759 132.956 276.73 133.326 276.789C143.136 278.22 153.031 278.99 162.943 279.093C173.558 279.063 184.157 278.293 194.664 276.789C195.027 276.744 195.396 276.783 195.741 276.904C196.087 277.025 196.399 277.224 196.655 277.486C196.91 277.748 197.102 278.066 197.214 278.414C197.326 278.762 197.356 279.132 197.302 279.494V279.444Z" fill="#263238" stroke="#263238" stroke-linecap="round" stroke-linejoin="round"/>
<path d="M1 443.574H784" stroke="#263238" stroke-linecap="round" stroke-linejoin="round"/>
</svg>
