<svg width="380" height="380" viewBox="0 0 380 380" fill="none" xmlns="http://www.w3.org/2000/svg">
<rect x="0.5" y="0.5" width="379" height="379" rx="189.5" fill="#F2F6FA" stroke="#F2F6FA"/>
<path d="M327.148 102.868V164.853H177.766V109.971H190.724V125.705H194.061V116.8H210.539V130.908H212.72V97.7979H227.045V106.885H234.387V118.196H236.61V111.079H249.631V132.304H253.438V115.054H265.345V101.949H273.443V94.4883H282.811V127.585H285.96V113.771H301.393V133.545H303.525V117.403H319.168V102.868H327.148Z" fill="#EBEBEB"/>
<path d="M181.552 114.955H179.357V111.947H181.552V114.955ZM185.353 111.947H183.158V114.955H185.353V111.947ZM189.153 111.947H186.958V114.955H189.153V111.947ZM181.552 116.477H179.357V119.485H181.552V116.477ZM185.353 116.477H183.158V119.485H185.353V116.477ZM189.153 116.477H186.958V119.485H189.153V116.477ZM181.552 121.006H179.357V124.014H181.552V121.006ZM185.353 121.006H183.158V124.014H185.353V121.006ZM189.153 121.006H186.958V124.014H189.153V121.006ZM181.552 125.529H179.357V128.537H181.552V125.529ZM185.353 125.529H183.158V128.537H185.353V125.529ZM189.153 125.529H186.958V128.537H189.153V125.529ZM257.463 117.199H255.269V119.709H257.463V117.199ZM261.264 117.199H259.069V119.709H261.236L261.264 117.199ZM265.064 117.199H262.87V119.709H265.064V117.199ZM257.463 120.978H255.269V123.488H257.463V120.978ZM261.264 120.978H259.069V123.488H261.236L261.264 120.978ZM265.064 120.978H262.87V123.488H265.064V120.978ZM257.463 124.758H255.269V127.268H257.463V124.758ZM261.264 124.758H259.069V127.268H261.236L261.264 124.758ZM265.064 124.758H262.87V127.268H265.064V124.758ZM257.463 128.53H255.269V131.026H257.463V128.53ZM261.264 128.53H259.069V131.026H261.236L261.264 128.53ZM265.064 128.53H262.87V131.026H265.064V128.53ZM257.463 132.429H255.269V134.939H257.463V132.429ZM261.264 132.429H259.069V134.939H261.236L261.264 132.429ZM265.064 132.429H262.87V134.939H265.064V132.429ZM257.463 136.299H255.269V138.81H257.463V136.299ZM261.264 136.299H259.069V138.81H261.236L261.264 136.299ZM265.064 136.299H262.87V138.81H265.064V136.299ZM257.463 140.142H255.269V142.652H257.463V140.142ZM261.264 140.142H259.069V142.652H261.236L261.264 140.142ZM265.064 140.142H262.87V142.652H265.064V140.142ZM257.463 144.012H255.269V146.523H257.463V144.012ZM261.264 144.012H259.069V146.523H261.236L261.264 144.012ZM265.064 144.012H262.87V146.523H265.064V144.012ZM208.555 118.727H195.934V120.607H208.555V118.727ZM208.555 122.381H195.934V124.26H208.555V122.381ZM208.555 126.027H195.934V127.913H208.555V126.027ZM208.555 129.68H195.934V131.566H208.555V129.68ZM208.555 133.333H195.934V135.233H208.555V133.333ZM208.555 136.986H195.934V138.866H208.555V136.986ZM208.555 140.633H195.934V142.519H208.555V140.633ZM208.555 144.286H195.934V146.172H208.555V144.286ZM299.43 115.537H287.825V117.423H299.43V115.537ZM299.43 119.19H287.825V121.076H299.43V119.19ZM299.43 122.843H287.825V124.716H299.43V122.843ZM299.43 126.497H287.825V128.376H299.43V126.497ZM299.43 130.143H287.825V132.029H299.43V130.143ZM299.43 133.796H287.825V135.675H299.43V133.796ZM299.43 137.449H287.825V139.328H299.43V137.449ZM299.43 141.102H287.825V142.947H299.43V141.102ZM299.43 144.566H287.825V146.453H299.43V144.566ZM299.43 148.072H287.825V149.959H299.43V148.072ZM299.43 151.543H287.825V153.422H299.43V151.543ZM299.43 155.014H287.825V156.893H299.43V155.014ZM299.43 158.52H287.825V160.399H299.43V158.52ZM318.194 120.018H305.937V121.904H318.194V120.018ZM318.194 123.671H305.937V125.557H318.194V123.671ZM318.194 127.324H305.937V129.203H318.194V127.324ZM318.194 130.977H305.937V132.856H318.194V130.977ZM318.194 134.623H305.937V136.51H318.194V134.623ZM318.194 138.277H305.937V140.156H318.194V138.277ZM318.194 141.93H305.937V143.809H318.194V141.93ZM318.194 145.583H305.937V147.462H318.194V145.583ZM318.194 148.851H305.937V150.66H318.194V148.851ZM318.194 152.118H305.937V153.997H318.194V152.118ZM318.194 155.386H305.937V157.265H318.194V155.386ZM244.316 112.795H240.417V114.618H244.316V112.795ZM244.316 116.301H240.417V118.124H244.316V116.301ZM244.316 119.807H240.417V121.623H244.316V119.807ZM244.316 123.313H240.417V125.129H244.316V123.313ZM244.316 126.819H240.417V128.635H244.316V126.819ZM244.316 130.325H240.417V132.141H244.316V130.325ZM244.316 133.831H240.417V135.647H244.316V133.831ZM244.316 137.337H240.417V139.153H244.316V137.337ZM249.624 112.795H245.725V114.618H249.624V112.795ZM249.624 116.301H245.725V118.124H249.624V116.301ZM249.624 119.807H245.725V121.623H249.624V119.807ZM249.624 123.313H245.725V125.129H249.624V123.313ZM249.624 126.819H245.725V128.635H249.624V126.819ZM249.624 130.325H245.725V132.141H249.624V130.325ZM249.624 133.831H245.725V135.647H249.624V133.831ZM249.624 137.337H245.725V139.153H249.624V137.337ZM218.954 99.704H214.894V102.572H218.954V99.704ZM225.012 99.704H220.952V102.572H225.012V99.704ZM218.954 103.911H214.894V106.779H218.954V103.911ZM225.012 103.911H220.952V106.779H225.012V103.911ZM218.954 108.118H214.894V110.979H218.954V108.118ZM225.012 108.118H220.952V110.979H225.012V108.118ZM218.954 112.325H214.894V115.193H218.954V112.325ZM225.012 112.325H220.952V115.193H225.012V112.325ZM218.954 116.533H214.894V119.401H218.954V116.533ZM225.012 116.533H220.952V119.401H225.012V116.533ZM218.954 120.74H214.894V123.608H218.954V120.74ZM225.012 120.74H220.952V123.608H225.012V120.74ZM218.954 124.947H214.894V127.815H218.954V124.947ZM225.012 124.947H220.952V127.815H225.012V124.947ZM218.954 129.154H214.894V132.015H218.954V129.154ZM225.012 129.154H220.952V132.015H225.012V129.154ZM232.515 108.118H228.455V110.979H232.487L232.515 108.118ZM232.515 112.325H228.455V115.193H232.487L232.515 112.325ZM232.515 116.533H228.455V119.401H232.487L232.515 116.533ZM232.515 120.74H228.455V123.608H232.487L232.515 120.74ZM232.515 124.947H228.455V127.815H232.487L232.515 124.947ZM232.515 129.154H228.455V132.015H232.487L232.515 129.154ZM218.954 133.312H214.894V136.18H218.954V133.312ZM225.012 133.312H220.952V136.18H225.012V133.312ZM232.515 133.312H228.455V136.18H232.487L232.515 133.312ZM218.954 137.47H214.894V140.338H218.954V137.47ZM225.012 137.47H220.952V140.338H225.012V137.47ZM232.515 137.47H228.455V140.338H232.487L232.515 137.47ZM218.954 141.628H214.894V144.496H218.954V141.628ZM225.012 141.628H220.952V144.496H225.012V141.628ZM232.515 141.628H228.455V144.496H232.487L232.515 141.628ZM218.954 145.793H214.894V148.654H218.954V145.793ZM225.012 145.793H220.952V148.654H225.012V145.793ZM232.515 145.793H228.455V148.654H232.487L232.515 145.793ZM218.954 149.959H214.894V152.826H218.954V149.959ZM225.012 149.959H220.952V152.826H225.012V149.959ZM232.515 149.959H228.455V152.826H232.487L232.515 149.959ZM269.194 103.778H267V106.288H269.194V103.778ZM272.995 103.778H270.8V106.288H272.995V103.778ZM269.194 107.557H267V110.068H269.194V107.557ZM272.995 107.557H270.8V110.068H272.995V107.557ZM269.194 111.33H267V113.847H269.194V111.33ZM272.995 111.33H270.8V113.847H272.995V111.33ZM269.194 115.109H267V117.619H269.194V115.109ZM272.995 115.109H270.8V117.619H272.995V115.109ZM269.194 118.98H267V121.49H269.194V118.98ZM272.995 118.98H270.8V121.49H272.995V118.98ZM269.194 122.85H267V125.361H269.194V122.85ZM272.995 122.85H270.8V125.361H272.995V122.85ZM269.194 126.721H267V129.231H269.194V126.721ZM272.995 126.721H270.8V129.231H272.995V126.721ZM269.194 130.592H267V133.13H269.194V130.592ZM272.995 130.592H270.8V133.13H272.995V130.592ZM269.194 134.532H267V137.043H269.194V134.532ZM272.995 134.532H270.8V137.043H272.995V134.532ZM269.194 138.445H267V140.955H269.194V138.445ZM272.995 138.445H270.8V140.955H272.995V138.445ZM269.194 142.358H267V144.868H269.194V142.358ZM272.995 142.358H270.8V144.868H272.995V142.358ZM269.194 146.27H267V148.781H269.194V146.27ZM272.995 146.27H270.8V148.781H272.995V146.27ZM322.737 104.199H320.543V107.186H322.737V104.199ZM326.538 104.199H324.343V107.186H326.538V104.199ZM322.737 108.651H320.543V111.61H322.737V108.651ZM326.538 108.651H324.343V111.61H326.538V108.651ZM322.737 113.104H320.543V116.056H322.737V113.104ZM326.538 113.104H324.343V116.056H326.538V113.104ZM322.737 117.549H320.543V120.508H322.737V117.549ZM326.538 117.549H324.343V120.508H326.538V117.549ZM322.737 122.114H320.543V125.066H322.737V122.114ZM326.538 122.114H324.343V125.066H326.538V122.114ZM322.737 126.672H320.543V129.624H322.737V126.672ZM326.538 126.672H324.343V129.624H326.538V126.672ZM322.737 131.23H320.543V134.189H322.737V131.23ZM326.538 131.23H324.343V134.189H326.538V131.23ZM322.737 135.787H320.543V138.739H322.737V135.787ZM326.538 135.787H324.343V138.739H326.538V135.787ZM322.737 140.401H320.543V143.353H322.737V140.401ZM326.538 140.401H324.343V143.353H326.538V140.401ZM322.737 145.008H320.543V147.967H322.737V145.008ZM326.538 145.008H324.343V147.967H326.538V145.008ZM322.737 149.615H320.543V152.574H322.737V149.615ZM326.538 149.615H324.343V152.574H326.538V149.615ZM322.737 154.222H320.543V157.181H322.737V154.222ZM326.538 154.222H324.343V157.181H326.538V154.222ZM277.321 103.792H275.126V106.302H277.321V103.792ZM281.122 103.792H278.927V106.302H281.122V103.792ZM277.321 99.9214H275.126V102.432H277.321V99.9214ZM281.122 99.9214H278.927V102.432H281.122V99.9214ZM277.321 96.0508H275.126V98.561H277.321V96.0508ZM281.122 96.0508H278.927V98.561H281.122V96.0508ZM277.321 107.571H275.126V110.082H277.321V107.571ZM281.122 107.571H278.927V110.082H281.122V107.571ZM277.321 111.344H275.126V113.861H277.321V111.344ZM281.122 111.344H278.927V113.861H281.122V111.344ZM277.321 115.123H275.126V117.633H277.321V115.123ZM281.122 115.123H278.927V117.633H281.122V115.123ZM277.321 118.994H275.126V121.504H277.321V118.994ZM281.122 118.994H278.927V121.504H281.122V118.994ZM277.321 122.864H275.126V125.375H277.321V122.864ZM281.122 122.864H278.927V125.375H281.122V122.864ZM277.321 126.735H275.126V129.245H277.321V126.735ZM281.122 126.735H278.927V129.245H281.122V126.735ZM277.321 130.606H275.126V133.13H277.321V130.606ZM281.122 130.606H278.927V133.13H281.122V130.606ZM277.321 134.532H275.126V137.043H277.321V134.532ZM281.122 134.532H278.927V137.043H281.122V134.532ZM277.321 138.445H275.126V140.955H277.321V138.445ZM281.122 138.445H278.927V140.955H281.122V138.445ZM277.321 142.358H275.126V144.868H277.321V142.358ZM281.122 142.358H278.927V144.868H281.122V142.358ZM277.321 146.27H275.126V148.781H277.321V146.27ZM281.122 146.27H278.927V148.781H281.122V146.27Z" fill="white"/>
<path d="M177.765 164.852H69.5713V109.97H82.5293V125.704H85.867V116.799H102.345V130.907H104.526V97.7969H118.844V106.884H126.193V118.195H128.415V111.077H141.437V132.303H145.237V115.053H157.15V101.948H165.242L174.61 101.99V127.584H177.765V164.852Z" fill="#EBEBEB"/>
<path d="M73.351 114.956H71.1562V111.948H73.351V114.956ZM77.1515 111.948H74.9567V114.956H77.1515V111.948ZM80.9519 111.948H78.7572V114.956H80.9519V111.948ZM73.351 116.478H71.1562V119.486H73.351V116.478ZM77.1515 116.478H74.9567V119.486H77.1515V116.478ZM80.9519 116.478H78.7572V119.486H80.9519V116.478ZM73.351 121.007H71.1562V124.015H73.351V121.007ZM77.1515 121.007H74.9567V124.015H77.1515V121.007ZM80.9519 121.007H78.7572V124.015H80.9519V121.007ZM73.351 125.53H71.1562V128.538H73.351V125.53ZM77.1515 125.53H74.9567V128.538H77.1515V125.53ZM80.9519 125.53H78.7572V128.538H80.9519V125.53ZM149.262 117.2H147.067V119.71H149.262V117.2ZM153.063 117.2H150.868V119.71H153.063V117.2ZM156.863 117.2H154.654V119.71H156.849L156.863 117.2ZM149.262 120.979H147.067V123.49H149.262V120.979ZM153.063 120.979H150.868V123.49H153.063V120.979ZM156.863 120.979H154.654V123.49H156.849L156.863 120.979ZM149.262 124.759H147.067V127.269H149.262V124.759ZM153.063 124.759H150.868V127.269H153.063V124.759ZM156.863 124.759H154.654V127.269H156.849L156.863 124.759ZM149.262 128.531H147.067V131.027H149.262V128.531ZM153.063 128.531H150.868V131.027H153.063V128.531ZM156.863 128.531H154.654V131.027H156.849L156.863 128.531ZM149.262 132.43H147.067V134.94H149.262V132.43ZM153.063 132.43H150.868V134.94H153.063V132.43ZM156.863 132.43H154.654V134.94H156.849L156.863 132.43ZM149.262 136.3H147.067V138.811H149.262V136.3ZM153.063 136.3H150.868V138.811H153.063V136.3ZM156.863 136.3H154.654V138.811H156.849L156.863 136.3ZM149.262 140.143H147.067V142.653H149.262V140.143ZM153.063 140.143H150.868V142.653H153.063V140.143ZM156.863 140.143H154.654V142.653H156.849L156.863 140.143ZM149.262 144.013H147.067V146.524H149.262V144.013ZM153.063 144.013H150.868V146.524H153.063V144.013ZM156.863 144.013H154.654V146.524H156.849L156.863 144.013ZM100.361 118.728H87.7395V120.608H100.361V118.728ZM100.361 122.382H87.7395V124.261H100.361V122.382ZM100.361 126.028H87.7395V127.914H100.361V126.028ZM100.361 129.681H87.7395V131.567H100.361V129.681ZM100.361 133.334H87.7395V135.235H100.361V133.334ZM100.361 136.988H87.7395V138.867H100.361V136.988ZM100.361 140.634H87.7395V142.52H100.361V140.634ZM100.361 144.287H87.7395V146.173H100.361V144.287ZM136.122 112.782H132.216V114.605H136.115L136.122 112.782ZM136.122 116.288H132.216V118.111H136.115L136.122 116.288ZM136.122 119.794H132.216V121.61H136.115L136.122 119.794ZM136.122 123.3H132.216V125.116H136.115L136.122 123.3ZM136.122 126.806H132.216V128.622H136.115L136.122 126.806ZM136.122 130.312H132.216V132.128H136.115L136.122 130.312ZM136.122 133.818H132.216V135.634H136.115L136.122 133.818ZM136.122 137.324H132.216V139.14H136.115L136.122 137.324ZM141.423 112.796H137.524V114.619H141.423V112.796ZM141.423 116.302H137.524V118.125H141.423V116.302ZM141.423 119.808H137.524V121.624H141.423V119.808ZM141.423 123.314H137.524V125.13H141.423V123.314ZM141.423 126.82H137.524V128.636H141.423V126.82ZM141.423 130.326H137.524V132.142H141.423V130.326ZM141.423 133.832H137.524V135.648H141.423V133.832ZM141.423 137.338H137.524V139.154H141.423V137.338ZM110.76 99.7051H106.7V102.573H110.76V99.7051ZM116.811 99.7051H112.751V102.573H116.79L116.811 99.7051ZM110.76 103.912H106.7V106.78H110.76V103.912ZM116.811 103.912H112.751V106.78H116.79L116.811 103.912ZM110.76 108.119H106.7V110.98H110.76V108.119ZM116.811 108.119H112.751V110.98H116.79L116.811 108.119ZM110.76 112.327H106.7V115.194H110.76V112.327ZM116.811 112.327H112.751V115.194H116.79L116.811 112.327ZM110.76 116.534H106.7V119.402H110.76V116.534ZM116.811 116.534H112.751V119.402H116.79L116.811 116.534ZM110.76 120.741H106.7V123.609H110.76V120.741ZM116.811 120.741H112.751V123.609H116.79L116.811 120.741ZM110.76 124.948H106.7V127.816H110.76V124.948ZM116.811 124.948H112.751V127.816H116.79L116.811 124.948ZM110.76 129.155H106.7V132.016H110.76V129.155ZM116.811 129.155H112.751V132.016H116.79L116.811 129.155ZM124.314 108.119H120.254V110.98H124.314V108.119ZM124.314 112.327H120.254V115.194H124.314V112.327ZM124.314 116.534H120.254V119.402H124.314V116.534ZM124.314 120.741H120.254V123.609H124.314V120.741ZM124.314 124.948H120.254V127.816H124.314V124.948ZM124.314 129.155H120.254V132.016H124.314V129.155ZM110.76 133.313H106.7V136.181H110.76V133.313ZM116.811 133.313H112.751V136.181H116.79L116.811 133.313ZM124.314 133.313H120.254V136.181H124.314V133.313ZM110.76 137.471H106.7V140.339H110.76V137.471ZM116.811 137.471H112.751V140.339H116.79L116.811 137.471ZM124.314 137.471H120.254V140.339H124.314V137.471ZM110.76 141.629H106.7V144.497H110.76V141.629ZM116.811 141.629H112.751V144.497H116.79L116.811 141.629ZM124.314 141.629H120.254V144.497H124.314V141.629ZM110.76 145.794H106.7V148.655H110.76V145.794ZM116.811 145.794H112.751V148.655H116.79L116.811 145.794ZM124.314 145.794H120.254V148.655H124.314V145.794ZM110.76 149.96H106.7V152.827H110.76V149.96ZM116.811 149.96H112.751V152.827H116.79L116.811 149.96ZM124.314 149.96H120.254V152.827H124.314V149.96ZM160.965 103.793H158.777V106.303H160.965V103.793ZM164.766 103.793H162.578V106.303H164.766V103.793ZM160.965 107.572H158.777V110.083H160.965V107.572ZM164.766 107.572H162.578V110.083H164.766V107.572ZM160.965 111.345H158.777V113.862H160.965V111.345ZM164.766 111.345H162.578V113.862H164.766V111.345ZM160.965 115.124H158.777V117.635H160.965V115.124ZM164.766 115.124H162.578V117.635H164.766V115.124ZM160.965 118.995H158.777V121.505H160.965V118.995ZM164.766 118.995H162.578V121.505H164.766V118.995ZM160.965 122.865H158.777V125.376H160.965V122.865ZM164.766 122.865H162.578V125.376H164.766V122.865ZM160.965 126.736H158.777V129.246H160.965V126.736ZM164.766 126.736H162.578V129.246H164.766V126.736ZM160.965 130.607H158.777V133.131H160.965V130.607ZM164.766 130.607H162.578V133.131H164.766V130.607ZM160.965 134.533H158.777V137.044H160.965V134.533ZM164.766 134.533H162.578V137.044H164.766V134.533ZM160.965 138.432H158.777V140.942H160.965V138.432ZM164.766 138.432H162.578V140.942H164.766V138.432ZM160.965 142.345H158.777V144.855H160.965V142.345ZM164.766 142.345H162.578V144.855H164.766V142.345ZM160.965 146.257H158.777V148.768H160.965V146.257ZM164.766 146.257H162.578V148.768H164.766V146.257ZM169.092 103.793H166.904V106.303H169.092V103.793ZM172.892 103.793H170.705V106.303H172.892V103.793ZM169.092 107.572H166.904V110.083H169.092V107.572ZM172.892 107.572H170.705V110.083H172.892V107.572ZM169.092 111.345H166.904V113.862H169.092V111.345ZM172.892 111.345H170.705V113.862H172.892V111.345ZM169.092 115.124H166.904V117.635H169.092V115.124ZM172.892 115.124H170.705V117.635H172.892V115.124ZM169.092 118.995H166.904V121.505H169.092V118.995ZM172.892 118.995H170.705V121.505H172.892V118.995ZM169.092 122.865H166.904V125.376H169.092V122.865ZM172.892 122.865H170.705V125.376H172.892V122.865ZM169.092 126.736H166.904V129.246H169.092V126.736ZM172.892 126.736H170.705V129.246H172.892V126.736ZM169.092 130.607H166.904V133.131H169.092V130.607ZM172.892 130.607H170.705V133.131H172.892V130.607ZM169.12 134.533H166.932V137.044H169.12V134.533ZM172.92 134.533H170.733V137.044H172.92V134.533ZM169.12 138.446H166.932V140.956H169.12V138.446ZM172.92 138.446H170.733V140.956H172.92V138.446ZM169.12 142.359H166.932V144.869H169.12V142.359ZM172.92 142.359H170.733V144.869H172.92V142.359ZM169.12 146.271H166.932V148.782H169.12V146.271ZM172.92 146.271H170.733V148.782H172.92V146.271Z" fill="white"/>
<path d="M328.48 166.184H67.7764V80.9824H328.48V166.184ZM70.4409 163.527H325.822V83.6399H70.4339L70.4409 163.527Z" fill="#DBDBDB"/>
<path d="M199.46 83.6406H196.803V163.521H199.46V83.6406Z" fill="#DBDBDB"/>
<path d="M121.144 237.545L119.468 247.607L108.102 308.982H106.271L114.539 247.607L115.759 237.545H121.144Z" fill="#DBDBDB"/>
<path d="M115.759 237.545H121.144L119.468 247.607H114.539L115.759 237.545Z" fill="#C7C7C7"/>
<path d="M156.842 308.982H155.005L143.639 247.607L141.963 237.545H147.355L148.575 247.607L156.842 308.982Z" fill="#DBDBDB"/>
<path d="M147.355 237.545L148.575 247.607H143.639L141.963 237.545H147.355Z" fill="#C7C7C7"/>
<path d="M190.927 308.982H189.097L177.731 247.607L176.055 237.545H181.447L182.667 247.607L190.927 308.982Z" fill="#DBDBDB"/>
<path d="M182.667 247.607H177.731L176.055 237.545H181.447L182.667 247.607Z" fill="#C7C7C7"/>
<path d="M188.024 242.271H104.743V235.519L135.918 233.5L146.394 173.057H184.847L188.024 242.271Z" fill="#DBDBDB"/>
<path d="M188.024 242.271H183.487L180.528 173.057H184.848L188.024 242.271Z" fill="#C7C7C7"/>
<path d="M139.158 15.3301H138.457V51.6799H139.158V15.3301Z" fill="#C7C7C7"/>
<path d="M141.282 48.8828H136.332V54.2399H141.282V48.8828Z" fill="#DBDBDB"/>
<path d="M148.939 71.3482H128.71C129.117 63.6351 132.791 51.2871 138.842 51.2871C144.893 51.2871 148.533 63.6351 148.939 71.3482Z" fill="#DBDBDB"/>
<path d="M178.705 15.3301H178.004V51.6799H178.705V15.3301Z" fill="#C7C7C7"/>
<path d="M180.829 48.8828H175.879V54.2399H180.829V48.8828Z" fill="#DBDBDB"/>
<path d="M188.487 71.3482H168.223C168.629 63.6351 172.311 51.2871 178.355 51.2871C184.399 51.2871 188.08 63.6351 188.487 71.3482Z" fill="#DBDBDB"/>
<path d="M218.252 15.3301H217.551V51.6799H218.252V15.3301Z" fill="#C7C7C7"/>
<path d="M220.377 48.8828H215.427V54.2399H220.377V48.8828Z" fill="#DBDBDB"/>
<path d="M228.034 71.3482H207.77C208.183 63.6351 211.857 51.2871 217.902 51.2871C223.946 51.2871 227.627 63.6351 228.034 71.3482Z" fill="#DBDBDB"/>
<path d="M257.8 15.3301H257.099V51.6799H257.8V15.3301Z" fill="#C7C7C7"/>
<path d="M259.924 48.8828H254.974V54.2399H259.924V48.8828Z" fill="#DBDBDB"/>
<path d="M267.581 71.3482H247.316C247.73 63.6351 251.404 51.2871 257.449 51.2871C263.493 51.2871 267.174 63.6351 267.581 71.3482Z" fill="#DBDBDB"/>
<path d="M201.991 349.231C251.947 349.231 292.445 343.405 292.445 336.217C292.445 329.03 251.947 323.203 201.991 323.203C152.035 323.203 111.537 329.03 111.537 336.217C111.537 343.405 152.035 349.231 201.991 349.231Z" fill="#EBEBEB"/>
<path d="M88.1036 336.61C109.809 336.61 127.406 333.242 127.406 329.086C127.406 324.931 109.809 321.562 88.1036 321.562C66.3978 321.562 48.8018 324.931 48.8018 329.086C48.8018 333.242 66.3978 336.61 88.1036 336.61Z" fill="#EBEBEB"/>
<path d="M47 308.982L84.7803 308.814L122.561 308.751L198.128 308.639L273.696 308.751L311.476 308.814L349.256 308.982L311.476 309.158L273.696 309.221L198.128 309.333L122.561 309.221L84.7803 309.158L47 308.982Z" fill="#263238"/>
<path d="M302.319 202.324H240.445V315.995H302.319V202.324Z" fill="#455A64"/>
<path d="M302.319 202.324H240.445V209.736H302.319V202.324Z" fill="#263238"/>
<path d="M328.88 196.35H67.3701V202.331H328.88V196.35Z" fill="#455A64"/>
<path d="M80.5669 202.324L80.3706 209.736L77.7622 315.995H73.0361V202.324H80.5669Z" fill="#455A64"/>
<path d="M73.0361 202.324H80.5669L80.3706 209.736H73.0361V202.324Z" fill="#263238"/>
<path d="M323.285 202.324H302.319V315.995H323.285V202.324Z" fill="#37474F"/>
<path d="M323.285 202.324H302.319V209.736H323.285V202.324Z" fill="#263238"/>
<path d="M316.608 196.239H287.803L282.769 175.336H311.574L316.608 196.239Z" fill="#A6A6A6"/>
<path d="M277.657 196.239H306.455L311.49 175.336H282.685L277.657 196.239Z" fill="#EBEBEB"/>
<path d="M308.033 178.141L307.332 181.065L307.29 181.24L306.589 184.276L306.547 184.458L305.846 187.488L305.804 187.67L305.102 190.706L305.06 190.888L304.359 193.861H281.22L281.921 190.888L281.963 190.706L282.664 187.67L282.713 187.488L283.414 184.458L283.457 184.276L284.158 181.24L284.207 181.065L284.908 178.141H308.033ZM288.091 178.141L287.39 181.065L287.348 181.24L286.647 184.276L286.605 184.458L285.904 187.488L285.862 187.67L285.16 190.706L285.118 190.888L284.417 193.861H284.606L285.308 190.888L285.35 190.706L286.051 187.67L286.093 187.488L286.794 184.458L286.836 184.276L287.537 181.24L287.58 181.065L288.281 178.141H288.091ZM291.387 178.141L290.686 181.065L290.644 181.24L289.943 184.276L289.901 184.458L289.199 187.488L289.157 187.67L288.456 190.706L288.414 190.888L287.713 193.861H287.902L288.603 190.888L288.652 190.706L289.354 187.67L289.396 187.488L290.097 184.458L290.146 184.276L290.847 181.24L290.889 181.065L291.59 178.141H291.387ZM294.69 178.141L293.988 181.065L293.946 181.24L293.245 184.276L293.203 184.458L292.502 187.488L292.46 187.67L291.759 190.706L291.717 190.888L291.015 193.861H291.198L291.899 190.888L291.941 190.706L292.642 187.67L292.684 187.488L293.385 184.458L293.428 184.276L294.129 181.24L294.171 181.065L294.872 178.141H294.69ZM297.985 178.141L297.284 181.065L297.242 181.24L296.541 184.276L296.499 184.458L295.798 187.488L295.755 187.67L295.054 190.706L295.012 190.888L294.311 193.861H294.5L295.202 190.888L295.244 190.706L295.945 187.67L295.994 187.488L296.695 184.458L296.737 184.276L297.438 181.24L297.48 181.065L298.182 178.141H297.985ZM301.288 178.141L300.587 181.065L300.545 181.24L299.843 184.276L299.794 184.458L299.093 187.488L299.051 187.67L298.35 190.706L298.308 190.888L297.607 193.861H297.698L298.399 190.888L298.441 190.706L299.142 187.67L299.184 187.488L299.885 184.458L299.928 184.276L300.629 181.24L300.671 181.065L301.372 178.141H301.288ZM304.583 178.141L303.882 181.065L303.84 181.24L303.139 184.276L303.097 184.458L302.396 187.488L302.354 187.67L301.653 190.706L301.61 190.888L300.909 193.861H301.092L301.793 190.888L301.835 190.706L302.536 187.67L302.578 187.488L303.279 184.458L303.321 184.276L304.023 181.24L304.065 181.065L304.766 178.141H304.583ZM284.186 181.065L284.137 181.24H307.276L307.318 181.065H284.186ZM283.414 184.276L283.372 184.458H306.512L306.554 184.276H283.414ZM282.643 187.488L282.594 187.67H305.733L305.776 187.488H282.643ZM281.865 190.706L281.823 190.888H304.962L305.004 190.706H281.865Z" fill="white"/>
<path d="M283.589 176.767C283.483 176.762 283.379 176.735 283.284 176.688C283.188 176.641 283.104 176.574 283.035 176.493C282.901 176.311 282.817 176.096 282.791 175.871C282.765 175.646 282.798 175.418 282.888 175.21C283.084 174.558 283.589 174.284 283.933 174.354C284.276 174.425 284.529 174.698 284.473 175.329C284.469 175.376 284.447 175.42 284.412 175.452C284.377 175.483 284.331 175.499 284.283 175.497C284.236 175.492 284.192 175.469 284.161 175.432C284.129 175.396 284.113 175.349 284.115 175.301C284.115 174.971 284.045 174.747 283.863 174.712C283.68 174.677 283.365 174.866 283.232 175.315C283.166 175.466 283.139 175.631 283.152 175.795C283.165 175.959 283.219 176.117 283.309 176.255C283.343 176.302 283.388 176.341 283.441 176.367C283.493 176.392 283.552 176.405 283.61 176.402C283.635 176.395 283.662 176.393 283.688 176.397C283.713 176.401 283.738 176.41 283.76 176.425C283.782 176.439 283.8 176.458 283.814 176.48C283.828 176.502 283.837 176.527 283.841 176.552C283.845 176.578 283.843 176.605 283.835 176.63C283.827 176.655 283.815 176.678 283.797 176.697C283.78 176.717 283.759 176.733 283.735 176.743C283.711 176.754 283.686 176.76 283.659 176.76L283.589 176.767Z" fill="#A6A6A6"/>
<path d="M285.777 176.766C285.67 176.761 285.566 176.734 285.471 176.687C285.376 176.64 285.291 176.574 285.223 176.492C285.089 176.308 285.005 176.093 284.979 175.867C284.953 175.64 284.987 175.412 285.075 175.202C285.279 174.55 285.777 174.277 286.12 174.347C286.464 174.417 286.716 174.69 286.667 175.321C286.662 175.369 286.639 175.413 286.602 175.444C286.566 175.475 286.519 175.492 286.471 175.49C286.447 175.488 286.424 175.481 286.403 175.47C286.382 175.459 286.363 175.444 286.348 175.426C286.333 175.408 286.322 175.386 286.315 175.364C286.309 175.341 286.307 175.317 286.31 175.293C286.31 174.964 286.239 174.739 286.057 174.704C285.875 174.669 285.559 174.859 285.426 175.307C285.359 175.457 285.331 175.622 285.343 175.786C285.355 175.95 285.408 176.108 285.496 176.247C285.532 176.295 285.578 176.333 285.632 176.359C285.686 176.385 285.745 176.397 285.805 176.394C285.83 176.387 285.856 176.385 285.882 176.389C285.908 176.393 285.933 176.402 285.954 176.417C285.976 176.431 285.995 176.45 286.009 176.472C286.023 176.494 286.032 176.519 286.035 176.545C286.039 176.57 286.037 176.597 286.029 176.622C286.022 176.647 286.009 176.67 285.992 176.69C285.975 176.709 285.953 176.725 285.93 176.736C285.906 176.746 285.88 176.752 285.854 176.752L285.777 176.766Z" fill="#A6A6A6"/>
<path d="M288.027 176.767C287.92 176.762 287.815 176.735 287.719 176.688C287.622 176.641 287.536 176.575 287.466 176.493C287.335 176.309 287.253 176.095 287.229 175.87C287.204 175.645 287.238 175.418 287.326 175.21C287.523 174.558 288.027 174.284 288.371 174.354C288.715 174.425 288.967 174.698 288.911 175.329C288.916 175.356 288.915 175.383 288.909 175.409C288.902 175.435 288.89 175.459 288.873 175.48C288.856 175.501 288.834 175.518 288.81 175.529C288.786 175.541 288.759 175.547 288.732 175.547C288.705 175.547 288.679 175.541 288.654 175.529C288.63 175.518 288.608 175.501 288.591 175.48C288.574 175.459 288.562 175.435 288.555 175.409C288.549 175.383 288.548 175.356 288.553 175.329C288.553 175 288.483 174.775 288.301 174.74C288.119 174.705 287.803 174.894 287.67 175.343C287.603 175.493 287.574 175.658 287.587 175.822C287.599 175.986 287.652 176.144 287.74 176.283C287.776 176.33 287.823 176.368 287.876 176.394C287.93 176.42 287.989 176.432 288.048 176.43C288.074 176.423 288.1 176.421 288.126 176.425C288.152 176.429 288.176 176.438 288.198 176.453C288.22 176.467 288.239 176.486 288.253 176.508C288.266 176.53 288.276 176.555 288.279 176.58C288.283 176.606 288.281 176.633 288.273 176.658C288.266 176.683 288.253 176.706 288.236 176.725C288.218 176.745 288.197 176.761 288.173 176.772C288.149 176.782 288.124 176.788 288.098 176.788L288.027 176.767Z" fill="#A6A6A6"/>
<path d="M290.244 176.767C290.137 176.762 290.033 176.735 289.938 176.688C289.843 176.641 289.758 176.574 289.69 176.493C289.557 176.31 289.474 176.095 289.448 175.871C289.422 175.646 289.455 175.418 289.542 175.21C289.739 174.558 290.244 174.284 290.587 174.354C290.931 174.425 291.183 174.698 291.134 175.329C291.129 175.377 291.106 175.421 291.069 175.452C291.033 175.483 290.986 175.499 290.938 175.497C290.914 175.496 290.891 175.489 290.87 175.478C290.849 175.467 290.83 175.452 290.815 175.434C290.8 175.415 290.789 175.394 290.782 175.371C290.775 175.349 290.774 175.325 290.776 175.301C290.776 174.971 290.706 174.747 290.524 174.712C290.342 174.677 290.026 174.866 289.886 175.315C289.822 175.466 289.796 175.631 289.809 175.794C289.822 175.958 289.875 176.116 289.963 176.255C289.999 176.303 290.045 176.341 290.099 176.367C290.153 176.392 290.212 176.404 290.272 176.402C290.315 176.402 290.358 176.418 290.391 176.447C290.424 176.476 290.445 176.516 290.451 176.559C290.457 176.603 290.447 176.647 290.423 176.684C290.399 176.721 290.363 176.747 290.321 176.76L290.244 176.767Z" fill="#A6A6A6"/>
<path d="M292.46 176.767C292.354 176.762 292.25 176.735 292.154 176.688C292.059 176.641 291.974 176.574 291.906 176.493C291.773 176.31 291.691 176.095 291.666 175.87C291.641 175.645 291.676 175.418 291.766 175.21C291.962 174.558 292.467 174.284 292.81 174.354C293.154 174.425 293.406 174.698 293.35 175.329C293.356 175.356 293.355 175.383 293.348 175.409C293.342 175.435 293.33 175.459 293.313 175.48C293.295 175.501 293.274 175.518 293.25 175.529C293.225 175.541 293.199 175.547 293.172 175.547C293.145 175.547 293.118 175.541 293.094 175.529C293.069 175.518 293.048 175.501 293.031 175.48C293.014 175.459 293.001 175.435 292.995 175.409C292.988 175.383 292.988 175.356 292.993 175.329C292.993 175 292.923 174.775 292.74 174.74C292.558 174.705 292.242 174.894 292.109 175.343C292.042 175.493 292.014 175.658 292.026 175.822C292.038 175.986 292.091 176.144 292.179 176.283C292.215 176.33 292.262 176.368 292.316 176.394C292.369 176.42 292.428 176.432 292.488 176.43C292.513 176.423 292.539 176.421 292.565 176.425C292.591 176.429 292.616 176.438 292.638 176.453C292.659 176.467 292.678 176.486 292.692 176.508C292.706 176.53 292.715 176.555 292.719 176.58C292.722 176.606 292.72 176.633 292.713 176.658C292.705 176.683 292.692 176.706 292.675 176.725C292.658 176.745 292.637 176.761 292.613 176.772C292.589 176.782 292.563 176.788 292.537 176.788L292.46 176.767Z" fill="#A6A6A6"/>
<path d="M294.682 176.767C294.576 176.762 294.472 176.735 294.377 176.688C294.281 176.641 294.197 176.574 294.128 176.493C293.994 176.311 293.909 176.096 293.883 175.871C293.858 175.646 293.891 175.418 293.981 175.21C294.177 174.558 294.682 174.284 295.026 174.354C295.369 174.425 295.622 174.698 295.573 175.329C295.567 175.377 295.544 175.421 295.508 175.452C295.471 175.483 295.424 175.499 295.376 175.497C295.329 175.492 295.285 175.469 295.253 175.432C295.222 175.396 295.206 175.349 295.208 175.301C295.208 174.971 295.145 174.747 294.963 174.712C294.78 174.677 294.465 174.866 294.324 175.315C294.259 175.466 294.231 175.631 294.245 175.795C294.258 175.959 294.312 176.117 294.402 176.255C294.436 176.302 294.481 176.341 294.534 176.367C294.586 176.392 294.645 176.405 294.703 176.402C294.728 176.395 294.755 176.393 294.78 176.397C294.806 176.401 294.831 176.41 294.853 176.425C294.875 176.439 294.893 176.458 294.907 176.48C294.921 176.502 294.93 176.527 294.934 176.552C294.937 176.578 294.935 176.605 294.928 176.63C294.92 176.655 294.907 176.678 294.89 176.697C294.873 176.717 294.852 176.733 294.828 176.743C294.804 176.754 294.778 176.76 294.752 176.76L294.682 176.767Z" fill="#A6A6A6"/>
<path d="M296.898 176.767C296.792 176.762 296.688 176.735 296.593 176.688C296.497 176.641 296.413 176.574 296.344 176.493C296.212 176.31 296.129 176.095 296.104 175.87C296.08 175.645 296.114 175.418 296.204 175.21C296.4 174.558 296.905 174.284 297.249 174.354C297.593 174.425 297.845 174.698 297.789 175.329C297.794 175.356 297.793 175.383 297.787 175.409C297.78 175.435 297.768 175.459 297.751 175.48C297.734 175.501 297.712 175.518 297.688 175.529C297.664 175.541 297.637 175.547 297.61 175.547C297.583 175.547 297.556 175.541 297.532 175.529C297.508 175.518 297.486 175.501 297.469 175.48C297.452 175.459 297.44 175.435 297.433 175.409C297.427 175.383 297.426 175.356 297.431 175.329C297.431 175 297.361 174.775 297.179 174.74C296.997 174.705 296.681 174.894 296.548 175.343C296.481 175.493 296.452 175.658 296.465 175.822C296.477 175.986 296.53 176.144 296.618 176.283C296.653 176.331 296.7 176.369 296.754 176.395C296.808 176.42 296.867 176.433 296.926 176.43C296.952 176.423 296.978 176.421 297.004 176.425C297.03 176.429 297.054 176.438 297.076 176.453C297.098 176.467 297.117 176.486 297.13 176.508C297.144 176.53 297.154 176.555 297.157 176.58C297.161 176.606 297.159 176.633 297.151 176.658C297.144 176.683 297.131 176.706 297.114 176.725C297.096 176.745 297.075 176.761 297.051 176.772C297.027 176.782 297.002 176.788 296.975 176.788L296.898 176.767Z" fill="#A6A6A6"/>
<path d="M299.1 176.766C298.994 176.761 298.89 176.734 298.794 176.687C298.699 176.64 298.615 176.574 298.546 176.492C298.41 176.309 298.325 176.093 298.299 175.867C298.274 175.64 298.308 175.411 298.399 175.202C298.595 174.55 299.1 174.277 299.444 174.347C299.787 174.417 300.04 174.69 299.984 175.321C299.98 175.368 299.958 175.412 299.923 175.444C299.888 175.475 299.841 175.492 299.794 175.49C299.746 175.484 299.703 175.461 299.671 175.425C299.64 175.388 299.624 175.341 299.626 175.293C299.626 174.964 299.556 174.739 299.373 174.704C299.191 174.669 298.876 174.859 298.742 175.307C298.677 175.458 298.649 175.623 298.663 175.787C298.676 175.951 298.73 176.109 298.82 176.247C298.853 176.295 298.899 176.333 298.952 176.359C299.004 176.385 299.062 176.397 299.121 176.394C299.146 176.387 299.173 176.385 299.198 176.389C299.224 176.393 299.249 176.402 299.271 176.417C299.293 176.431 299.311 176.45 299.325 176.472C299.339 176.494 299.348 176.519 299.352 176.545C299.355 176.57 299.353 176.597 299.346 176.622C299.338 176.647 299.325 176.67 299.308 176.69C299.291 176.709 299.27 176.725 299.246 176.736C299.222 176.746 299.196 176.752 299.17 176.752L299.1 176.766Z" fill="#A6A6A6"/>
<path d="M301.336 176.767C301.23 176.762 301.126 176.735 301.031 176.688C300.935 176.641 300.851 176.574 300.782 176.493C300.65 176.31 300.567 176.095 300.541 175.871C300.515 175.646 300.548 175.418 300.635 175.21C300.838 174.558 301.336 174.284 301.68 174.354C302.023 174.425 302.276 174.698 302.227 175.329C302.222 175.377 302.198 175.421 302.162 175.452C302.125 175.483 302.078 175.499 302.03 175.497C301.983 175.492 301.94 175.469 301.91 175.432C301.88 175.395 301.865 175.348 301.869 175.301C301.869 174.971 301.799 174.747 301.617 174.712C301.434 174.677 301.119 174.866 300.986 175.315C300.919 175.465 300.89 175.63 300.903 175.794C300.915 175.958 300.967 176.116 301.056 176.255C301.091 176.303 301.138 176.341 301.192 176.367C301.246 176.392 301.305 176.404 301.364 176.402C301.389 176.395 301.416 176.393 301.442 176.397C301.467 176.401 301.492 176.41 301.514 176.425C301.536 176.439 301.554 176.458 301.568 176.48C301.582 176.502 301.591 176.527 301.595 176.552C301.599 176.578 301.597 176.605 301.589 176.63C301.582 176.655 301.569 176.678 301.552 176.697C301.534 176.717 301.513 176.733 301.489 176.743C301.465 176.754 301.44 176.76 301.413 176.76L301.336 176.767Z" fill="#A6A6A6"/>
<path d="M303.56 176.767C303.452 176.762 303.347 176.735 303.251 176.688C303.154 176.641 303.069 176.575 302.999 176.493C302.867 176.309 302.785 176.095 302.761 175.87C302.736 175.645 302.77 175.418 302.858 175.21C303.055 174.558 303.56 174.284 303.903 174.354C304.247 174.425 304.499 174.698 304.443 175.329C304.448 175.356 304.448 175.383 304.441 175.409C304.435 175.435 304.422 175.459 304.405 175.48C304.388 175.501 304.367 175.518 304.342 175.529C304.318 175.541 304.291 175.547 304.264 175.547C304.237 175.547 304.211 175.541 304.186 175.529C304.162 175.518 304.14 175.501 304.123 175.48C304.106 175.459 304.094 175.435 304.087 175.409C304.081 175.383 304.08 175.356 304.086 175.329C304.086 175 304.015 174.775 303.833 174.74C303.651 174.705 303.335 174.894 303.202 175.343C303.135 175.493 303.107 175.658 303.119 175.822C303.131 175.986 303.184 176.144 303.272 176.283C303.308 176.33 303.355 176.368 303.408 176.394C303.462 176.42 303.521 176.432 303.581 176.43C303.606 176.423 303.632 176.421 303.658 176.425C303.684 176.429 303.708 176.438 303.73 176.453C303.752 176.467 303.771 176.486 303.785 176.508C303.799 176.53 303.808 176.555 303.811 176.58C303.815 176.606 303.813 176.633 303.805 176.658C303.798 176.683 303.785 176.706 303.768 176.725C303.751 176.745 303.729 176.761 303.706 176.772C303.682 176.782 303.656 176.788 303.63 176.788L303.56 176.767Z" fill="#A6A6A6"/>
<path d="M305.775 176.767C305.669 176.762 305.565 176.735 305.469 176.688C305.374 176.641 305.289 176.574 305.221 176.493C305.088 176.31 305.005 176.095 304.979 175.871C304.954 175.646 304.986 175.418 305.074 175.21C305.27 174.558 305.775 174.284 306.118 174.354C306.462 174.425 306.714 174.698 306.665 175.329C306.66 175.377 306.637 175.421 306.6 175.452C306.564 175.483 306.517 175.499 306.469 175.497C306.445 175.496 306.422 175.489 306.401 175.478C306.38 175.467 306.361 175.452 306.346 175.434C306.331 175.415 306.32 175.394 306.313 175.371C306.307 175.349 306.305 175.325 306.308 175.301C306.308 174.971 306.238 174.747 306.055 174.712C305.873 174.677 305.557 174.866 305.417 175.315C305.353 175.466 305.327 175.631 305.34 175.794C305.354 175.958 305.407 176.116 305.494 176.255C305.53 176.303 305.576 176.341 305.63 176.367C305.684 176.392 305.743 176.404 305.803 176.402C305.85 176.396 305.898 176.409 305.936 176.438C305.974 176.466 305.999 176.509 306.006 176.556C306.01 176.603 305.997 176.65 305.968 176.688C305.94 176.725 305.898 176.751 305.852 176.76L305.775 176.767Z" fill="#A6A6A6"/>
<path d="M307.991 176.767C307.885 176.762 307.781 176.735 307.686 176.688C307.59 176.641 307.506 176.574 307.437 176.493C307.304 176.31 307.222 176.095 307.197 175.87C307.173 175.645 307.207 175.418 307.297 175.21C307.493 174.558 307.998 174.284 308.342 174.354C308.685 174.425 308.938 174.698 308.882 175.329C308.887 175.356 308.886 175.383 308.88 175.409C308.873 175.435 308.861 175.459 308.844 175.48C308.827 175.501 308.805 175.518 308.781 175.529C308.756 175.541 308.73 175.547 308.703 175.547C308.676 175.547 308.649 175.541 308.625 175.529C308.601 175.518 308.579 175.501 308.562 175.48C308.545 175.459 308.533 175.435 308.526 175.409C308.519 175.383 308.519 175.356 308.524 175.329C308.524 175 308.454 174.775 308.272 174.74C308.089 174.705 307.774 174.894 307.641 175.343C307.574 175.493 307.545 175.658 307.557 175.822C307.57 175.986 307.622 176.144 307.711 176.283C307.747 176.33 307.793 176.368 307.847 176.394C307.901 176.42 307.96 176.432 308.019 176.43C308.044 176.423 308.071 176.421 308.096 176.425C308.122 176.429 308.147 176.438 308.169 176.453C308.191 176.467 308.209 176.486 308.223 176.508C308.237 176.53 308.246 176.555 308.25 176.58C308.253 176.606 308.251 176.633 308.244 176.658C308.236 176.683 308.224 176.706 308.206 176.725C308.189 176.745 308.168 176.761 308.144 176.772C308.12 176.782 308.094 176.788 308.068 176.788L307.991 176.767Z" fill="#A6A6A6"/>
<path d="M310.213 176.767C310.107 176.762 310.003 176.735 309.908 176.688C309.812 176.641 309.728 176.574 309.659 176.493C309.525 176.311 309.441 176.096 309.415 175.871C309.389 175.646 309.422 175.418 309.512 175.21C309.708 174.558 310.213 174.284 310.557 174.354C310.9 174.425 311.153 174.698 311.104 175.329C311.099 175.377 311.075 175.421 311.039 175.452C311.002 175.483 310.955 175.499 310.908 175.497C310.86 175.492 310.816 175.469 310.785 175.432C310.753 175.396 310.737 175.349 310.739 175.301C310.739 174.971 310.676 174.747 310.494 174.712C310.311 174.677 309.996 174.866 309.856 175.315C309.79 175.466 309.763 175.631 309.776 175.795C309.789 175.959 309.843 176.117 309.933 176.255C309.967 176.302 310.012 176.341 310.065 176.367C310.118 176.392 310.176 176.405 310.234 176.402C310.282 176.396 310.33 176.409 310.368 176.438C310.406 176.466 310.431 176.509 310.438 176.556C310.442 176.58 310.441 176.604 310.435 176.627C310.429 176.65 310.419 176.672 310.404 176.691C310.39 176.71 310.372 176.726 310.351 176.738C310.33 176.75 310.307 176.757 310.283 176.76L310.213 176.767Z" fill="#A6A6A6"/>
<path d="M136.985 194.695H100.943V196.315H136.985V194.695Z" fill="#37474F"/>
<path d="M119.083 194.695H100.943V196.315H119.083V194.695Z" fill="#263238"/>
<path d="M117.134 196.316H82.0108L77.418 172.461H112.541L117.134 196.316Z" fill="#37474F"/>
<path d="M99.4142 184.389C99.4441 184.661 99.4157 184.936 99.3309 185.197C99.2462 185.457 99.107 185.696 98.9226 185.899C98.7382 186.101 98.5128 186.262 98.2615 186.37C98.0101 186.479 97.7386 186.532 97.4649 186.528C96.8826 186.517 96.3243 186.294 95.8955 185.9C95.4666 185.506 95.1968 184.968 95.1369 184.389C95.1123 184.12 95.1446 183.848 95.2318 183.592C95.3189 183.336 95.459 183.101 95.6428 182.903C95.8266 182.704 96.0502 182.547 96.2988 182.441C96.5475 182.334 96.8158 182.281 97.0862 182.285C97.6635 182.293 98.2182 182.511 98.6466 182.899C99.075 183.286 99.3478 183.815 99.4142 184.389Z" fill="white"/>
<path d="M248.151 337.878C246.538 338.397 200.701 337.808 198.976 336.672C198.275 336.259 198.009 329.569 197.875 321.484C197.875 321.4 197.875 321.316 197.875 321.232C197.875 319.563 197.826 317.845 197.819 316.106C197.819 315.868 197.819 315.63 197.819 315.405L200.028 291.6L230.691 291.908L227.669 315.461L227.634 316.394L227.445 321.302V321.807C227.445 321.807 244.883 329.885 246.657 331.329C248.431 332.774 249.757 337.381 248.151 337.878Z" fill="#AD6359"/>
<path d="M248.151 337.879C246.538 338.398 200.701 337.809 198.976 336.673C198.275 336.26 198.009 329.57 197.875 321.486C197.875 321.401 197.875 321.317 197.875 321.233C197.875 319.564 197.826 317.846 197.819 316.107C197.819 315.869 197.819 315.631 197.819 315.406L227.683 315.49L227.648 316.423L227.459 321.331V321.836C227.459 321.836 244.897 329.914 246.671 331.358C248.445 332.803 249.757 337.382 248.151 337.879Z" fill="#EBEBEB"/>
<path d="M248.151 337.879C247.324 338.145 234.871 338.117 222.698 337.879C220.251 337.83 217.79 337.774 215.497 337.71C206.816 337.472 199.643 337.114 198.977 336.68C198.311 336.245 198.016 329.766 197.883 321.828C197.883 321.716 197.883 321.604 197.883 321.492C197.883 321.38 197.883 321.317 197.883 321.232H197.918L227.459 321.289V321.793C227.459 321.793 244.905 329.864 246.672 331.309C248.439 332.753 249.757 337.381 248.151 337.879Z" fill="#A6A6A6"/>
<path d="M247.654 336.111C239.94 335.824 208.744 335.41 201.087 335.683C201.024 335.683 201.024 335.725 201.087 335.732C208.737 336.181 239.926 336.37 247.654 336.237C247.815 336.237 247.815 336.118 247.654 336.111Z" fill="#263238"/>
<path d="M230.74 321.429C227.704 320.819 223.981 321.24 221.625 323.371C221.534 323.456 221.625 323.582 221.758 323.554C224.675 322.657 227.679 322.072 230.719 321.808C230.769 321.811 230.819 321.793 230.856 321.76C230.894 321.726 230.916 321.679 230.919 321.629C230.922 321.579 230.904 321.53 230.871 321.492C230.837 321.455 230.79 321.432 230.74 321.429Z" fill="#263238"/>
<path d="M232.914 322.776C229.885 322.173 226.155 322.586 223.799 324.725C223.707 324.809 223.799 324.935 223.925 324.907C226.845 324.004 229.854 323.416 232.9 323.154C232.942 323.144 232.98 323.121 233.007 323.088C233.035 323.055 233.05 323.013 233.052 322.97C233.053 322.927 233.041 322.885 233.016 322.85C232.991 322.814 232.955 322.788 232.914 322.776Z" fill="#263238"/>
<path d="M235.095 324.128C232.059 323.518 228.335 323.939 225.979 326.078C225.888 326.162 225.979 326.288 226.106 326.26C229.021 325.356 232.025 324.771 235.067 324.514C235.113 324.509 235.155 324.488 235.188 324.455C235.22 324.422 235.239 324.379 235.243 324.333C235.246 324.287 235.233 324.241 235.206 324.204C235.179 324.166 235.14 324.14 235.095 324.128Z" fill="#263238"/>
<path d="M222.67 337.879C220.223 337.83 217.761 337.774 215.468 337.71C206.788 337.472 199.614 337.114 198.948 336.68C198.282 336.245 197.988 329.766 197.854 321.828C197.854 321.716 197.854 321.604 197.854 321.492C197.854 321.38 197.854 321.317 197.854 321.232H197.89C201.949 324.079 216.212 333.573 222.67 337.879Z" fill="#263238"/>
<path d="M229.457 321.4H196.445C196.445 321.4 203.092 244.269 202.833 242.951C202.503 241.226 200.554 233.422 197.96 223.226C197.146 220.036 196.27 216.614 195.358 213.066C192.897 203.474 190.184 192.991 187.821 183.868C184.272 170.202 181.51 159.586 181.51 159.586H209.487C209.487 159.586 212.748 169.922 216.857 183.37C223.553 205.227 232.501 235.308 233.384 242.621C234.807 254.436 229.457 321.4 229.457 321.4Z" fill="#37474F"/>
<path d="M227.999 315.77C222.958 315.665 224.402 315.623 219.36 315.574C216.892 315.574 200.681 315.405 198.374 315.791C198.325 315.791 198.325 315.882 198.374 315.896C200.681 316.275 216.892 316.135 219.36 316.107C224.402 316.064 222.958 316.022 227.999 315.917C228.09 315.91 228.09 315.77 227.999 315.77Z" fill="#263238"/>
<path d="M209.046 238.239C207.966 233.464 206.346 228.787 204.937 224.103C202.076 214.585 199.199 205.075 196.305 195.571C194.861 190.817 193.409 186.063 191.951 181.309C191.208 178.911 190.471 176.513 189.721 174.122C188.971 171.731 188.15 169.452 187.491 167.11C187.218 166.149 187.071 166.675 187.414 167.895C188.115 170.363 188.816 172.803 189.518 175.279C190.92 180.145 192.35 185.007 193.809 189.864C196.67 199.54 199.556 209.205 202.469 218.858L206.844 233.401C207.587 235.699 208.189 238.041 208.646 240.413C209.035 242.898 209.134 245.421 208.941 247.929C208.625 252.985 208.036 258.026 207.573 263.068C207.111 268.11 206.634 273.165 206.171 278.214C205.236 288.264 204.313 298.315 203.401 308.365C203.289 309.634 203.177 310.91 203.079 312.187C203.079 312.614 203.689 312.579 203.738 312.187C204.825 302.251 205.659 292.28 206.592 282.323C207.524 272.366 208.45 262.521 209.397 252.613C209.628 250.131 209.887 247.642 209.894 245.139C209.871 242.814 209.587 240.5 209.046 238.239Z" fill="#263238"/>
<path d="M206.304 159.586C204.362 174.613 200.66 202.786 197.96 223.226C191.649 198.46 181.503 159.586 181.503 159.586H206.304Z" fill="#263238"/>
<path d="M213.176 338.335C211.57 338.861 165.733 338.433 164.001 337.311C163.3 336.89 163.005 330.208 162.844 322.123C162.844 322.039 162.844 321.955 162.844 321.871C162.844 320.202 162.781 318.491 162.774 316.752C162.774 316.507 162.774 316.268 162.774 316.051C162.669 304.383 163.475 292.273 163.475 292.273L193.437 292.47L192.603 316.03V316.962L192.435 321.836V322.341C192.435 322.341 209.908 330.348 211.682 331.793C213.456 333.237 214.782 337.823 213.176 338.335Z" fill="#AD6359"/>
<path d="M213.175 338.335C211.569 338.861 165.732 338.433 164.001 337.311C163.299 336.89 163.005 330.208 162.844 322.123C162.844 322.039 162.844 321.955 162.844 321.871C162.844 320.202 162.78 318.491 162.773 316.752C162.773 316.507 162.773 316.268 162.773 316.051H192.637V316.983L192.469 321.857V322.362C192.469 322.362 209.943 330.369 211.717 331.814C213.491 333.258 214.781 337.823 213.175 338.335Z" fill="#EBEBEB"/>
<path d="M213.175 338.335C211.57 338.86 165.733 338.433 164.001 337.311C163.3 336.89 163.005 330.208 162.844 322.123C162.844 322.039 162.844 321.955 162.844 321.871L192.42 321.814V322.319C192.42 322.319 209.894 330.327 211.668 331.771C213.442 333.216 214.781 337.823 213.175 338.335Z" fill="#A6A6A6"/>
<path d="M212.678 336.554C204.965 336.295 173.769 335.965 166.112 336.295C166.049 336.295 166.049 336.344 166.112 336.344C173.762 336.771 204.944 336.842 212.678 336.68C212.853 336.68 212.853 336.561 212.678 336.554Z" fill="#263238"/>
<path d="M195.709 321.933C192.673 321.337 188.95 321.764 186.594 323.91C186.502 323.994 186.594 324.12 186.72 324.092C189.632 323.181 192.634 322.584 195.674 322.311C195.724 322.316 195.774 322.301 195.813 322.268C195.852 322.236 195.876 322.19 195.881 322.14C195.886 322.089 195.87 322.039 195.838 322.001C195.806 321.962 195.759 321.937 195.709 321.933Z" fill="#263238"/>
<path d="M197.89 323.273C194.854 322.677 191.13 323.112 188.774 325.258C188.683 325.342 188.774 325.468 188.9 325.433C191.816 324.526 194.82 323.932 197.862 323.659C197.908 323.654 197.95 323.634 197.983 323.6C198.015 323.567 198.034 323.524 198.037 323.478C198.041 323.432 198.028 323.386 198.001 323.349C197.974 323.311 197.934 323.285 197.89 323.273Z" fill="#263238"/>
<path d="M200.07 324.618C197.034 324.022 193.311 324.45 190.955 326.596C190.864 326.68 190.955 326.806 191.081 326.778C193.995 325.865 197 325.27 200.042 325.004C200.088 324.999 200.131 324.979 200.163 324.945C200.195 324.912 200.215 324.869 200.218 324.823C200.221 324.777 200.208 324.731 200.181 324.694C200.154 324.656 200.115 324.63 200.07 324.618Z" fill="#263238"/>
<path d="M208.576 159.586C208.576 159.586 207.931 172.972 204.867 183.574C204.621 184.45 204.355 185.313 204.067 186.14C201.259 187.273 198.56 188.66 196.004 190.284C196.004 190.284 195.681 201.055 195.359 213.066C195.001 226.494 194.657 241.471 194.707 244.62C194.987 256.54 193.22 321.884 193.22 321.884L160.215 322.017C160.215 322.017 166.182 249.037 166.14 244.683C166.077 237.671 167.739 206.755 169.022 184.198C169.807 170.3 170.424 159.586 170.424 159.586H208.576Z" fill="#37474F"/>
<path d="M192.091 316.017C187.049 315.932 188.493 315.883 183.452 315.855C180.984 315.855 164.772 315.771 162.465 316.164C162.452 316.164 162.44 316.169 162.43 316.178C162.421 316.187 162.416 316.2 162.416 316.213C162.416 316.226 162.421 316.238 162.43 316.248C162.44 316.257 162.452 316.262 162.465 316.262C164.772 316.641 180.991 316.43 183.459 316.395C188.5 316.325 187.049 316.29 192.091 316.164C192.182 316.143 192.182 316.017 192.091 316.017Z" fill="#263238"/>
<path d="M173.229 164.369C172.619 182.782 171.974 201.202 171.125 219.602C170.277 238.001 169.183 256.534 167.619 274.961C166.757 285.254 165.943 299.734 164.814 310.021C164.814 310.091 164.913 310.119 164.92 310.021C167.325 291.79 168.664 269.169 169.828 250.784C170.992 232.398 171.812 213.992 172.436 195.586C172.787 185.18 173.06 174.76 173.376 164.348C173.46 164.207 173.229 164.221 173.229 164.369Z" fill="#263238"/>
<path d="M205.441 185.342C202.159 186.702 199.001 188.344 196.003 190.25C195.884 190.32 196.003 190.51 196.101 190.446C199.285 188.897 202.538 187.41 205.63 185.685C205.658 185.653 205.674 185.613 205.679 185.571C205.683 185.528 205.674 185.486 205.653 185.449C205.633 185.412 205.602 185.381 205.564 185.362C205.526 185.343 205.483 185.336 205.441 185.342Z" fill="#263238"/>
<path d="M216.85 183.37L204.866 183.574L187.82 183.868L169.021 184.198C169.807 170.3 170.424 159.586 170.424 159.586H209.452C209.452 159.586 212.741 169.922 216.85 183.37Z" fill="#263238"/>
<path d="M234.786 92.2151L230.046 112.956C229.843 113.559 230.158 114.05 230.747 114.036L241.384 113.798C241.708 113.766 242.017 113.644 242.274 113.444C242.531 113.244 242.726 112.975 242.836 112.669L247.576 91.9346C247.786 91.3245 247.471 90.8407 246.875 90.8477L236.238 91.0861C235.914 91.1191 235.606 91.2424 235.35 91.4421C235.093 91.6417 234.898 91.9096 234.786 92.2151Z" fill="#A6A6A6"/>
<path d="M236.056 92.1731L231.309 112.914C231.105 113.524 231.421 114.008 232.01 113.994L242.647 113.763C242.971 113.732 243.28 113.609 243.537 113.409C243.794 113.209 243.988 112.94 244.099 112.634L248.839 91.8926C249.049 91.2826 248.733 90.7988 248.137 90.8128L237.5 91.0442C237.178 91.0768 236.871 91.2001 236.615 91.3999C236.359 91.5997 236.165 91.8677 236.056 92.1731Z" fill="#DBDBDB"/>
<path d="M238.089 93.9614C238.589 93.9614 238.994 93.5564 238.994 93.0569C238.994 92.5573 238.589 92.1523 238.089 92.1523C237.59 92.1523 237.185 92.5573 237.185 93.0569C237.185 93.5564 237.59 93.9614 238.089 93.9614Z" fill="#455A64"/>
<path d="M201.178 124.205C207.37 136.945 221.113 153.43 226.709 153.423C229.373 153.423 234.135 153.998 237.584 150.892C245.122 144.119 251.321 131.259 252.527 123.945C252.955 121.337 240.235 115.874 238.391 118.013C234.085 123.027 229.135 132.822 228.357 132.773C225.489 132.598 214.172 123.419 206.269 116.954C196.67 109.108 198.71 119.107 201.178 124.205Z" fill="#AD6359"/>
<path d="M252.659 110.504C251.257 105.245 250.086 104.116 251.257 99.0463C252.028 95.7157 250.233 93.8014 247.912 96.494C244.126 100.897 244.519 108.064 245.374 110.518L252.659 110.504Z" fill="#AD6359"/>
<path d="M251.938 126.217C251.938 126.217 254.195 118.834 253.249 113.077C252.597 109.101 250.206 100.603 238.986 96.2482C236.329 95.2175 231.799 95.6312 235.537 98.8987C238.187 101.22 240.571 101.886 241.847 103.513C241.847 103.513 236.154 104.726 235.228 107.432C234.412 109.8 233.768 112.223 233.3 114.683C233.731 114.869 234.174 115.028 234.625 115.159C234.625 115.159 233.833 117.726 235.768 121.316L251.938 126.217Z" fill="#AD6359"/>
<path d="M252.022 109.38C250.388 108.034 246.889 105.236 243.229 103.953C239.162 102.551 230.951 100.854 229.907 103.869C229.156 106.078 232.242 106.982 232.242 106.982C232.242 106.982 228.701 106.982 228.455 109.156C228.231 111.112 230.657 111.673 230.657 111.673C230.657 111.673 228.511 112.059 228.665 113.98C228.841 116.294 233.307 115.102 235.509 117.29C235.993 117.78 252.022 109.38 252.022 109.38Z" fill="#AD6359"/>
<path d="M242.43 108.498C239.298 106.959 235.77 106.411 232.319 106.928C232.235 106.928 232.199 107.019 232.284 107.019C235.713 107.113 239.117 107.624 242.423 108.54C242.423 108.54 242.451 108.512 242.43 108.498Z" fill="#263238"/>
<path d="M240.9 112.557C239.309 111.855 234.59 110.719 230.712 111.596C230.628 111.596 230.6 111.687 230.677 111.687C234.106 111.603 237.533 111.909 240.893 112.599C240.893 112.599 240.9 112.571 240.9 112.557Z" fill="#263238"/>
<path d="M252.716 129.294C252.716 129.294 242.605 149.888 236.588 152.336C230.572 154.783 226.982 154.299 224.738 153.99C223.871 153.798 223.058 153.417 222.354 152.876C216.226 148.619 205.161 133.424 200.617 124.863C197.223 118.426 197.518 112.557 202.559 114.345C204.265 115.05 205.842 116.031 207.229 117.248C216.555 124.863 227.361 132.092 227.866 131.819C228.37 131.545 233.573 123.075 233.573 123.075L252.716 129.294Z" fill="#37474F"/>
<path d="M222.382 152.876C216.254 148.619 205.189 133.424 200.645 124.863C197.252 118.426 197.546 112.557 202.588 114.345C205.238 119.436 216.717 141.544 222.382 152.876Z" fill="#263238"/>
<path d="M250.198 133.054C249.497 132.682 248.747 132.444 248.025 132.135C247.302 131.826 246.566 131.553 245.83 131.273C244.428 130.749 242.999 130.237 241.546 129.737L237.254 128.222C235.775 127.71 234.288 127.114 232.774 126.722C232.767 126.719 232.76 126.718 232.754 126.719C232.747 126.719 232.74 126.721 232.734 126.724C232.728 126.727 232.722 126.731 232.718 126.736C232.713 126.741 232.709 126.747 232.707 126.753C232.705 126.76 232.704 126.767 232.704 126.773C232.705 126.78 232.706 126.787 232.709 126.793C232.712 126.799 232.716 126.805 232.721 126.81C232.726 126.814 232.732 126.818 232.739 126.82C234.141 127.521 235.67 127.984 237.135 128.538L241.469 130.172C242.913 130.712 244.364 131.244 245.823 131.756C246.524 132.009 247.225 132.254 247.983 132.458C248.702 132.718 249.435 132.94 250.177 133.124C250.24 133.166 250.247 133.082 250.198 133.054Z" fill="#263238"/>
<path d="M214.214 171.24C213.456 171.99 166.939 169.529 166.715 169.227C166.105 168.407 179.918 120.719 190.829 112.887C193.171 111.204 201.781 111.94 202.938 112.466C204.25 113.055 207.7 119.681 209.144 125.003C212.033 135.661 214.873 170.581 214.214 171.24Z" fill="#EBEBEB"/>
<path d="M198.633 123.39L200.996 119.688L203.611 122.878L202.77 125.872L200 126.075L198.633 123.39Z" fill="#3EB84B"/>
<path d="M200 126.076L197.006 156.908L202.244 167.447L205.876 156.108L202.77 125.873L200 126.076Z" fill="#3EB84B"/>
<path d="M218.119 181.955C218.119 181.955 211.991 181.647 203.794 181.205C203.254 178.295 202.111 171.192 201.992 171.192C201.9 171.346 199.622 178.204 198.878 180.945C190.92 180.504 181.909 179.999 174.813 179.543C167.717 179.087 162.43 178.674 162.157 178.456C161.883 178.239 165.908 168.745 166.364 167.342C169.87 156.249 176.09 134.225 180.802 126.049C182.891 122.324 185.288 118.78 187.968 115.454C188.241 115.138 188.487 114.844 188.725 114.578L190.415 112.656L203.036 139.028C203.079 138.523 204.761 114.669 204.761 114.669C208.331 120.474 210.936 126.821 212.474 133.461C215.279 145.914 215.062 163.984 215.777 172.622C215.784 172.622 218.119 181.78 218.119 181.955Z" fill="#37474F"/>
<path d="M187.961 115.453L174.813 179.542C167.654 179.072 162.43 178.673 162.157 178.455C161.883 178.238 165.908 168.744 166.364 167.341C169.87 156.249 176.09 134.224 180.802 126.048C182.888 122.323 185.283 118.779 187.961 115.453Z" fill="#263238"/>
<path d="M203.037 139.027C203.1 141.713 203.079 144.391 203.037 147.077C202.995 149.763 202.918 152.441 202.862 155.12C202.805 157.798 202.665 160.477 202.525 163.155L202.301 167.173C202.195 168.513 202.118 169.852 201.999 171.191C201.957 169.845 201.999 168.505 201.957 167.166V163.141C201.957 160.456 202.076 157.777 202.132 155.099C202.188 152.42 202.329 149.742 202.469 147.063C202.609 144.384 202.784 141.706 203.037 139.027Z" fill="#263238"/>
<path d="M199.972 149.811C200.712 149.811 201.311 149.212 201.311 148.472C201.311 147.732 200.712 147.133 199.972 147.133C199.232 147.133 198.633 147.732 198.633 148.472C198.633 149.212 199.232 149.811 199.972 149.811Z" fill="#263238"/>
<path d="M199.509 157.391C200.249 157.391 200.848 156.792 200.848 156.052C200.848 155.313 200.249 154.713 199.509 154.713C198.77 154.713 198.17 155.313 198.17 156.052C198.17 156.792 198.77 157.391 199.509 157.391Z" fill="#263238"/>
<path d="M199.046 164.964C199.786 164.964 200.386 164.364 200.386 163.624C200.386 162.885 199.786 162.285 199.046 162.285C198.307 162.285 197.707 162.885 197.707 163.624C197.707 164.364 198.307 164.964 199.046 164.964Z" fill="#263238"/>
<path d="M189.461 208.908H129.467V245.258H189.461V208.908Z" fill="#6B2626"/>
<path opacity="0.1" d="M189.461 208.908H129.467V226.024H189.461V208.908Z" fill="#111111"/>
<path d="M190.885 203.564H128.051V220.526H190.885V203.564Z" fill="#6B2626"/>
<path d="M172.695 193.889V203.565H168.145V198.061H150.79V203.565H146.239V193.889H172.695Z" fill="#263238"/>
<path d="M140.771 216.48H136.676V224.586H140.771V216.48Z" fill="#263238"/>
<path d="M182.26 216.48H178.165V224.586H182.26V216.48Z" fill="#263238"/>
<path d="M184.729 116.799C169.674 127.155 158.785 143.381 157.761 146.81C155.23 155.105 151.45 169.739 150.868 176.309C150.651 178.735 169.373 178.279 169.688 175.692C170.663 167.586 174.148 149.944 174.239 149.643C174.863 147.539 180.171 138.269 185.633 128.221C191.096 118.173 191.06 112.444 184.729 116.799Z" fill="#AD6359"/>
<path d="M168.194 201.293C167.626 201.464 167.019 201.456 166.455 201.272C165.891 201.088 165.397 200.736 165.039 200.263C164.402 201.04 163.514 201.57 162.529 201.763C160.769 202.023 159.598 199.379 159.598 199.379C158.768 200.048 157.757 200.453 156.695 200.543C154.984 200.613 153.427 198.117 153.427 198.117C152.323 198.309 151.186 198.1 150.223 197.528C148.61 196.483 147.811 191.323 147.839 188.413C147.867 185.503 150.643 177.292 151.036 175.672H169.688C169.688 175.672 173.271 188.735 172.752 192.15C172.317 195.046 170.34 200.564 168.194 201.293Z" fill="#AD6359"/>
<path d="M165.341 200.137C166.54 197.192 166.799 194.05 167.234 190.937C167.234 190.867 167.136 190.853 167.129 190.937C166.729 194.036 165.726 197.023 165.193 200.108C165.194 200.126 165.201 200.142 165.212 200.155C165.224 200.168 165.239 200.177 165.256 200.18C165.273 200.184 165.291 200.181 165.306 200.173C165.321 200.165 165.333 200.152 165.341 200.137Z" fill="#263238"/>
<path d="M159.843 199.316C160.052 198.621 160.168 197.902 160.187 197.177C160.248 196.415 160.304 195.651 160.355 194.884C160.439 193.351 160.486 191.813 160.495 190.27C160.495 190.207 160.397 190.186 160.39 190.27C160.299 191.799 160.187 193.328 160.033 194.856C159.955 195.62 159.871 196.378 159.787 197.142C159.655 197.854 159.604 198.578 159.633 199.302C159.639 199.324 159.652 199.343 159.67 199.358C159.688 199.372 159.71 199.381 159.733 199.382C159.756 199.384 159.779 199.378 159.799 199.366C159.818 199.354 159.834 199.337 159.843 199.316Z" fill="#263238"/>
<path d="M153.427 198.053C153.61 197.423 153.681 196.766 153.637 196.111C153.637 195.41 153.665 194.709 153.721 194.007C153.784 192.605 153.855 191.203 153.967 189.8C153.963 189.79 153.956 189.78 153.946 189.774C153.937 189.767 153.926 189.764 153.914 189.764C153.903 189.764 153.892 189.767 153.882 189.774C153.873 189.78 153.866 189.79 153.862 189.8C153.735 191.203 153.595 192.605 153.483 194.056C153.427 194.758 153.378 195.459 153.329 196.16C153.22 196.791 153.22 197.436 153.329 198.067C153.329 198.067 153.42 198.081 153.427 198.053Z" fill="#263238"/>
<path d="M170.578 175.903L150.117 174.256C150.117 174.256 154.626 152.217 157.066 146.264C159.506 140.311 175.031 122.893 184.16 116.519C192.75 110.531 192.483 116.05 188.493 123.896C184.504 131.742 175.115 149.686 174.666 151.102C174.217 152.519 170.578 175.903 170.578 175.903Z" fill="#37474F"/>
<path d="M170.214 171.696C169.45 171.52 168.65 171.492 167.879 171.387C167.108 171.282 166.315 171.205 165.53 171.135C164.022 170.994 162.508 170.882 160.993 170.777L156.457 170.461C154.9 170.356 153.308 170.174 151.744 170.195C151.674 170.195 151.66 170.293 151.744 170.3C153.287 170.574 154.879 170.651 156.442 170.798L161.049 171.233C162.592 171.373 164.128 171.506 165.67 171.611C166.427 171.668 167.185 171.717 167.942 171.738C168.699 171.759 169.471 171.85 170.235 171.801C170.284 171.78 170.27 171.696 170.214 171.696Z" fill="#263238"/>
<path d="M190.275 112.908C189.84 114.311 189.37 115.762 188.921 117.185C188.473 118.609 187.975 120.025 187.519 121.449L187.316 121.112C188.382 121.231 189.419 121.323 190.506 121.456L193.697 121.82L194.236 121.883L193.914 122.332C192.561 124.204 191.221 126.091 189.826 127.942L189.77 127.493C192 129.393 194.258 131.265 196.452 133.201C198.647 135.136 200.87 137.05 203.036 139.028C200.699 137.242 198.402 135.424 196.144 133.572C193.844 131.749 191.607 129.863 189.342 128.005L189.104 127.809L189.286 127.549C190.632 125.663 192.021 123.812 193.402 121.94L193.619 122.444L190.415 122.052C189.349 121.926 188.311 121.757 187.232 121.617L186.916 121.568L187.028 121.28C187.561 119.878 188.08 118.476 188.62 117.073C189.16 115.671 189.714 114.29 190.275 112.908Z" fill="#263238"/>
<path d="M204.439 114.043C204.797 114.681 205.14 115.319 205.477 115.964C205.813 116.609 206.178 117.24 206.494 117.893L208.478 121.777L208.709 122.233H208.19L205.049 122.079L205.323 121.518C206.437 122.787 207.552 124.049 208.646 125.325L208.779 125.486L208.702 125.683C207.805 127.927 206.886 130.17 205.933 132.393C204.979 134.616 204.025 136.853 203.016 139.055C203.801 136.759 204.621 134.478 205.477 132.211C206.332 129.944 207.197 127.684 208.071 125.43L208.127 125.781C207.012 124.519 205.919 123.236 204.818 121.959L204.285 121.342L205.091 121.405L208.225 121.637L207.938 122.065L206.157 118.082C205.855 117.423 205.575 116.75 205.287 116.083C205 115.417 204.713 114.716 204.439 114.043Z" fill="#263238"/>
<path d="M201.634 118.715C199.11 119.472 194.482 115.819 192.554 112.747C192.427 112.53 192.624 110.223 192.736 107.397C192.792 105.686 192.82 103.779 192.736 102.033C192.736 101.676 193.97 102.265 193.97 102.265L196.256 102.678L203.822 104.081C203.329 106.299 203.108 108.569 203.163 110.84C203.18 111.077 203.22 111.312 203.282 111.541C203.28 111.581 203.28 111.621 203.282 111.661C203.611 112.979 204.102 117.985 201.634 118.715Z" fill="#AD6359"/>
<path d="M203.289 111.513C203.287 111.552 203.287 111.592 203.289 111.632C202.919 111.705 202.544 111.747 202.167 111.758C194.798 112.025 193.325 102.72 193.325 102.72L196.242 102.678L203.808 104.08C203.315 106.298 203.094 108.568 203.149 110.84C203.175 111.068 203.222 111.293 203.289 111.513Z" fill="#263238"/>
<path d="M190.457 89.2214C189.539 93.1761 192.351 104.227 195.275 106.534C199.482 109.879 206.08 109.78 208.822 104.767C211.486 99.9076 207.566 85.5752 204.334 83.5137C199.573 80.4845 191.818 83.3804 190.457 89.2214Z" fill="#AD6359"/>
<path d="M201.634 95.3359C201.634 95.3359 201.585 95.385 201.592 95.4201C201.803 96.1213 201.915 97.0398 201.305 97.4535C201.305 97.4535 201.305 97.5026 201.305 97.4956C202.104 97.1731 201.943 96.0021 201.634 95.3359Z" fill="#263238"/>
<path d="M200.764 94.7265C199.544 94.9299 200.063 97.363 201.178 97.1667C202.293 96.9703 201.788 94.5652 200.764 94.7265Z" fill="#263238"/>
<path d="M205.841 94.4805C205.841 94.4805 205.904 94.4805 205.911 94.5366C206.044 95.2939 206.325 96.1423 207.054 96.2475V96.2895C206.205 96.3456 205.841 95.2237 205.841 94.4805Z" fill="#263238"/>
<path d="M206.346 93.5628C207.538 93.2192 208.134 95.6243 207.047 95.9398C205.96 96.2554 205.35 93.8643 206.346 93.5628Z" fill="#263238"/>
<path d="M199.58 93.8152C199.888 93.6609 200.155 93.4716 200.449 93.2893C200.744 93.107 201.066 92.9527 201.235 92.5881C201.271 92.4784 201.27 92.36 201.232 92.251C201.194 92.142 201.121 92.0486 201.024 91.9851C200.814 91.8888 200.581 91.8505 200.351 91.8739C200.12 91.8973 199.9 91.9817 199.713 92.1183C199.302 92.3484 198.988 92.7195 198.83 93.1631C198.806 93.2627 198.81 93.3669 198.841 93.4645C198.873 93.562 198.93 93.649 199.007 93.7162C199.085 93.7834 199.179 93.8282 199.28 93.8456C199.381 93.8631 199.485 93.8525 199.58 93.8152Z" fill="#263238"/>
<path d="M207.034 92.1382C206.694 92.143 206.354 92.1266 206.017 92.0891C205.656 92.123 205.293 92.0368 204.986 91.8437C204.902 91.7645 204.846 91.6594 204.828 91.5451C204.811 91.4307 204.832 91.3137 204.888 91.2127C205.028 91.0275 205.215 90.8832 205.429 90.7944C205.644 90.7057 205.878 90.6758 206.108 90.7078C206.582 90.7014 207.042 90.8713 207.398 91.1846C207.474 91.2613 207.526 91.358 207.548 91.4634C207.57 91.5687 207.561 91.6782 207.523 91.7787C207.484 91.8792 207.418 91.9666 207.331 92.0303C207.244 92.0941 207.141 92.1315 207.034 92.1382Z" fill="#263238"/>
<path d="M189.749 87.9593C191.025 82.1184 200.267 80.8422 202.973 82.3007C204.475 83.1032 205.643 84.4128 206.269 85.996C206.269 85.996 205.491 84.6357 204.502 84.7759C203.513 84.9161 203.703 86.1783 202.44 86.8374C201.178 87.4965 199.25 86.2694 197.034 86.9496C194.818 87.6298 193.97 89.6913 193.907 91.5775C193.844 93.4637 194.608 100.384 193.115 100.952C191.621 101.52 188.718 92.6854 189.749 87.9593Z" fill="#263238"/>
<path d="M193.472 98.1749C193.472 98.1749 190.625 94.7881 189.062 95.8329C187.498 96.8777 189.868 101.947 191.867 102.494C192.117 102.582 192.382 102.619 192.647 102.602C192.911 102.584 193.17 102.513 193.406 102.394C193.643 102.274 193.853 102.107 194.023 101.904C194.194 101.701 194.321 101.465 194.398 101.211L193.472 98.1749Z" fill="#AD6359"/>
<path d="M189.777 97.2715C189.777 97.2715 189.742 97.3136 189.777 97.3276C191.18 97.7483 192 98.9403 192.582 100.195C192.492 100.067 192.376 99.9592 192.24 99.8803C192.105 99.8013 191.954 99.7527 191.797 99.7381C191.641 99.7234 191.484 99.7429 191.336 99.7952C191.188 99.8476 191.053 99.9315 190.941 100.041C190.906 100.041 190.941 100.125 190.983 100.111C191.214 100.016 191.468 99.9933 191.711 100.047C191.955 100.101 192.175 100.229 192.344 100.413C192.615 100.724 192.85 101.065 193.045 101.43C193.122 101.542 193.332 101.43 193.276 101.324C193.22 99.5714 191.642 97.2785 189.777 97.2715Z" fill="#263238"/>
<path d="M203.387 111.934L200.652 118.518L192.518 110.055L190.155 112.712C190.155 112.712 198.058 126.119 198.128 125.509L200.933 119.836L204.824 123.847L204.621 113.883L203.387 111.934Z" fill="#EBEBEB"/>
<path d="M204.972 118.917C204.888 117.27 204.845 115.615 204.677 114.009C204.677 113.953 204.579 113.925 204.565 114.009C204.214 115.594 204.565 121.883 204.565 123.391C204.404 123.216 200.954 119.885 200.919 119.885C200.316 120.783 198.268 124.913 198.114 125.291C196.866 123.188 192.077 115.425 190.597 113.406C190.555 113.35 190.464 113.406 190.499 113.462C191.593 115.706 197.925 126.126 198.03 126.084C199.104 124.136 200.077 122.135 200.947 120.088C201.529 120.79 205.007 124.604 205.021 124.359C205.1 122.545 205.084 120.729 204.972 118.917Z" fill="#263238"/>
<path d="M63.6881 239.656C66.2966 237.103 69.6623 234.046 73.6521 235.119C77.3965 236.157 78.8339 240.245 79.5071 243.659C80.3695 248.056 81.0427 252.494 81.7439 256.919C82.4451 261.344 83.1463 265.859 83.7563 270.34C84.1139 272.864 84.4575 275.395 84.8291 277.92L85.355 281.713C85.5303 282.954 85.7337 284.195 85.8038 285.444C85.8038 285.843 85.2008 285.899 85.1026 285.521C84.6188 283.417 84.4014 281.222 84.1139 279.077C83.8264 276.931 83.4898 274.771 83.1743 272.626C82.5526 268.348 81.9145 264.073 81.26 259.801C80.6056 255.528 79.9441 251.258 79.2757 246.99C78.6937 243.372 78.4202 238.87 75.2158 236.472C74.346 235.875 73.338 235.51 72.2875 235.412C71.2371 235.314 70.1789 235.486 69.2136 235.911C67.11 236.718 65.4131 238.225 63.7653 239.726C63.7552 239.731 63.7439 239.732 63.7327 239.731C63.7216 239.729 63.7112 239.724 63.7029 239.717C63.6946 239.709 63.6888 239.699 63.6861 239.688C63.6835 239.678 63.6842 239.666 63.6881 239.656Z" fill="#263238"/>
<path d="M67.2572 237.048C67.2572 237.048 72.6143 235.127 75.2157 239.011C77.8171 242.896 74.7179 252.804 50.4355 258.385C51.1492 250.799 53.1208 243.384 56.2695 236.445C61.4723 225.1 70.7421 229.398 67.2572 237.048Z" fill="#3EB84B"/>
<path d="M51.8307 256.764C52.1956 256.082 52.6031 255.424 53.0507 254.794C53.4574 254.17 53.8641 253.546 54.2778 252.929C54.5934 252.459 54.9089 251.996 55.2314 251.526C55.2077 251.41 55.1913 251.293 55.1824 251.176L55.0982 250.544C55.0421 250.089 54.972 249.64 54.9089 249.184C54.8458 248.728 54.7687 248.28 54.6775 247.831C54.6212 247.354 54.5154 246.884 54.362 246.428C54.362 246.358 54.4601 246.323 54.4671 246.428C54.519 246.7 54.5917 246.967 54.6845 247.228C54.7406 247.431 54.7967 247.642 54.8458 247.845C54.965 248.301 55.0772 248.763 55.1824 249.247C55.2875 249.731 55.3577 250.11 55.4278 250.537C55.4278 250.748 55.4979 250.951 55.5259 251.162C55.9607 250.544 56.3954 249.934 56.8512 249.331C58.1414 247.635 59.5017 246.001 60.9181 244.423V244.381C60.7919 241.829 60.855 239.304 60.2941 236.794C60.2941 236.731 60.3782 236.689 60.3922 236.759C61.0156 239.093 61.313 241.502 61.2757 243.918C61.7806 243.35 62.2925 242.789 62.8043 242.235C63.9917 240.959 65.1977 239.709 66.4225 238.484C66.4332 238.477 66.4459 238.475 66.4584 238.476C66.4709 238.478 66.4825 238.483 66.4914 238.492C66.5004 238.501 66.506 238.513 66.5075 238.525C66.509 238.538 66.5062 238.55 66.4996 238.561C64.4591 240.763 62.5168 243.056 60.6236 245.391C62.1049 245.367 63.5865 245.421 65.0622 245.552C66.703 245.678 68.3438 245.889 69.9705 246.113C70.0336 246.113 70.0126 246.232 69.9705 246.218C68.3431 245.987 66.7048 245.839 65.0622 245.776C63.4775 245.713 61.8998 245.776 60.3221 245.776C59.2984 247.039 58.2886 248.315 57.293 249.605H57.5173C57.889 249.605 58.2606 249.605 58.6322 249.605C59.3685 249.605 60.1117 249.675 60.841 249.738C62.348 249.858 63.845 250.08 65.3216 250.404C65.3301 250.401 65.3392 250.4 65.3482 250.401C65.3572 250.402 65.3657 250.406 65.3732 250.411C65.3806 250.416 65.3867 250.423 65.3909 250.431C65.395 250.439 65.3972 250.448 65.3972 250.457C65.3972 250.466 65.395 250.475 65.3909 250.483C65.3867 250.491 65.3806 250.498 65.3732 250.503C65.3657 250.508 65.3572 250.511 65.3482 250.512C65.3392 250.514 65.3301 250.513 65.3216 250.509C63.8351 250.341 62.3415 250.208 60.841 250.152C60.1398 250.152 59.4386 250.152 58.6953 250.152H57.5454C57.338 250.177 57.1278 250.158 56.9283 250.096C56.2762 250.944 55.6241 251.786 54.979 252.641C54.4601 253.342 53.9553 254.001 53.4574 254.689C52.9596 255.376 52.4828 256.168 51.9148 256.827C51.8727 256.876 51.8026 256.82 51.8307 256.764Z" fill="#263238"/>
<path d="M64.9366 242.559C65.7966 242.446 66.6642 242.404 67.531 242.432C68.3935 242.432 69.263 242.432 70.1254 242.488C70.1339 242.485 70.143 242.484 70.152 242.485C70.161 242.487 70.1696 242.49 70.177 242.495C70.1844 242.5 70.1905 242.507 70.1947 242.515C70.1989 242.523 70.2011 242.532 70.2011 242.541C70.2011 242.55 70.1989 242.559 70.1947 242.567C70.1905 242.575 70.1844 242.582 70.177 242.587C70.1696 242.592 70.161 242.596 70.152 242.597C70.143 242.598 70.1339 242.597 70.1254 242.594C69.2489 242.531 68.3725 242.516 67.496 242.531C66.6195 242.545 65.7921 242.622 64.9436 242.601C64.9016 242.601 64.9016 242.566 64.9366 242.559Z" fill="#263238"/>
<path d="M57.3142 244.515C57.216 243.687 57.1108 242.853 56.9355 242.039C56.9355 241.962 57.0337 241.934 57.0407 242.039C57.1669 242.86 57.3282 243.666 57.4474 244.487C57.5105 244.893 57.5666 245.3 57.6157 245.714C57.6869 246.095 57.7198 246.483 57.7139 246.871C57.7139 246.889 57.7065 246.907 57.6933 246.92C57.6802 246.933 57.6624 246.941 57.6438 246.941C57.6252 246.941 57.6073 246.933 57.5942 246.92C57.581 246.907 57.5736 246.889 57.5736 246.871C57.4964 246.492 57.4542 246.107 57.4474 245.721C57.4053 245.321 57.3633 244.907 57.3142 244.515Z" fill="#263238"/>
<path d="M58.9131 235.33C59.1235 236.136 59.3338 236.957 59.4881 237.777C59.5582 238.191 59.6213 238.611 59.6844 239.032C59.7591 239.437 59.785 239.849 59.7615 240.259C59.7615 240.259 59.7055 240.294 59.6984 240.259C59.6002 239.878 59.5368 239.488 59.5091 239.095C59.453 238.689 59.3899 238.289 59.3198 237.889C59.1725 237.041 59.0253 236.199 58.8079 235.372C58.7939 235.302 58.8991 235.267 58.9131 235.33Z" fill="#263238"/>
<path d="M90.5085 284.546C90.6488 283.017 90.796 281.496 90.9573 279.967C91.2728 276.945 91.6585 273.93 92.0512 270.915C92.4438 267.9 92.8365 264.906 93.3203 261.912C93.5013 260.523 93.8112 259.155 94.2459 257.824C94.4043 257.253 94.6905 256.726 95.0829 256.283C95.4754 255.839 95.9637 255.491 96.5108 255.264C99.3646 254.283 101.293 257.242 102.443 259.338C102.443 259.401 102.387 259.443 102.352 259.387C101.651 258.399 99.7503 255.608 97.5836 255.741C96.1321 255.825 94.9611 256.863 94.2669 260.495C92.521 269.548 90.9503 287.919 90.761 289.125C90.6628 289.763 90.214 289.735 90.207 289.048C90.207 287.547 90.3823 286.047 90.5085 284.546Z" fill="#263238"/>
<path d="M101.679 258.209C101.679 258.209 99.1824 249.395 104.694 253.806C113.879 261.14 114.209 277.093 114.209 277.093C114.209 277.093 97.8571 267.612 95.8517 261.358C92.8296 252.039 101.679 258.209 101.679 258.209Z" fill="#3EB84B"/>
<path d="M98.5588 262.536C99.8419 262.796 101.139 262.964 102.429 263.153L104.266 263.413C104.68 263.469 105.101 263.504 105.522 263.56C104.302 261.884 103.074 260.215 101.91 258.504C101.868 258.441 101.967 258.371 102.023 258.427C102.991 259.424 103.901 260.475 104.75 261.576C104.989 260.874 105.234 260.208 105.451 259.528C105.725 258.736 106.026 257.951 106.23 257.137C106.23 257.074 106.349 257.102 106.328 257.137C106.111 257.944 105.949 258.771 105.732 259.577C105.537 260.36 105.303 261.132 105.031 261.891C105.634 262.67 106.202 263.462 106.763 264.268C107.043 263.469 107.394 262.698 107.639 261.891C107.645 261.879 107.656 261.87 107.668 261.865C107.68 261.86 107.694 261.859 107.707 261.864C107.72 261.868 107.73 261.877 107.737 261.888C107.744 261.9 107.747 261.913 107.744 261.926C107.45 262.817 107.289 263.749 107.043 264.647C107.422 265.194 107.793 265.741 108.151 266.295C108.81 267.311 109.434 268.349 110.037 269.394C110.085 269.413 110.125 269.448 110.152 269.492C110.178 269.536 110.19 269.588 110.185 269.639C111.215 271.427 112.197 273.237 113.165 275.06C113.172 275.073 113.174 275.088 113.17 275.103C113.166 275.117 113.157 275.129 113.144 275.137C113.131 275.144 113.115 275.146 113.101 275.142C113.086 275.138 113.074 275.129 113.066 275.116C112.099 273.314 111.019 271.554 109.897 269.829C109.723 269.778 109.544 269.743 109.364 269.724L108.796 269.604C108.375 269.513 107.955 269.401 107.541 269.296C106.707 269.092 105.893 268.896 105.052 268.749C104.982 268.749 105.01 268.637 105.052 268.651C106.04 268.833 107.036 268.945 108.032 269.064C108.502 269.121 108.971 269.177 109.434 269.254H109.504C108.915 268.366 108.319 267.482 107.716 266.603C107.127 265.741 106.517 264.892 105.9 264.044C105.339 263.967 104.778 263.82 104.217 263.707L102.317 263.343C101.055 263.09 99.7999 262.81 98.5237 262.599C98.4886 262.627 98.5167 262.522 98.5588 262.536Z" fill="#263238"/>
<path d="M108.375 263.406C108.452 263.175 108.522 262.937 108.6 262.705C108.754 262.214 108.866 261.724 108.971 261.226C108.971 261.156 109.09 261.191 109.076 261.261C108.971 261.759 108.852 262.249 108.74 262.747C108.636 263.246 108.493 263.736 108.312 264.213C108.263 264.325 108.088 264.283 108.123 264.157C108.214 263.904 108.312 263.652 108.375 263.406Z" fill="#263238"/>
<path d="M96.9176 260.495C97.6608 260.607 98.4111 260.657 99.1614 260.727C99.9116 260.797 100.655 260.895 101.405 261.007C101.447 261.007 101.447 261.077 101.405 261.07C100.648 261.021 99.9046 260.965 99.1544 260.867C98.4041 260.769 97.6678 260.657 96.9105 260.607C96.8404 260.6 96.8474 260.481 96.9176 260.495Z" fill="#263238"/>
<path d="M78.497 273.368C78.7915 266.882 79.1982 260.403 79.8503 253.945C80.1798 250.727 80.5515 247.508 80.9932 244.311C81.3981 241.161 82.019 238.043 82.8514 234.978C83.42 232.607 84.4702 230.377 85.9366 228.429C86.667 227.471 87.6304 226.716 88.7351 226.237C89.8397 225.757 91.0489 225.568 92.2474 225.687C95.0522 226.038 97.3661 227.826 99.3505 229.768C101.566 231.949 103.6 234.333 105.661 236.668C106.18 237.257 106.692 237.846 107.204 238.449C107.208 238.454 107.212 238.46 107.214 238.466C107.217 238.473 107.218 238.48 107.217 238.487C107.217 238.493 107.215 238.5 107.212 238.506C107.209 238.512 107.205 238.518 107.2 238.523C107.195 238.527 107.189 238.531 107.183 238.533C107.176 238.535 107.17 238.536 107.163 238.536C107.156 238.536 107.149 238.534 107.143 238.531C107.137 238.528 107.131 238.524 107.127 238.519C105.114 236.212 103.032 233.968 100.816 231.83C98.7965 229.845 96.721 227.679 93.9232 226.858C92.6253 226.443 91.2349 226.411 89.9194 226.767C88.8746 227.101 87.9329 227.697 87.1848 228.499C85.6914 230.225 84.6335 232.283 84.0995 234.501C82.3535 240.461 81.7295 246.716 81.0774 252.873C80.4253 259.029 79.9765 265.403 79.675 271.686C79.3735 277.968 79.114 284.307 78.504 290.618C78.4339 291.396 78.3287 292.167 78.2305 292.946C78.1674 293.465 77.354 293.465 77.3961 292.946C77.908 286.425 78.2235 279.911 78.497 273.368Z" fill="#263238"/>
<path d="M99.6873 230.476C99.6873 230.476 95.985 223.619 100.388 221.417C104.792 219.215 119.419 235.574 123.703 259.485C123.703 259.485 100.038 249.016 92.0022 238.582C83.9665 228.148 93.047 225.856 99.6873 230.476Z" fill="#3EB84B"/>
<path d="M96.2095 236.052C98.874 236.052 101.524 235.849 104.182 235.87C103.684 235.295 103.186 234.727 102.681 234.159C101.93 233.398 101.227 232.59 100.578 231.74C100.578 231.684 100.62 231.606 100.676 231.649C101.393 232.274 102.066 232.948 102.688 233.668C103.355 234.369 104.014 235.07 104.673 235.772C105.69 236.872 106.685 237.987 107.681 239.109C107.681 239.004 107.681 238.892 107.681 238.787C107.681 238.324 107.681 237.854 107.681 237.384C107.681 236.48 107.681 235.582 107.681 234.678C107.681 232.848 107.681 231.01 107.541 229.187C107.541 229.117 107.646 229.117 107.653 229.187C107.779 231.024 107.968 232.848 108.06 234.685C108.102 235.589 108.123 236.494 108.137 237.391C108.137 237.861 108.137 238.324 108.137 238.794C108.137 239.046 108.137 239.313 108.137 239.572L108.607 240.098C110.71 242.524 112.744 245.006 114.707 247.58C114.707 247.439 114.707 247.299 114.742 247.159C114.742 246.878 114.805 246.598 114.84 246.318C114.903 245.707 114.987 245.097 115.079 244.487C115.17 243.877 115.254 243.351 115.352 242.783C115.45 242.216 115.618 241.493 115.668 240.848C115.668 240.771 115.787 240.785 115.773 240.848C115.663 241.493 115.588 242.144 115.548 242.798C115.492 243.387 115.443 243.969 115.387 244.55C115.331 245.132 115.282 245.729 115.219 246.311C115.219 246.591 115.17 246.871 115.135 247.152C115.135 247.292 115.135 247.439 115.086 247.58C115.07 247.696 115.032 247.808 114.973 247.909L115.983 249.234C117.322 251.008 118.641 252.804 119.959 254.599C120.001 254.655 119.924 254.732 119.882 254.676C118.634 253.049 117.355 251.446 116.046 249.866C115.072 249.908 114.083 249.866 113.108 249.816C112.134 249.767 111.054 249.816 110.03 249.816C110.015 249.816 110.001 249.811 109.99 249.8C109.98 249.79 109.974 249.775 109.974 249.76C109.974 249.745 109.98 249.731 109.99 249.721C110.001 249.71 110.015 249.704 110.03 249.704C111.061 249.704 112.084 249.704 113.108 249.704C114.132 249.704 115.001 249.662 115.913 249.704C114.77 248.302 113.613 246.899 112.456 245.553L111.18 244.123C110.785 244.175 110.386 244.189 109.988 244.165H108.586C107.709 244.165 106.833 244.165 105.963 244.165C104.154 244.165 102.345 244.081 100.543 244.074C100.528 244.074 100.514 244.068 100.503 244.057C100.493 244.047 100.487 244.032 100.487 244.018C100.487 244.003 100.493 243.988 100.503 243.978C100.514 243.967 100.528 243.961 100.543 243.961C102.352 243.961 104.161 243.863 105.97 243.814C106.847 243.814 107.716 243.765 108.593 243.758H109.995C110.261 243.758 110.535 243.758 110.801 243.758C109.813 242.58 108.817 241.395 107.821 240.252C107.797 240.236 107.778 240.215 107.765 240.189C106.797 239.039 105.825 237.896 104.848 236.76C104.715 236.606 104.575 236.459 104.441 236.297C101.686 236.389 98.9301 236.206 96.1744 236.255C96.1393 236.164 96.1393 236.052 96.2095 236.052Z" fill="#263238"/>
<path d="M97.57 240.75H98.2151C98.2281 240.75 98.2406 240.755 98.2498 240.764C98.259 240.774 98.2641 240.786 98.2641 240.799C98.2641 240.812 98.259 240.825 98.2498 240.834C98.2406 240.843 98.2281 240.848 98.2151 240.848H97.57C97.5612 240.843 97.5539 240.836 97.5488 240.828C97.5437 240.819 97.541 240.809 97.541 240.799C97.541 240.789 97.5437 240.779 97.5488 240.771C97.5539 240.762 97.5612 240.755 97.57 240.75Z" fill="#263238"/>
<path d="M99.0069 240.764L101.559 240.708L102.835 240.666C103.231 240.617 103.632 240.617 104.027 240.666C104.07 240.666 104.027 240.736 104.027 240.743C103.636 240.823 103.235 240.852 102.835 240.827H101.552C100.704 240.827 99.8554 240.827 98.9999 240.827C98.9921 240.836 98.9816 240.842 98.9699 240.845C98.9582 240.848 98.946 240.847 98.935 240.842C98.9241 240.837 98.9149 240.829 98.9089 240.818C98.9029 240.808 98.9004 240.796 98.9017 240.784C98.903 240.772 98.9081 240.761 98.9163 240.752C98.9244 240.744 98.9351 240.738 98.9469 240.735C98.9586 240.733 98.9708 240.735 98.9816 240.74C98.9924 240.745 99.0013 240.753 99.0069 240.764Z" fill="#263238"/>
<path d="M106.44 248.743C108.172 248.461 109.923 248.304 111.678 248.273C111.678 248.273 111.678 248.308 111.678 248.316C109.939 248.477 108.172 248.575 106.468 248.855C106.398 248.862 106.377 248.757 106.44 248.743Z" fill="#263238"/>
<path d="M113.557 241.114C113.557 240.96 113.592 240.806 113.613 240.659C113.655 240.315 113.711 239.957 113.76 239.635C113.866 238.983 113.978 238.331 114.104 237.685C114.104 237.629 114.216 237.643 114.209 237.685C114.125 238.352 114.055 239.025 113.992 239.691L113.908 240.68C113.917 240.998 113.872 241.316 113.774 241.619C113.765 241.642 113.748 241.661 113.728 241.674C113.707 241.688 113.683 241.695 113.659 241.695C113.634 241.695 113.61 241.688 113.59 241.674C113.569 241.661 113.553 241.642 113.543 241.619C113.514 241.452 113.519 241.28 113.557 241.114Z" fill="#263238"/>
<path d="M78.7354 221.67C79.5768 220.093 80.6566 218.01 82.7742 218.164C84.5132 218.27 85.3055 220.051 85.6772 221.523C86.8271 226.081 86.9113 230.884 87.1357 235.547C87.6125 245.413 88.0332 255.286 88.0963 265.165C88.0963 267.9 88.0963 270.635 88.0963 273.376C88.0963 276.118 88.0963 278.986 87.9 281.791C87.891 281.839 87.8654 281.883 87.8277 281.914C87.7899 281.946 87.7423 281.963 87.6931 281.963C87.644 281.963 87.5964 281.946 87.5586 281.914C87.5208 281.883 87.4952 281.839 87.4863 281.791C87.4863 279.407 87.5564 277.015 87.5634 274.624C87.5704 272.233 87.5634 269.969 87.5213 267.612C87.4419 262.891 87.3156 258.172 87.1427 253.455C86.9674 248.771 86.764 244.08 86.5677 239.396C86.4625 237.054 86.3644 234.713 86.2592 232.385C86.154 230.057 86.0628 227.848 85.8034 225.59C85.6561 224.328 85.4668 223.059 85.2074 221.818C85.0738 220.892 84.6962 220.018 84.1135 219.286C83.7099 218.888 83.1777 218.647 82.6122 218.606C82.0468 218.565 81.4852 218.726 81.0283 219.062C80.0643 219.755 79.3079 220.698 78.8405 221.79C78.7915 221.79 78.7003 221.733 78.7354 221.67Z" fill="#263238"/>
<path d="M79.3041 220.913C79.3041 220.913 81.043 214.778 77.2005 217.849C70.8056 222.954 70.5742 234.103 70.5742 234.103C70.5742 234.103 81.9476 227.497 83.364 223.143C85.4676 216.622 79.3041 220.913 79.3041 220.913Z" fill="#3EB84B"/>
<path d="M72.9721 229.517C73.0703 229.341 73.1825 229.18 73.2947 229.012C73.2806 228.837 73.2806 228.661 73.2947 228.486C73.2947 228.219 73.2947 227.96 73.2947 227.694C73.2947 227.175 73.2947 226.656 73.2386 226.137C73.2386 226.067 73.3437 226.074 73.3508 226.137C73.3508 226.642 73.3998 227.154 73.4139 227.659V228.423C73.4139 228.521 73.4139 228.64 73.4139 228.752C73.8556 228.051 74.3184 227.35 74.8162 226.698L75.237 226.116C75.2931 225.451 75.2931 224.782 75.237 224.118C75.237 223.416 75.237 222.715 75.1949 221.972C75.1949 221.902 75.3001 221.909 75.3071 221.972C75.3071 222.715 75.3632 223.451 75.3982 224.195C75.4439 224.724 75.4579 225.255 75.4403 225.786C76.5903 224.286 77.7542 222.883 78.9252 221.432C78.9673 221.383 79.0515 221.432 79.0094 221.502C78.2801 222.437 77.579 223.372 76.9058 224.307C78.2381 223.991 79.5984 223.816 80.9587 223.606C81.0288 223.606 81.0569 223.697 80.9587 223.711C79.5563 223.928 78.1048 224.286 76.6884 224.601C76.1415 225.373 75.6016 226.144 75.0687 226.915L74.4236 227.862H74.4867L74.9284 227.806C75.244 227.764 75.5595 227.743 75.8751 227.715C76.5272 227.666 77.1863 227.63 77.8384 227.595C77.9085 227.595 77.9085 227.701 77.8384 227.701C77.1933 227.701 76.5482 227.764 75.9031 227.834L74.8864 227.96L74.4446 228.009H74.3184C73.9538 228.549 73.5821 229.082 73.2245 229.622C72.5794 230.568 72.0045 231.585 71.3243 232.504C71.3153 232.512 71.304 232.516 71.2921 232.517C71.2802 232.518 71.2683 232.515 71.2581 232.509C71.248 232.503 71.2401 232.494 71.2356 232.483C71.2311 232.471 71.2302 232.459 71.2332 232.448C71.7532 231.437 72.3339 230.458 72.9721 229.517Z" fill="#263238"/>
<path d="M75.7975 222.581V221.88C75.8116 221.377 75.7905 220.873 75.7344 220.373C75.7344 220.358 75.7403 220.343 75.7508 220.333C75.7613 220.322 75.7756 220.316 75.7905 220.316C75.8053 220.316 75.8196 220.322 75.8301 220.333C75.8407 220.343 75.8466 220.358 75.8466 220.373C75.8466 220.87 75.8957 221.368 75.9237 221.866C75.9237 222.111 75.9237 222.364 75.9237 222.609C75.9237 222.729 75.9237 222.841 75.9237 222.953C75.945 223.071 75.945 223.192 75.9237 223.31C75.9237 223.324 75.9185 223.336 75.9093 223.345C75.9001 223.354 75.8876 223.36 75.8746 223.36C75.8616 223.36 75.8491 223.354 75.8399 223.345C75.8307 223.336 75.8255 223.324 75.8255 223.31C75.8081 223.201 75.8081 223.09 75.8255 222.981L75.7975 222.581Z" fill="#263238"/>
<path d="M77.2069 225.12C77.6277 225.049 78.0624 225.028 78.4901 224.993C78.9178 224.958 79.4227 224.909 79.8925 224.853C79.901 224.85 79.9101 224.849 79.9191 224.85C79.9281 224.851 79.9366 224.854 79.9441 224.86C79.9515 224.865 79.9576 224.872 79.9617 224.88C79.9659 224.888 79.9681 224.897 79.9681 224.906C79.9681 224.915 79.9659 224.924 79.9617 224.932C79.9576 224.94 79.9515 224.947 79.9441 224.952C79.9366 224.957 79.9281 224.96 79.9191 224.961C79.9101 224.962 79.901 224.961 79.8925 224.958C78.995 225.014 78.0974 225.176 77.1999 225.211C77.1649 225.211 77.1579 225.134 77.2069 225.12Z" fill="#263238"/>
<path d="M78.4689 254.437C80.86 252.642 83.0057 250.062 86.2241 249.936C88.8817 249.83 90.7398 251.829 91.8337 254.052C92.3667 255.236 92.8006 256.463 93.1309 257.719C93.6147 259.402 94.0635 261.085 94.4842 262.781C95.3163 266.119 96.0175 269.483 96.5878 272.872C96.9103 274.758 97.2118 276.658 97.4502 278.558C97.7561 280.485 97.9434 282.429 98.0112 284.378C98.0108 284.452 97.9831 284.524 97.9333 284.579C97.8835 284.634 97.8152 284.669 97.7414 284.677C97.6676 284.684 97.5935 284.665 97.5334 284.621C97.4732 284.578 97.4311 284.514 97.4152 284.441C97.0926 282.85 96.9594 281.209 96.714 279.603C96.4686 277.997 96.2372 276.371 95.9637 274.765C95.4168 271.539 94.781 268.333 94.0565 265.144C93.3553 262.136 92.6962 259.086 91.7285 256.155C91.0273 254.052 89.9124 251.597 87.6476 250.847C84.1977 249.697 81.0634 252.621 78.532 254.514C78.49 254.542 78.4128 254.437 78.4689 254.437Z" fill="#263238"/>
<path d="M80.9442 252.705C80.9442 252.705 83.146 246.395 79.9555 245.175C75.1804 243.324 62.6711 257.41 65.1253 278.993C65.1253 278.993 74.7877 273.671 81.9189 267.683C89.05 261.695 90.8801 253.869 87.7388 251.85C84.5974 249.831 80.9442 252.705 80.9442 252.705Z" fill="#3EB84B"/>
<path d="M66.5629 274.364C66.8966 273.612 67.2856 272.885 67.7269 272.19C68.1336 271.454 68.5473 270.718 68.975 269.989C69.8094 268.586 70.6298 267.142 71.4853 265.732L71.899 265.031C71.899 264.947 71.899 264.863 71.8499 264.779L71.7097 264.155C71.5975 263.685 71.5203 263.215 71.4292 262.752C71.2609 261.834 71.0996 260.894 70.8472 259.99C70.8472 259.92 70.9384 259.899 70.9594 259.99C71.1557 260.915 71.4432 261.82 71.7167 262.724C71.8499 263.173 71.9972 263.615 72.1093 264.064L72.2356 264.526C73.2593 262.844 74.3391 261.168 75.433 259.548C75.3582 259.322 75.3203 259.085 75.3208 258.847C75.3208 258.531 75.2507 258.216 75.2086 257.9C75.1245 257.199 75.0473 256.498 74.9422 255.797C74.7609 254.405 74.5081 253.025 74.1849 251.66C74.1849 251.589 74.276 251.575 74.2901 251.66C74.6336 253.02 74.9913 254.38 75.2717 255.754C75.3979 256.456 75.5171 257.115 75.6083 257.795C75.6504 258.132 75.6854 258.496 75.7205 258.819L75.7626 259.127C76.1061 258.636 76.4638 258.146 76.8144 257.669C77.9222 256.217 79.0652 254.801 80.2222 253.391C80.2642 253.335 80.3554 253.391 80.3063 253.455C78.3289 255.983 76.5139 258.634 74.872 261.392L73.9324 262.851H74.248C74.6477 262.794 75.0614 262.773 75.461 262.731C76.2744 262.652 77.0878 262.582 77.9012 262.521C79.535 262.395 81.1618 262.29 82.8096 262.121C82.8797 262.121 82.9007 262.219 82.8096 262.226C81.1618 262.416 79.528 262.675 77.9012 262.928L75.4821 263.25C74.8681 263.374 74.2433 263.438 73.6169 263.44C72.9788 264.484 72.3337 265.543 71.6956 266.56C71.8359 266.56 71.9831 266.56 72.1304 266.56H74.4373C75.4891 266.56 76.5409 266.56 77.5857 266.56C77.6558 266.56 77.6418 266.665 77.5857 266.665C76.5269 266.665 75.4821 266.735 74.4093 266.791L72.8947 266.882L72.1444 266.939C71.9134 266.989 71.6742 266.989 71.4432 266.939C70.9056 267.822 70.361 268.706 69.8094 269.589C69.3116 270.402 68.8067 271.216 68.2878 272.022C67.8082 272.884 67.2619 273.707 66.6541 274.483C66.626 274.469 66.5419 274.434 66.5629 274.364Z" fill="#263238"/>
<path d="M71.1702 256.926C71.2665 257.618 71.4118 258.302 71.6049 258.974C71.7802 259.675 71.9835 260.376 72.2079 261.077C72.2146 261.086 72.2191 261.097 72.2209 261.107C72.2228 261.118 72.2221 261.13 72.2188 261.14C72.2154 261.151 72.2097 261.161 72.2019 261.168C72.1941 261.176 72.1845 261.182 72.174 261.186C72.1635 261.189 72.1522 261.19 72.1413 261.189C72.1303 261.187 72.1199 261.183 72.1108 261.176C72.1018 261.17 72.0945 261.161 72.0894 261.151C72.0844 261.141 72.0817 261.13 72.0817 261.119C71.8643 260.418 71.675 259.752 71.5067 259.065C71.3384 258.378 71.2333 257.662 71.065 256.961C71.0439 256.87 71.1632 256.849 71.1702 256.926Z" fill="#263238"/>
<path d="M78.2728 261.14C78.4172 261.01 78.605 260.94 78.7987 260.943L79.7102 260.817C80.2712 260.74 80.8392 260.677 81.4071 260.614C82.5851 260.473 83.7631 260.361 84.9131 260.207C84.9832 260.207 85.0042 260.312 84.9131 260.319C83.7982 260.452 82.6973 260.621 81.5894 260.768C81.0425 260.838 80.5026 260.915 79.9557 260.978L79.1703 261.069C78.8651 261.069 78.562 261.119 78.2728 261.217C78.2728 261.245 78.2237 261.175 78.2728 261.14Z" fill="#263238"/>
<path d="M71.2121 270.628C71.7661 270.586 72.327 270.565 72.881 270.551H73.7224H74.1291C74.3039 270.568 74.4801 270.568 74.655 270.551C74.7321 270.551 74.7461 270.67 74.655 270.656C74.4917 270.642 74.3275 270.642 74.1641 270.656H73.7224L72.881 270.705C72.327 270.705 71.7661 270.775 71.2051 270.775C71.128 270.747 71.121 270.635 71.2121 270.628Z" fill="#263238"/>
<path d="M67.7827 268.216C67.7196 267.901 67.6565 267.585 67.6004 267.269C67.4812 266.645 67.369 266.021 67.2568 265.397C67.2568 265.334 67.348 265.313 67.362 265.397C67.5023 266 67.6355 266.61 67.7757 267.213C67.8388 267.515 67.9089 267.816 67.9721 268.125C67.9721 268.265 68.0281 268.405 68.0632 268.546C68.1071 268.689 68.1238 268.838 68.1123 268.987C68.1123 269.043 68.0282 269.086 67.9931 269.029C67.8716 268.774 67.8002 268.498 67.7827 268.216Z" fill="#263238"/>
<path d="M70.4756 286.818L70.7701 295.667L72.6002 329.079H102.359L104.182 295.667L104.483 286.818H70.4756Z" fill="#37474F"/>
<path d="M70.4756 286.818L70.7701 295.667H104.182L104.483 286.818H70.4756Z" fill="#263238"/>
<path d="M66.57 289.426H108.368V280.5H66.57V289.426Z" fill="#37474F"/>
</svg>
